<svg width="200" height="64" viewBox="0 0 200 64" fill="none" xmlns="http://www.w3.org/2000/svg">
<path d="M81.6245 29.3709H89.1003L88.016 32.6281H80.7115C78.7712 32.6281 77.1733 31.0281 77.1733 29.0852V14.1138H80.5973V28.3995C80.6544 28.9709 81.0539 29.3709 81.6245 29.3709Z" fill="white"/>
<path d="M102.739 17.7709H105.935V32.6852H102.739V30.5138C101.541 32.1709 99.6004 33.1423 97.546 33.028C95.5486 33.028 93.6654 32.228 92.2958 30.7423C89.3854 27.5995 89.3854 22.7423 92.2958 19.5995C93.6654 18.1709 95.5486 17.3138 97.546 17.3709C99.6004 17.2566 101.541 18.228 102.739 19.8852V17.7709ZM94.6926 28.628C96.5758 30.3995 99.5433 30.3995 101.427 28.628C103.196 26.6852 103.196 23.7138 101.427 21.828C99.5433 20.0566 96.5758 20.0566 94.6926 21.828C92.8665 23.7709 92.8665 26.7423 94.6926 28.628Z" fill="white"/>
<path d="M113.525 29.6567H120.772V32.6853H109.131V30.5139L116.093 20.7996H109.473V17.771H120.487V19.9424L113.525 29.6567Z" fill="white"/>
<path d="M125.395 26.5708C125.566 27.5994 126.136 28.5708 127.049 29.1994C127.962 29.828 129.047 30.1137 130.188 30.1137C131.672 30.228 133.156 29.4851 134.012 28.2851L136.637 29.828C135.153 31.9994 132.984 33.0851 130.131 33.0851C127.963 33.1994 125.851 32.3423 124.253 30.8566C122.769 29.3708 121.971 27.3708 122.028 25.2566C121.913 21.0851 125.166 17.5423 129.389 17.428C129.56 17.428 129.732 17.428 129.846 17.428C131.9 17.3708 133.84 18.228 135.21 19.7137C136.58 21.2566 137.378 23.1994 137.321 25.2566C137.321 25.7137 137.264 26.1708 137.207 26.5708H125.395ZM125.337 23.9994H134.069C133.955 22.9137 133.384 21.9423 132.585 21.2566C131.786 20.628 130.816 20.3423 129.846 20.3423C128.761 20.2851 127.734 20.628 126.878 21.3137C126.079 21.9994 125.509 22.9137 125.337 23.9994Z" fill="white"/>
<path d="M143.371 20.2849C144.169 18.3992 145.71 17.4849 147.936 17.5421V21.0278C146.795 20.9135 145.653 21.2564 144.74 21.8849C143.827 22.5706 143.371 23.6564 143.371 25.1992V32.6849H140.175V17.7706H143.371V20.2849Z" fill="white"/>
<path d="M157.238 20.8566H154.099V27.9995C154.042 28.4566 154.213 28.9709 154.499 29.3138C154.841 29.5995 155.298 29.7709 155.754 29.7709C156.553 29.7709 157.409 29.7138 158.208 29.5423L158.493 32.3423C155.64 33.3709 153.643 32.7423 152.558 32.0566C151.474 31.3138 150.96 29.9995 150.96 28.0566V15.0852L154.156 14.1138V17.7709H158.379L157.238 20.8566Z" fill="white"/>
<path d="M170.877 17.771H174.072V32.6853H170.877V30.7996C169.907 32.3424 168.366 33.0853 166.254 33.0853C164.713 33.1424 163.23 32.571 162.145 31.4281C161.061 30.2281 160.491 28.571 160.548 26.971V17.8281H163.743V26.6281C163.686 27.5424 164.029 28.5139 164.656 29.1996C165.284 29.8281 166.197 30.1139 167.11 30.1139C168.137 30.171 169.108 29.771 169.849 29.0281C170.534 28.3424 170.877 27.2567 170.877 25.771V17.771Z" fill="white"/>
<path d="M181.035 20.2849C181.833 18.3992 183.374 17.4849 185.6 17.5421V21.0278C184.459 20.9135 183.317 21.1992 182.347 21.8849C181.434 22.5706 180.977 23.6564 180.977 25.1992V32.6849H177.782V17.7706H180.977L181.035 20.2849Z" fill="white"/>
<path d="M58.7408 35.3706L56.2299 40.1706H41.3354L43.8464 35.3706H58.7408Z" fill="white"/>
<path d="M53.833 44.9136L51.3221 49.7136H36.5989C32.8895 49.7136 29.865 46.6851 29.865 43.0279C29.865 41.9422 30.1503 40.9136 30.6069 39.9422L44.7023 12.6851H50.1237L34.9439 41.8851C34.4303 42.9136 34.8298 44.1136 35.7999 44.6279C36.0853 44.7993 36.4277 44.8565 36.7701 44.8565L53.833 44.9136Z" fill="white"/>
<path d="M39.1668 12.6851L24.9572 40.1708H14.3999L15.6554 37.7136C16.3972 36.2851 17.881 35.3708 19.5359 35.3708H22.0468L33.8026 12.6851H39.1668Z" fill="white"/>
<path d="M78.9422 45.2564C79.0563 45.885 79.3417 46.3993 79.8553 46.7993C80.3689 47.1993 80.9966 47.3707 81.6243 47.3707C82.4803 47.4278 83.2793 47.0278 83.7358 46.285L84.8771 46.9135C84.1923 47.9993 82.9369 48.685 81.6243 48.5707C80.5401 48.6278 79.5129 48.2278 78.771 47.4278C77.2873 45.8278 77.2873 43.4278 78.771 41.8278C79.5129 41.085 80.5401 40.685 81.5673 40.685C82.5945 40.6278 83.5646 41.085 84.2494 41.8278C84.9342 42.5707 85.2766 43.5993 85.2766 44.5707C85.2766 44.7421 85.2766 44.9707 85.2195 45.1421L78.9422 45.2564ZM81.5102 41.9993C80.2547 41.9421 79.1134 42.8564 78.9422 44.1707H83.907C83.8499 43.5421 83.5646 42.9707 83.1081 42.5707C82.6515 42.1707 82.0809 41.9993 81.5102 41.9993Z" fill="white"/>
<path d="M92.7525 48.3993H91.2688L89.2144 45.5993L87.16 48.3993H85.6763L88.5296 44.5707L85.8475 40.9707H87.3883L89.2715 43.5421L91.1547 40.9707H92.6384L89.9563 44.5707L92.7525 48.3993Z" fill="white"/>
<path d="M98.0026 40.7993C99.0298 40.7993 99.9429 41.1993 100.628 41.9422C102.111 43.485 102.111 45.885 100.628 47.485C99.9429 48.2279 98.9727 48.6279 98.0026 48.6279C96.8613 48.685 95.8341 48.1136 95.2063 47.1422V51.3708H93.8938V40.9708H95.2063V42.2279C95.8341 41.3136 96.9183 40.7422 98.0026 40.7993ZM97.8885 47.3136C98.5733 47.3136 99.2581 47.0279 99.7717 46.5708C100.742 45.485 100.742 43.885 99.7717 42.7993C98.7445 41.7708 97.0895 41.7708 96.0053 42.7993C94.9781 43.8279 94.9781 45.5422 96.0053 46.5708C96.4618 47.085 97.1466 47.3708 97.8885 47.3136Z" fill="white"/>
<path d="M104.223 45.2564C104.337 45.885 104.622 46.3993 105.136 46.7993C105.649 47.1993 106.277 47.3707 106.905 47.3707C107.761 47.4278 108.56 47.0278 109.016 46.285L110.158 46.9135C109.473 47.9993 108.217 48.685 106.905 48.5707C105.821 48.6278 104.793 48.2278 104.052 47.4278C102.568 45.8278 102.568 43.4278 104.052 41.8278C104.793 41.085 105.821 40.685 106.848 40.685C107.875 40.6278 108.845 41.085 109.53 41.8278C110.215 42.5707 110.557 43.5993 110.557 44.5707C110.557 44.7421 110.557 44.9707 110.5 45.1421L104.223 45.2564ZM106.734 41.9993C106.106 41.9993 105.478 42.1707 105.022 42.5707C104.565 42.9707 104.28 43.5421 104.166 44.1135H109.073C109.016 43.485 108.731 42.9135 108.274 42.5135C107.875 42.1707 107.304 41.9993 106.734 41.9993Z" fill="white"/>
<path d="M113.182 42.2278C113.582 41.3135 114.495 40.7992 115.465 40.8564V42.2278C114.894 42.1706 114.324 42.3421 113.867 42.7421C113.353 43.1992 113.125 43.8278 113.182 44.5135V48.4564H111.927V40.9706H113.239L113.182 42.2278Z" fill="white"/>
<path d="M117.405 39.6567C117.177 39.6567 116.949 39.5995 116.778 39.4281C116.606 39.2567 116.492 39.0281 116.492 38.7995C116.492 38.571 116.606 38.3424 116.778 38.171C116.949 37.9995 117.177 37.8853 117.405 37.8853C117.634 37.8853 117.862 37.9995 118.033 38.171C118.204 38.3424 118.261 38.571 118.261 38.7995C118.261 39.2567 117.919 39.6567 117.405 39.6567ZM116.778 48.3995V40.971H118.09V48.3424H116.778V48.3995Z" fill="white"/>
<path d="M120.943 45.2564C121.058 45.885 121.343 46.3993 121.856 46.7993C122.37 47.1993 122.998 47.3707 123.626 47.3707C124.482 47.4278 125.28 47.0278 125.737 46.285L126.878 46.9135C126.194 47.9993 124.938 48.685 123.626 48.5707C122.541 48.6278 121.514 48.2278 120.772 47.4278C119.288 45.8278 119.288 43.4278 120.772 41.8278C121.514 41.085 122.541 40.685 123.568 40.685C124.596 40.6278 125.566 41.085 126.251 41.8278C126.935 42.5707 127.278 43.5993 127.278 44.5707C127.278 44.7421 127.278 44.9707 127.221 45.1421L120.943 45.2564ZM123.511 41.9993C122.256 41.9421 121.115 42.8564 120.943 44.1707H125.908C125.851 43.5421 125.566 42.9707 125.109 42.5707C124.596 42.1707 124.025 41.9993 123.511 41.9993Z" fill="white"/>
<path d="M132.3 40.7992C133.099 40.742 133.84 41.0849 134.411 41.5992C134.982 42.2277 135.267 43.0277 135.21 43.8277V48.3992H133.898V43.942C133.955 43.4277 133.783 42.9135 133.384 42.5706C133.042 42.2277 132.528 42.0563 132.014 42.0563C131.444 42.0563 130.873 42.2277 130.474 42.6277C130.017 43.142 129.846 43.8277 129.903 44.4563V48.3992H128.59V40.9706H129.903V42.0563C130.416 41.1992 131.33 40.742 132.3 40.7992Z" fill="white"/>
<path d="M140.46 48.5708C138.292 48.6279 136.523 46.8565 136.523 44.685C136.466 42.5136 138.235 40.7422 140.403 40.7422C141.145 40.7422 141.83 40.9136 142.458 41.3136C143.028 41.6565 143.485 42.1136 143.77 42.7422L142.686 43.3708C142.515 42.9708 142.172 42.6279 141.83 42.3993C141.43 42.1708 140.974 42.0565 140.517 42.0565C139.832 42.0565 139.148 42.285 138.634 42.7993C137.664 43.8279 137.664 45.485 138.634 46.5708C139.49 47.3708 140.803 47.5422 141.83 46.9708C142.229 46.7422 142.515 46.3993 142.743 46.0565L143.884 46.685C143.542 47.2565 143.085 47.7708 142.515 48.0565C141.83 48.3993 141.145 48.5708 140.46 48.5708Z" fill="white"/>
<path d="M145.881 45.2564C145.996 45.885 146.281 46.3993 146.794 46.7993C147.308 47.1993 147.936 47.3707 148.564 47.3707C149.42 47.4278 150.218 47.0278 150.675 46.285L151.816 46.9135C151.132 47.9993 149.876 48.685 148.564 48.5707C147.479 48.6278 146.452 48.2278 145.71 47.4278C144.226 45.8278 144.226 43.4278 145.71 41.8278C146.452 41.085 147.479 40.685 148.506 40.685C149.534 40.6278 150.504 41.085 151.189 41.8278C151.873 42.5707 152.216 43.5993 152.216 44.5707C152.216 44.7421 152.216 44.9707 152.159 45.1421L145.881 45.2564ZM148.392 41.9993C147.765 41.9993 147.137 42.1707 146.68 42.5707C146.224 42.9707 145.938 43.5421 145.824 44.1135H150.732C150.675 43.485 150.333 42.9135 149.876 42.5135C149.534 42.2278 148.963 41.9993 148.392 41.9993Z" fill="white"/>
</svg>
