<svg xmlns="http://www.w3.org/2000/svg" version="1.1" viewBox="0 0 1532 1516" width="383" height="379">
<path transform="translate(0)" d="m0 0h1532v1516h-1532z" fill="#FDFDFD"/>
<path transform="translate(758,242)" d="m0 0h42l24 3 27 6 23 8 20 9 21 11 15 10 12 9 11 9 7 7 8 7 9 10 13 16 12 18 9 16 8 16 9 22 7 26 4 21 2 19v40l-3 24-7 30-7 21-9 20-11 20-10 15-10 13-11 13-22 22-14 11-24 16-20 11-24 10-26 8-26 5-18 2-24 1-32-3-26-5-24-7-24-10-23-12-15-10-17-13-10-9-8-7-9-9-9-11-8-10-12-17-10-18-11-23-7-20-5-18-5-26-2-20v-28l2-21 4-22 6-23 8-22 13-27 11-18 12-16 9-11 12-13 15-14 17-13 15-10 17-10 23-11 30-10 29-6z" fill="#2D3B8E"/>
<path transform="translate(761,271)" d="m0 0h38l27 4 21 5 20 7 23 11 17 10 14 10 13 11 15 14 9 10 10 13 10 15 9 16 8 17 9 25 5 21 3 24 1 14v13l-3 31-5 23-6 19-5 12-4 6-4 1h-4l-4 2-8 1h-14l-14-3-13-5-15-8-9-7-10-9-15-14-9-8-14-11-18-10-17-6-18-5-12-5-1-1 1-46 1-14 3-7 4-6 5-5 8-7 11-7 11-4 8-2h11l15 4 10 6 10 8 6 5 3 5 6 3h9l5-4 3-6-2-8-1-5h-2l-3-5-9-10-10-8-12-6-12-4-12-2h-20l-14 3-12 5-12 7-11 9-5 6-3 5-4-2-7-8-11-9-14-8-13-5-15-3h-17l-15 3-16 7-12 8-11 10-7 11-2 5 1 7 4 5 5 2 8 1 6-5 4-6h2l2-4 11-8 12-6 12-3h12l13 4 14 8 12 11v2h2l3 9 2 18 1 11v34l-1 3-10 3-27 8-20 9-12 7-11 8-11 9-8 8h-2l-2 4-12 12-14 11-16 7-19 3h-11l-16-3-5-4-8-21-7-28-4-29v-31l3-25 5-23 7-21 11-24 13-22 16-21 12-13 8-8 8-7 13-10 13-9 21-12 23-10 20-6 24-5z" fill="#FBBE4F"/>
<path transform="translate(761,271)" d="m0 0h38l27 4 21 5 20 7 23 11 17 10 14 10 13 11 15 14 9 10 10 13 10 15 9 16 8 17 9 25 5 21 3 24 1 14v13l-3 31-5 23-6 19-5 12-4 6-4 1v-3l2-5 3-7 3-19 2-27v-14l-2-16-5-22-6-18-5-12-8-16-9-16-12-17-13-15-7-7-8-7-15-12-12-8-11-6-19-8-4-1 1-5v-4l-7-6-14-8-10-4-13-2-17 2-14 7-5 4-4-2-11-7-10-3h-21l-12 3-14 7-9 7-1 9-23 10-20 11-10 7-6 4-5 5-16 15-6 7-12 17-11 17-9 19-10 25-5 16-4 19-1 9v26l1 14v17h-2l-7-25-4-21-2-17v-31l3-25 5-23 7-21 11-24 13-22 16-21 12-13 8-8 8-7 13-10 13-9 21-12 23-10 20-6 24-5z" fill="#FDFDFD"/>
<path transform="translate(1256,848)" d="m0 0h17l17 3 19 8 13 9 11 11 10 15 7 15 3 12 1 11v11l-2 15-4 13-6 12-7 10-9 10-10 8-19 10-16 5-7 1h-18l-14-3-16-6-15-9-10-9-9-10-8-14-5-12-3-12-1-9v-11l3-17 5-14 6-12 8-10 13-13 14-9 15-6z" fill="#2D3B8E"/>
<path transform="translate(507,848)" d="m0 0h22l16 4 17 7 11 8 10 9 7 8 8 14 6 15 3 12v24l-4 17-8 17-10 14-9 9-10 7-16 8-17 5-8 1h-14l-16-3-16-6-11-6-11-9-8-8-7-10-8-16-4-13-1-7v-23l3-14 5-13 8-14 11-12 9-8 11-7 11-5 14-4z" fill="#2D3B8E"/>
<path transform="translate(881,848)" d="m0 0h21l17 4 16 7 11 7 12 11 9 12 8 16 5 17 1 11v11l-3 17-5 13-7 13-8 10-10 10-11 7-15 7-15 5-12 2-14-1-15-4-15-6-14-9-10-9-8-9-9-16-4-10-3-14v-25l4-17 8-17 8-11 7-8 10-8 11-7 16-6z" fill="#2D3B8E"/>
<path transform="translate(762,549)" d="m0 0h29l17 3 16 5 16 8 13 9 12 11 15 15 16 14 16 9 11 5 14 4 16 3 18 1-2 5-14 17-7 7-10 7-12 5-9 2h-12l-16-4-11-6-10-9-6-5-6-7-14-11-13-8-15-6-15-4-7-1h-25l-17 3-15 5-17 9-13 11-12 11-7 7-8 6-12 6-10 2h-16l-12-3-10-5-11-9-8-9-11-15v-2l17-1 23-5 15-6 13-7 11-9 10-9 19-19 13-10 16-9 15-6z" fill="#FDFDFD"/>
<path transform="translate(632,849)" d="m0 0h79l20 2 16 5 11 6 7 6 7 10 4 8 3 13v23l-4 15-7 12-7 7-8 5h-2l5 9 14 20 12 17 10 13 2 4h-51l-5-5-13-18-17-26-2-3-30-1v53h-44l-1-5v-169z" fill="#2D3B8E"/>
<path transform="translate(1008,849)" d="m0 0h82l20 3 16 6 10 7 7 7 6 10 4 13 1 7v18l-3 14-6 12-8 9-9 6h-2l3 6 12 17 14 20 12 16 1 4h-51l-13-17-22-33v-2l-31-1v53h-44l-1-69v-77l1-28z" fill="#2D3B8E"/>
<path transform="translate(770,646)" d="m0 0h16l16 3 13 5 12 7 13 11 17 17 14 9 16 6 7 2v2l-23 11-21 8-19 5-23 4-9 1h-39l-21-3-19-4-26-9-21-9-9-5 1-2 12-3 16-8 11-8 12-11 7-8 12-9 14-7 15-4z" fill="#FEFEFE"/>
<path transform="translate(279,851)" d="m0 0h137v40l-46 1v124l-1 8h-44v-133h-46z" fill="#2D3B8E"/>
<path transform="translate(802,438)" d="m0 0 2 1v2l21 5 19 7 20 10 14 10 15 13 12 13 12 18 9 17 7 19 5 21 2 13v12l-1 2-6-1-19-10-9-7-10-9-15-14-9-8-14-11-18-10-17-6-18-5-12-5-1-1 1-46 1-14 3-7 4-6z" fill="#D8022D"/>
<path transform="translate(756,441)" d="m0 0 3 4 2 10 2 24v34l-1 3-10 3-27 8-20 9-12 7-11 8-11 9-8 8h-2l-2 4-12 12-14 11-9 4h-3v-18l3-18 6-20 9-20 9-14 9-12 11-12 8-8 15-11 17-10 19-8 18-5z" fill="#D8022D"/>
<path transform="translate(207,851)" d="m0 0h43l1 1v171l-1 1h-44v-172z" fill="#2D3B8E"/>
<path transform="translate(510,893)" d="m0 0h15l12 4 9 6 8 8 7 14 1 4v17l-4 11-6 9-7 7-8 5-8 3-6 1h-12l-13-4-10-7-7-8-6-12-2-9v-12l4-12 8-11 8-7 10-5z" fill="#FDFDFD"/>
<path transform="translate(883,893)" d="m0 0h16l10 3 10 6 6 5 6 9 4 9 1 5v15l-4 12-7 10-9 8-10 5-9 2h-10l-12-3-10-5-8-8-7-12-3-12v-11l4-13 7-10 9-8 10-5z" fill="#FDFDFD"/>
<path transform="translate(1257,893)" d="m0 0h14l13 4 11 7 8 10 5 12 1 5v11l-3 12-6 11-8 8-10 6-13 3h-8l-13-3-11-6-7-7-6-10-4-15v-9l2-9 5-10 9-10 9-6z" fill="#FDFDFD"/>
<path transform="translate(813,317)" d="m0 0 13 1 10 3 15 8 9 7 3 3-2 5-3 3-9-2-15-5-6-1h-17l-8 4-8 8-7 14-4 3h-11l-5-4-10-17-3-2v-2l-4-1-10-3h-12l-15 5-8 3-6-1-2-6 2-5 9-7 14-7 12-3h21l12 4 11 8 4-2 14-8z" fill="#2D3B8E"/>
<path transform="translate(1073,1071)" d="m0 0h23l10 2 7 5 3 8v12l-1 2v8l2 2 1 4v7l-3 7-5 5-13 3h-26l-1-1-1-40v-22z" fill="#FCBF4F"/>
<path transform="translate(619,1071)" d="m0 0h10l12 1 10 5 5 6 1 3v12l-3 8-5 5 1 8 5 10 2 2v5h-13l-12-18-6-1-1 18-1 1h-14l-1-1-1-13v-49l1-1z" fill="#FCBF4F"/>
<path transform="translate(539,1070)" d="m0 0h16l5 5 6 19 11 40v2h-9l-6-3-5-4-11-3h-7l-10 10-5 1-7-2-1-5 8-27 3-12 7-17z" fill="#FCBF4F"/>
<path transform="translate(1052,888)" d="m0 0h24l18 1 7 4 6 7 2 8v7l-3 9-5 6-6 3-5 1h-38l-1-1v-44z" fill="#FDFDFD"/>
<path transform="translate(700,888)" d="m0 0h11l10 2 6 4 4 5 3 8v9l-4 9-4 5-5 3-4 1h-40l-1-6v-39z" fill="#FDFDFD"/>
<path transform="translate(696,1070)" d="m0 0 11 1 1 5 1 15 2 1 2-4 3-4 2-11 4-2 6 1 11-1 4 2-3 7-10 12-5 8v6l9 14 8 12 1 4-6 1-12-2-10-14-6-8h-1l-1 22-1 2h-12l-3-2-1-22v-35l2-6z" fill="#FCBF4F"/>
<path transform="translate(1295,796)" d="m0 0h5v37h-71v-28l1-1 59-7z" fill="#2D3B8E"/>
<path transform="translate(985,1071)" d="m0 0h13l2 1 1 48h15l1-3 1-45 1-1h15l1 1v20l-1 28-4 8-7 6-8 3h-14l-10-5-4-5-3-11v-44z" fill="#FCBF4F"/>
<path transform="translate(448,1072)" d="m0 0h32l9 6 4 6 2 5v9l-5 10-7 6-4 2-6 1h-11v17l-8 3h-5l-1-2-1-24v-38z" fill="#FCBF4F"/>
<path transform="translate(853,1070)" d="m0 0 11 1 12 6 7 6v4l-8 5-4 1-7-5-3-1h-10l-9 3-2 5-2 7 1 9 3 5 3 3 4 1h17l4-4h6l6 5-1 5-9 7-10 4h-14l-11-4-9-8-5-10-1-4v-16l5-10 7-8 9-5z" fill="#FCBF4F"/>
<path transform="translate(915,1071)" d="m0 0h16l1 1 1 47 2 1 18 1 1 1 1 13-1 1-37 1-2-5-1-16v-43z" fill="#FCBF4F"/>
<path transform="translate(703,385)" d="m0 0h9l21 5 2 2-11-2-7-1h-17l-15 3-16 7-12 8-4 2 3-4 1-5 20-9 9-3z" fill="#FEFEFE"/>
<path transform="translate(633,1087)" d="m0 0 6 1 2 2v8l-5 3-9-1-2-2v-8l1-2z" fill="#FEFEFE"/>
<path transform="translate(464,1088)" d="m0 0h11l3 2v8l-4 3h-9l-2-2v-10z" fill="#FEFEFE"/>
<path transform="translate(844,385)" d="m0 0h7l14 3v1h-27l-14 3-12 5-12 7h-3l9-8 11-5 10-3z" fill="#FEFEFE"/>
<path transform="translate(1089,1111)" d="m0 0h9l1 4 3 1-2 4-7 1-4-2-1-7z" fill="#FEFEFE"/>
<path transform="translate(1088,1088)" d="m0 0h10l2 1-1 6-2 2h-9l-1-2v-6z" fill="#FEFEFE"/>
<path transform="translate(811,338)" d="m0 0h17v1l-15 1-10 5-7 8-6 12-5 4-5 1-4-2 10-2 7-12 3-5 7-7z" fill="#D8022D"/>
<path transform="translate(674,429)" d="m0 0 2 1-13 13v-3l2-3h2l2-4z" fill="#E7513B"/>
<path transform="translate(548,1100)" d="m0 0 3 4-1 4-4-1v-5h2z" fill="#FEFEFE"/>
<path transform="translate(784,415)" d="m0 0 2 1-5 8-4-2 1-3 5-1z" fill="#FEFEFE"/>
<path transform="translate(638,424)" d="m0 0h2l-3 9-2 4v-8z" fill="#FEFEFE"/>
</svg>