<svg width="152" height="64" viewBox="0 0 152 64" fill="none" xmlns="http://www.w3.org/2000/svg">
<path d="M118.438 13L116.128 17.2987H123.803V38.2562H128.636V17.2987H135.614V13H118.438Z" fill="white"/>
<path d="M81.6434 33.9575C80.9178 33.9575 80.3271 33.3661 80.3271 32.6675V13H75.7639V33.5011C75.7639 36.1347 77.8828 38.2562 80.5133 38.2562H89.9863L92.2936 33.9575H81.6434Z" fill="white"/>
<path d="M94.8214 13V17.5665H105.797L94.5774 38.2562H100.001H113.07V33.6897H102.362L113.444 13H108.186H94.8214Z" fill="white"/>
<path d="M78.3152 49.14C77.778 49.14 77.3499 48.9792 76.9989 48.6557C76.65 48.3342 76.4895 47.9035 76.4895 47.3121C76.4895 46.7206 76.65 46.2921 76.9989 45.9685C77.3478 45.647 77.778 45.4842 78.3409 45.4842C78.9851 45.4842 79.4945 45.6192 79.8969 45.9128V45.2956C79.6807 45.1606 79.4688 45.0535 79.1991 44.9999C78.9294 44.9463 78.6362 44.9185 78.2874 44.9185C77.8036 44.9185 77.3756 45.0256 76.9989 45.2142C76.6222 45.4006 76.3268 45.6985 76.1128 46.0456C75.8966 46.4206 75.7917 46.8256 75.7917 47.3099C75.7917 47.7942 75.8988 48.2228 76.1128 48.5742C76.3268 48.9235 76.6222 49.2193 76.9989 49.4057C77.3756 49.5921 77.8036 49.7014 78.2874 49.7014C78.6619 49.7014 78.9851 49.6735 79.2526 49.5943C79.5202 49.5128 79.762 49.4335 80.0039 49.2728V48.6557C79.762 48.8164 79.5202 48.9257 79.2526 49.005C78.9573 49.0864 78.6619 49.1121 78.313 49.14H78.3152Z" fill="white"/>
<path d="M84.5414 45.2161C84.1668 44.9997 83.7366 44.9204 83.2529 44.9204C82.7692 44.9204 82.3412 45.0276 81.9645 45.2161C81.5899 45.4047 81.2924 45.7004 81.0784 46.0476C80.8622 46.4226 80.7573 46.8276 80.7573 47.3119C80.7573 47.7962 80.8643 48.2248 81.0784 48.5762C81.2924 48.9255 81.5878 49.2212 81.9645 49.4076C82.339 49.5962 82.7692 49.7034 83.2808 49.7034C83.7923 49.7034 84.1925 49.5962 84.597 49.4076C84.9994 49.2191 85.2691 48.9233 85.4831 48.5762C85.6993 48.2269 85.8042 47.7962 85.8042 47.3119C85.8042 46.8276 85.6972 46.4247 85.4831 46.0476C85.2391 45.7004 84.9438 45.4026 84.5414 45.2161ZM84.5414 48.6276C84.2204 48.9491 83.7902 49.1119 83.2529 49.1119C82.7157 49.1119 82.2877 48.9512 81.9645 48.6276C81.6413 48.3062 81.4808 47.8476 81.4808 47.3097C81.4808 46.7719 81.6413 46.3154 81.9645 45.9919C82.2855 45.6683 82.7157 45.5076 83.2529 45.5076C83.7902 45.5076 84.2182 45.6683 84.5414 45.9919C84.8625 46.3133 85.0251 46.7719 85.0251 47.3097C85.0251 47.8476 84.8646 48.3062 84.5414 48.6276Z" fill="white"/>
<path d="M87.602 45.9409V45.0537H86.9043V49.5688H87.6299V46.7209C87.8995 45.9944 88.5695 45.6451 89.6418 45.6451V45.0537C88.6465 45.0559 87.9488 45.3494 87.602 45.9409Z" fill="white"/>
<path d="M94.4446 45.2161C94.0957 44.9997 93.6933 44.9204 93.2374 44.9204C92.3792 44.9204 91.7071 45.2161 91.279 45.8333V45.0533H90.5813V51.6363H91.3069V48.8141C91.4952 49.1098 91.7628 49.3241 92.1116 49.4869C92.4605 49.6476 92.8372 49.7291 93.2396 49.7291C93.6955 49.7291 94.0978 49.6219 94.4467 49.4334C94.7956 49.2448 95.0909 48.9491 95.2771 48.6019C95.4933 48.2269 95.5725 47.8219 95.5725 47.3376C95.5725 46.8533 95.4655 46.4504 95.2771 46.0733C95.0888 45.7004 94.8213 45.4047 94.4446 45.2161ZM94.6607 48.2783C94.5002 48.5483 94.2862 48.7626 94.0165 48.9233C93.7468 49.0841 93.4258 49.1398 93.1047 49.1398C92.6767 49.1398 92.3 49.0326 91.9768 48.7905C91.6557 48.5483 91.4139 48.2526 91.3047 47.8776V46.7483C91.4396 46.3733 91.6536 46.0497 91.9768 45.8354C92.2978 45.619 92.6745 45.514 93.1047 45.514C93.4536 45.514 93.749 45.5954 94.0165 45.7304C94.2862 45.8911 94.5002 46.1054 94.6607 46.3754C94.8213 46.6454 94.9026 46.9669 94.9026 47.3419C94.9026 47.7169 94.7956 48.0148 94.6607 48.2826V48.2783Z" fill="white"/>
<path d="M100.106 45.2161C99.7313 44.9997 99.3011 44.9204 98.8174 44.9204C98.3337 44.9204 97.9056 45.0276 97.5289 45.2161C97.1544 45.4326 96.8569 45.7004 96.6428 46.0476C96.4267 46.4226 96.3218 46.8276 96.3218 47.3119C96.3218 47.7962 96.4288 48.2248 96.6428 48.5762C96.859 48.9255 97.1522 49.2212 97.5289 49.4076C97.9035 49.5962 98.3337 49.7034 98.8452 49.7034C99.3546 49.7034 99.757 49.5962 100.134 49.4076C100.508 49.2191 100.806 48.9233 101.02 48.5762C101.236 48.2269 101.341 47.7962 101.341 47.3119C101.341 46.8276 101.234 46.4247 101.02 46.0476C100.776 45.7004 100.483 45.4026 100.106 45.2161ZM100.106 48.6276C99.7848 48.9491 99.3546 49.1119 98.8174 49.1119C98.2802 49.1119 97.8521 48.9512 97.5289 48.6276C97.2079 48.3062 97.0452 47.8476 97.0452 47.3097C97.0452 46.7719 97.2057 46.3154 97.5289 45.9919C97.85 45.6704 98.2802 45.5076 98.8174 45.5076C99.3546 45.5076 99.7827 45.6683 100.106 45.9919C100.427 46.3133 100.59 46.7719 100.59 47.3097C100.59 47.8476 100.429 48.3062 100.106 48.6276Z" fill="white"/>
<path d="M103.141 45.9409V45.0537H102.443V49.5688H103.168V46.7209C103.438 45.9944 104.108 45.6451 105.18 45.6451V45.0537C104.187 45.0559 103.515 45.3494 103.141 45.9409Z" fill="white"/>
<path d="M107.595 44.921C107.325 44.921 107.057 44.9488 106.764 45.0024C106.469 45.056 106.227 45.1095 106.039 45.191V45.8081C106.495 45.5917 106.978 45.5124 107.513 45.5124C108.048 45.5124 108.372 45.6196 108.613 45.8081C108.855 45.9967 108.962 46.3181 108.962 46.721V47.0703C108.479 46.8003 107.944 46.6674 107.271 46.6674C106.681 46.6674 106.253 46.8024 105.93 47.0703C105.606 47.3382 105.474 47.7153 105.474 48.1996C105.474 48.6839 105.634 49.0589 105.957 49.3289C106.281 49.5989 106.709 49.7318 107.246 49.7318C108.025 49.7318 108.616 49.4896 108.99 49.0053V49.5968H109.662V46.7746C109.662 46.211 109.502 45.7546 109.153 45.431C108.857 45.0538 108.32 44.891 107.595 44.921ZM108.99 48.3325C108.855 48.5746 108.641 48.761 108.374 48.896C108.104 49.031 107.811 49.1125 107.462 49.1125C106.657 49.1125 106.255 48.791 106.255 48.1717C106.255 47.8503 106.362 47.6082 106.55 47.4453C106.739 47.2824 107.06 47.2032 107.49 47.2032C107.785 47.2032 108.053 47.231 108.295 47.3103C108.536 47.3639 108.778 47.471 109.02 47.6317L108.99 48.3325Z" fill="white"/>
<path d="M111.969 48.9518C111.834 48.8168 111.781 48.6025 111.781 48.2789V45.6196H112.909V45.056H111.781V43.7124H111.055V45.056H110.358V45.6196H111.055V48.2532C111.055 48.7096 111.162 49.0847 111.404 49.3289C111.646 49.5732 111.967 49.7039 112.397 49.7039C112.693 49.7039 112.96 49.6761 113.176 49.5968V49.0054C112.988 49.0868 112.828 49.1125 112.667 49.1125C112.318 49.1104 112.102 49.0568 111.969 48.9518Z" fill="white"/>
<path d="M117.658 45.2161C117.31 45.0276 116.854 44.9204 116.342 44.9204C115.563 44.9204 115 45.1368 114.57 45.5654C114.168 45.994 113.954 46.5854 113.954 47.3119C113.954 48.0383 114.195 48.6555 114.651 49.0583C115.107 49.4869 115.751 49.7034 116.582 49.7034C116.877 49.7034 117.198 49.6755 117.522 49.6219C117.845 49.5684 118.112 49.5148 118.301 49.4334V48.8162C118.084 48.9233 117.817 48.9769 117.522 49.0326C117.226 49.0883 116.959 49.1141 116.663 49.1141C116.047 49.1141 115.589 48.9791 115.214 48.7391C114.84 48.4969 114.677 48.094 114.651 47.584H118.759V47.1812C118.759 46.7526 118.677 46.3497 118.489 45.9983C118.303 45.6747 118.035 45.4068 117.658 45.2161ZM114.654 47.0697C114.654 46.5854 114.814 46.2104 115.109 45.9404C115.405 45.6704 115.807 45.5119 116.372 45.5119C116.937 45.5119 117.337 45.6469 117.635 45.9404C117.93 46.2104 118.063 46.6133 118.091 47.0955C118.061 47.0697 114.654 47.0697 114.654 47.0697Z" fill="white"/>
<path d="M62.3486 36.7241L59.7716 41.7235H44.1794L46.7821 36.7241H62.3486Z" fill="white"/>
<path d="M57.1946 46.6924L54.6176 51.6897H39.2138C35.3484 51.6897 32.2107 48.5461 32.2107 44.6781C32.2107 43.5488 32.4804 42.4474 32.9898 41.4531L47.6937 13.0254H53.3292L37.4951 43.5767C36.9579 44.6245 37.3603 45.9146 38.4069 46.4524C38.7023 46.6132 39.0511 46.6946 39.4 46.6946L57.1946 46.6924Z" fill="white"/>
<path d="M41.8978 13.0254L27.0569 41.7231H16L17.3163 39.1987C18.0954 37.6666 19.6792 36.7258 21.3701 36.7258H24.024L36.288 13.0254H41.8978Z" fill="white"/>
</svg>
