<svg width="174" height="56" viewBox="0 0 174 56" fill="none" xmlns="http://www.w3.org/2000/svg">
<g clip-path="url(#clip0_140_34)">
<path d="M149.014 0L145.655 6.22188H156.82V36.5559H163.85V6.22188H174V0H149.014Z" fill="white"/>
<path d="M95.4905 30.334C94.435 30.334 93.5757 29.4779 93.5757 28.4668V0H86.9377V29.6733C86.9377 33.4852 90.0201 36.5559 93.8466 36.5559H107.627L110.983 30.334H95.4905Z" fill="white"/>
<path d="M114.66 0V6.60958H130.626L114.305 36.5559H122.195H141.206V29.9463H125.629L141.751 0H134.101H114.66Z" fill="white"/>
<path d="M90.6489 52.3091C89.8675 52.3091 89.2448 52.0764 88.7342 51.6081C88.2267 51.1429 87.9931 50.5194 87.9931 49.6634C87.9931 48.8073 88.2267 48.187 88.7342 47.7187C89.2417 47.2534 89.8675 47.0177 90.6863 47.0177C91.6235 47.0177 92.3645 47.2131 92.9498 47.638V46.7447C92.6354 46.5493 92.3271 46.3943 91.9348 46.3167C91.5425 46.2392 91.116 46.1989 90.6085 46.1989C89.9048 46.1989 89.2821 46.3539 88.7342 46.6269C88.1862 46.8967 87.7565 47.3279 87.4452 47.8303C87.1307 48.3731 86.9781 48.9593 86.9781 49.6603C86.9781 50.3612 87.1338 50.9816 87.4452 51.4902C87.7565 51.9958 88.1862 52.4238 88.7342 52.6937C89.2821 52.9635 89.9048 53.1217 90.6085 53.1217C91.1533 53.1217 91.6235 53.0814 92.0127 52.9666C92.4018 52.8488 92.7537 52.734 93.1055 52.5014V51.6081C92.7537 51.8407 92.4018 51.9989 92.0127 52.1137C91.583 52.2315 91.1533 52.2687 90.6458 52.3091H90.6489Z" fill="white"/>
<path d="M99.7061 46.63C99.1612 46.3167 98.5354 46.202 97.8318 46.202C97.1282 46.202 96.5055 46.357 95.9575 46.63C95.4126 46.9029 94.9798 47.331 94.6685 47.8334C94.354 48.3762 94.2015 48.9624 94.2015 49.6634C94.2015 50.3644 94.3572 50.9847 94.6685 51.4934C94.9798 51.9989 95.4095 52.4269 95.9575 52.6968C96.5023 52.9697 97.1282 53.1248 97.8723 53.1248C98.6164 53.1248 99.1986 52.9697 99.7871 52.6968C100.372 52.4238 100.765 51.9958 101.076 51.4934C101.391 50.9878 101.543 50.3644 101.543 49.6634C101.543 48.9624 101.387 48.3793 101.076 47.8334C100.721 47.331 100.291 46.8998 99.7061 46.63ZM99.7061 51.5678C99.2391 52.033 98.6133 52.2688 97.8318 52.2688C97.0503 52.2688 96.4276 52.0361 95.9575 51.5678C95.4873 51.1025 95.2538 50.4388 95.2538 49.6603C95.2538 48.8818 95.4873 48.2211 95.9575 47.7528C96.4245 47.2844 97.0503 47.0518 97.8318 47.0518C98.6133 47.0518 99.236 47.2844 99.7061 47.7528C100.173 48.218 100.41 48.8818 100.41 49.6603C100.41 50.4388 100.176 51.1025 99.7061 51.5678Z" fill="white"/>
<path d="M104.158 47.6783V46.3942H103.143V52.9294H104.199V48.8073C104.591 47.7558 105.566 47.2503 107.126 47.2503V46.3942C105.678 46.3942 104.663 46.8223 104.158 47.6783Z" fill="white"/>
<path d="M114.112 46.63C113.605 46.3167 113.019 46.202 112.356 46.202C111.108 46.202 110.13 46.63 109.507 47.5233V46.3943H108.492V55.9225H109.548V51.8376C109.822 52.2657 110.211 52.5758 110.719 52.8115C111.226 53.0442 111.774 53.162 112.359 53.162C113.022 53.162 113.608 53.0069 114.115 52.734C114.623 52.4611 115.052 52.033 115.323 51.5306C115.638 50.9878 115.753 50.4016 115.753 49.7006C115.753 48.9996 115.597 48.4165 115.323 47.8706C115.049 47.331 114.66 46.9029 114.112 46.63ZM114.427 51.0622C114.193 51.453 113.882 51.7632 113.49 51.9958C113.097 52.2284 112.63 52.3091 112.163 52.3091C111.54 52.3091 110.993 52.154 110.522 51.8035C110.055 51.453 109.704 51.025 109.545 50.4822V48.8477C109.741 48.3049 110.052 47.8365 110.522 47.5264C110.989 47.2131 111.537 47.0611 112.163 47.0611C112.671 47.0611 113.1 47.179 113.49 47.3744C113.882 47.607 114.193 47.9172 114.427 48.308C114.66 48.6988 114.778 49.164 114.778 49.7068C114.778 50.2496 114.623 50.6807 114.427 51.0684V51.0622Z" fill="white"/>
<path d="M122.347 46.63C121.802 46.3167 121.177 46.202 120.473 46.202C119.769 46.202 119.147 46.357 118.599 46.63C118.054 46.9433 117.621 47.331 117.31 47.8334C116.995 48.3762 116.843 48.9624 116.843 49.6634C116.843 50.3644 116.998 50.9847 117.31 51.4934C117.624 51.9989 118.051 52.4269 118.599 52.6968C119.144 52.9697 119.769 53.1248 120.514 53.1248C121.258 53.1248 121.84 52.9697 122.388 52.6968C122.933 52.4238 123.365 51.9958 123.677 51.4934C123.991 50.9878 124.144 50.3644 124.144 49.6634C124.144 48.9624 123.988 48.3793 123.677 47.8334C123.322 47.331 122.895 46.8998 122.347 46.63ZM122.347 51.5678C121.88 52.033 121.255 52.2688 120.473 52.2688C119.692 52.2688 119.069 52.0361 118.599 51.5678C118.132 51.1025 117.895 50.4388 117.895 49.6603C117.895 48.8818 118.129 48.2211 118.599 47.7528C119.066 47.2875 119.692 47.0518 120.473 47.0518C121.255 47.0518 121.877 47.2844 122.347 47.7528C122.814 48.218 123.051 48.8818 123.051 49.6603C123.051 50.4388 122.817 51.1025 122.347 51.5678Z" fill="white"/>
<path d="M126.762 47.6783V46.3942H125.747V52.9294H126.803V48.8073C127.195 47.7558 128.17 47.2503 129.729 47.2503V46.3942C128.285 46.3942 127.307 46.8223 126.762 47.6783Z" fill="white"/>
<path d="M133.241 46.202C132.849 46.202 132.46 46.2423 132.033 46.3198C131.604 46.3974 131.252 46.4749 130.978 46.5928V47.486C131.641 47.1728 132.345 47.058 133.123 47.058C133.901 47.058 134.372 47.2131 134.723 47.486C135.075 47.759 135.231 48.2242 135.231 48.8073V49.3129C134.527 48.9221 133.749 48.7298 132.771 48.7298C131.912 48.7298 131.289 48.9252 130.819 49.3129C130.349 49.7006 130.156 50.2465 130.156 50.9474C130.156 51.6484 130.389 52.1912 130.86 52.582C131.33 52.9728 131.952 53.1651 132.734 53.1651C133.867 53.1651 134.727 52.8146 135.271 52.1137V52.9697H136.249V48.8849C136.249 48.0691 136.016 47.4085 135.508 46.9401C135.078 46.3942 134.297 46.1585 133.241 46.202ZM135.271 51.1398C135.075 51.4902 134.764 51.7601 134.375 51.9555C133.982 52.1509 133.556 52.2687 133.048 52.2687C131.878 52.2687 131.292 51.8035 131.292 50.9071C131.292 50.4419 131.448 50.0914 131.722 49.8557C131.996 49.62 132.463 49.5052 133.089 49.5052C133.518 49.5052 133.908 49.5455 134.26 49.6603C134.611 49.7378 134.963 49.8929 135.315 50.1255L135.271 51.1398Z" fill="white"/>
<path d="M139.605 52.0361C139.409 51.8407 139.331 51.5306 139.331 51.0622V47.2131H140.972V46.3974H139.331V44.4526H138.276V46.3974H137.261V47.2131H138.276V51.025C138.276 51.6856 138.432 52.2284 138.783 52.582C139.135 52.9356 139.602 53.1248 140.228 53.1248C140.658 53.1248 141.047 53.0845 141.361 52.9697V52.1137C141.087 52.2315 140.854 52.2688 140.62 52.2688C140.113 52.2656 139.798 52.1881 139.605 52.0361Z" fill="white"/>
<path d="M147.881 46.63C147.374 46.357 146.71 46.202 145.966 46.202C144.833 46.202 144.014 46.5152 143.388 47.1356C142.803 47.7559 142.492 48.6119 142.492 49.6634C142.492 50.7148 142.843 51.6081 143.507 52.1912C144.17 52.8115 145.107 53.1248 146.315 53.1248C146.745 53.1248 147.212 53.0845 147.682 53.0069C148.152 52.9294 148.541 52.8519 148.815 52.734V51.8407C148.501 51.9958 148.111 52.0734 147.682 52.154C147.252 52.2346 146.863 52.2719 146.433 52.2719C145.537 52.2719 144.87 52.0765 144.325 51.7291C143.781 51.3786 143.544 50.7955 143.507 50.0573H149.481V49.4742C149.481 48.8539 149.363 48.2708 149.089 47.7621C148.818 47.2937 148.429 46.906 147.881 46.63ZM143.51 49.3129C143.51 48.6119 143.743 48.0691 144.173 47.6783C144.603 47.2875 145.188 47.058 146.01 47.058C146.832 47.058 147.414 47.2534 147.847 47.6783C148.276 48.0691 148.469 48.6523 148.51 49.3501C148.466 49.3129 143.51 49.3129 143.51 49.3129Z" fill="white"/>
<path d="M67.4224 34.3382L63.6738 41.5743H40.9921L44.7781 34.3382H67.4224Z" fill="white"/>
<path d="M59.9251 48.767L56.1765 56H33.7688C28.1458 56 23.5815 51.4499 23.5815 45.8515C23.5815 44.2169 23.9738 42.6227 24.7148 41.1835L46.1044 0.0372314H54.3022L31.2687 44.2572C30.4872 45.7739 31.0725 47.6411 32.595 48.4196C33.0247 48.6522 33.5322 48.7701 34.0397 48.7701H59.9251V48.767Z" fill="white"/>
<path d="M37.6731 0.0372314L16.0842 41.5743H0L1.91479 37.9206C3.0481 35.7029 5.35208 34.3413 7.81173 34.3413H11.6724L29.5127 0.0372314H37.6731Z" fill="white"/>
</g>
<defs>
<clipPath id="clip0_140_34">
<rect width="174" height="56" fill="white"/>
</clipPath>
</defs>
</svg>
