<svg width="145" height="33" viewBox="0 0 145 33" fill="none" xmlns="http://www.w3.org/2000/svg">
<g clip-path="url(#clip0_1513_404)">
<path d="M57.0688 14.2703H63.3654L62.4786 17.0352H56.3149C54.6743 17.0352 53.344 15.6973 53.344 14.0473V1.33789H56.2263V13.4676C56.2263 13.9136 56.6253 14.2703 57.0688 14.2703Z" fill="#28327F"/>
<path d="M74.8943 4.4147H77.5992V17.035H74.8943V15.2066C73.8745 16.6336 72.2338 17.4363 70.5044 17.3471C68.8194 17.3471 67.2231 16.6782 66.1145 15.4296C63.6757 12.7539 63.6757 8.65119 66.1145 6.02011C67.2674 4.77146 68.8638 4.10254 70.5044 4.10254C72.4112 4.10254 73.8745 4.81605 74.8943 6.24308V4.4147ZM68.0656 13.6458C69.6619 15.162 72.1451 15.162 73.7414 13.6458C75.2491 11.9958 75.2491 9.49849 73.7414 7.84849C72.1451 6.33227 69.6619 6.33227 68.0656 7.84849C66.558 9.45389 66.558 11.9958 68.0656 13.6458Z" fill="#28327F"/>
<path d="M83.9846 14.4488H90.1039V17.0353H80.3042V15.2069L86.1574 7.00152H80.5259V4.41504H89.7935V6.24342L83.9846 14.4488Z" fill="#28327F"/>
<path d="M94.006 11.9066C94.139 12.7985 94.6711 13.6012 95.3806 14.1363C96.1344 14.6715 97.0656 14.939 97.9968 14.8944C99.2827 14.9836 100.48 14.3593 101.234 13.3336L103.451 14.6269C102.209 16.4553 100.391 17.3917 97.9525 17.3917C95.9127 17.3917 94.272 16.7674 93.0305 15.5188C91.7889 14.2701 91.0794 12.5309 91.1681 10.7472C91.0794 7.17959 93.8286 4.23634 97.376 4.10256C97.5091 4.10256 97.6421 4.10256 97.7751 4.10256C99.5045 4.05796 101.145 4.77148 102.298 6.06472C103.451 7.35797 104.116 9.05256 104.072 10.7917C104.072 11.1931 104.027 11.5499 103.983 11.9066H94.006ZM93.9617 9.67688H101.323C101.189 8.78499 100.746 7.93769 100.037 7.35796C99.3714 6.82283 98.5733 6.55526 97.7308 6.55526C96.8439 6.51067 95.9127 6.82283 95.2032 7.40256C94.5825 7.98229 94.0947 8.78499 93.9617 9.67688Z" fill="#28327F"/>
<path d="M109.171 6.55492C109.836 4.99411 111.167 4.19141 113.029 4.19141V7.13465C112.053 7.04546 111.122 7.31303 110.324 7.89276C109.57 8.47249 109.171 9.40897 109.171 10.7022V17.0792H106.466V4.45898H109.171V6.55492Z" fill="#28327F"/>
<path d="M120.877 7.046H118.217V13.1109C118.173 13.5122 118.306 13.9136 118.572 14.2257C118.882 14.4933 119.237 14.6271 119.636 14.6271C120.345 14.6271 121.011 14.5379 121.676 14.4041L121.897 16.7676C119.459 17.6149 117.774 17.1244 116.887 16.5001C116 15.8757 115.556 14.7609 115.556 13.1109V2.14059L118.261 1.33789V4.41492H121.809L120.877 7.046Z" fill="#28327F"/>
<path d="M132.362 4.41504H135.067V17.0353H132.362V15.4299C131.564 16.7232 130.234 17.3921 128.46 17.3921C127.174 17.4367 125.888 16.9461 124.957 16.0096C124.07 15.0732 123.627 13.8245 123.627 12.1745V4.41504H126.332V11.9069C126.288 12.7096 126.554 13.4678 127.086 14.0921C127.618 14.6272 128.372 14.8948 129.125 14.8502C129.968 14.8948 130.81 14.5826 131.431 13.9583C132.008 13.3786 132.318 12.4421 132.318 11.238L132.362 4.41504Z" fill="#28327F"/>
<path d="M140.965 6.55492C141.63 4.99411 142.916 4.19141 144.823 4.19141V7.13465C143.847 7.04546 142.916 7.31303 142.118 7.89276C141.364 8.47249 140.965 9.40897 140.965 10.7022V17.0792H138.26V4.45898H140.965V6.55492Z" fill="#28327F"/>
<path d="M61.0597 22.9218C60.8824 22.9218 60.6606 22.8326 60.5276 22.6988C60.3946 22.5651 60.3059 22.3867 60.3059 22.2083C60.3059 22.0299 60.3946 21.807 60.5276 21.6732C60.6606 21.5394 60.838 21.4502 61.0597 21.4502C61.2371 21.4502 61.4588 21.5394 61.5475 21.6732C61.6805 21.807 61.7692 21.9853 61.7692 22.2083C61.7692 22.6097 61.4588 22.9218 61.0597 22.9218ZM60.5276 30.3691V24.0813H61.5918V30.3691H60.5276Z" fill="#28327F"/>
<path d="M68.3317 24.0809H69.3959V30.3688H68.3317V29.2985C67.844 30.1012 66.9128 30.5917 65.9816 30.5471C65.1391 30.5471 64.3409 30.1904 63.7644 29.6107C62.5229 28.2728 62.5229 26.2661 63.7644 24.9282C64.3409 24.3039 65.1391 23.9471 65.9816 23.9471C66.9128 23.9025 67.844 24.3931 68.3317 25.1958V24.0809ZM66.1146 29.4769C66.6911 29.4769 67.2675 29.2539 67.7109 28.8525C68.5534 27.9607 68.5534 26.5336 67.7109 25.6417C66.8241 24.7944 65.4495 24.7944 64.5626 25.6417C63.7201 26.5336 63.7201 27.9607 64.5626 28.8525C64.9617 29.2539 65.5381 29.4769 66.1146 29.4769Z" fill="#28327F"/>
<path d="M76.2691 24.0816V25.1518C75.7814 24.3491 74.8502 23.8586 73.919 23.9032C73.0765 23.9032 72.234 24.2154 71.6575 24.8397C71.0367 25.464 70.7263 26.3113 70.7263 27.1586C70.7263 28.0059 71.0367 28.8532 71.6575 29.4775C72.234 30.1018 73.0765 30.4586 73.919 30.414C74.8502 30.4586 75.7814 29.9681 76.2691 29.1654V30.0572C76.3135 30.5924 76.0918 31.0829 75.737 31.4397C75.2936 31.7964 74.7615 31.9748 74.185 31.9748C73.5199 32.0194 72.8548 31.8856 72.234 31.5735L71.7462 32.4654C72.5 32.8221 73.3425 33.0005 74.185 32.9559C74.9832 32.9559 75.7814 32.6883 76.4465 32.1978C77.0673 31.6627 77.422 30.86 77.3777 30.0572V24.0816H76.2691ZM75.6483 28.764C75.2493 29.21 74.6728 29.4329 74.052 29.3883C72.8104 29.3883 71.8349 28.4072 71.8349 27.1586C71.8349 25.9099 72.8104 24.9289 74.052 24.9289C74.6285 24.9289 75.2049 25.1518 75.6483 25.5532C76.4908 26.4897 76.4908 27.8721 75.6483 28.764Z" fill="#28327F"/>
<path d="M79.7279 27.6934C79.8166 28.2285 80.0827 28.6744 80.4817 28.9866C80.9252 29.2988 81.4573 29.4771 81.9894 29.4326C82.6989 29.4771 83.364 29.1204 83.7631 28.4961L84.6943 29.0312C84.1178 29.9677 83.0536 30.5028 81.945 30.4582C81.0582 30.5028 80.1713 30.1461 79.5062 29.5217C78.8854 28.8974 78.5307 28.0501 78.575 27.1582C78.5307 26.2663 78.8854 25.419 79.4619 24.7947C80.0827 24.1704 80.9252 23.8136 81.812 23.8582C82.6545 23.8136 83.497 24.1704 84.0291 24.8393C84.6056 25.4636 84.916 26.3109 84.916 27.1582C84.916 27.3366 84.916 27.4704 84.8716 27.6488L79.7279 27.6934ZM81.9007 24.9285C80.8365 24.8839 79.8609 25.6866 79.7279 26.7569H83.8961C83.8518 26.2217 83.5857 25.7758 83.1866 25.419C82.8319 25.1069 82.3885 24.9285 81.9007 24.9285Z" fill="#28327F"/>
<path d="M89.3502 23.9023C90.0153 23.8577 90.6804 24.1252 91.1239 24.6158C91.5673 25.1509 91.8333 25.8198 91.789 26.4888V30.3239H90.7248V26.5334C90.7691 26.0874 90.5918 25.6861 90.3257 25.3293C90.0153 25.0171 89.5719 24.8833 89.1728 24.9279C88.685 24.8833 88.1973 25.1063 87.8425 25.4185C87.4878 25.8644 87.3104 26.3996 87.3547 26.9793V30.3239H86.2905V24.0806H87.3991V24.9725C87.7982 24.259 88.552 23.8577 89.3502 23.9023Z" fill="#28327F"/>
<path d="M97.3761 27.5595C97.1544 27.292 96.844 27.069 96.4892 26.9798C96.1345 26.8906 95.8241 26.7568 95.4694 26.6677C95.159 26.5785 94.8486 26.4447 94.5825 26.3109C94.3608 26.2217 94.2278 25.9987 94.2278 25.7312C94.2278 25.4636 94.3608 25.2406 94.5382 25.1068C94.7599 24.9731 95.0259 24.8839 95.3363 24.8839C95.7798 24.8393 96.2232 25.0622 96.5336 25.419L97.3761 24.7947C97.1987 24.5717 96.977 24.3487 96.711 24.215C96.3119 23.992 95.8241 23.8582 95.3807 23.8582C94.8042 23.8136 94.2278 24.0366 93.7843 24.3933C93.3853 24.7055 93.1636 25.196 93.1636 25.7312C93.1636 26.0879 93.2966 26.4893 93.5183 26.7568C93.74 27.0244 94.0504 27.2028 94.4051 27.292C94.7599 27.3812 95.0703 27.5149 95.425 27.6041C95.7354 27.6933 96.0458 27.8271 96.3119 27.9609C96.5336 28.0947 96.6666 28.3177 96.6666 28.5406C96.6666 28.8082 96.5336 29.0758 96.3119 29.2095C96.0458 29.3433 95.7354 29.4325 95.425 29.3879C94.7599 29.4325 94.1834 29.1204 93.7843 28.5852L93.0305 29.3433C93.6513 30.0568 94.5382 30.4582 95.4694 30.4582C96.0901 30.5028 96.6666 30.3244 97.1544 29.9676C97.5978 29.6555 97.8195 29.1204 97.8195 28.5852C97.7308 28.2731 97.5978 27.8717 97.3761 27.5595Z" fill="#28327F"/>
<path d="M58.3992 24.126H59.5521L57.0689 30.4138H55.783L53.2998 24.126H54.4527L56.4038 29.2098L58.3992 24.126Z" fill="#28327F"/>
<path d="M37.7355 19.3096L35.6514 23.3677H23.0581L25.1422 19.3096H37.7355Z" fill="#E33149"/>
<path d="M33.5674 27.4253L31.4833 31.4835H19.023C15.8747 31.4835 13.3472 28.9416 13.3472 25.7753C13.3472 24.8835 13.5689 23.947 13.968 23.1443L25.8518 0.0888672H30.419L17.6484 24.8835C17.205 25.7308 17.5597 26.801 18.4022 27.2024C18.6683 27.3362 18.9343 27.3807 19.2004 27.3807L33.5674 27.4253Z" fill="#E33149"/>
<path d="M21.24 0.0888672L9.26749 23.3672H0.310303L1.37452 21.3159C1.99532 20.0672 3.28125 19.3091 4.65587 19.3091H6.78431L16.6727 0.0888672H21.24Z" fill="#E33149"/>
</g>
<defs>
<clipPath id="clip0_1513_404">
<rect width="145" height="33" fill="white"/>
</clipPath>
</defs>
</svg>
