<svg width="169" height="37" viewBox="0 0 169 37" fill="none" xmlns="http://www.w3.org/2000/svg">
<g clip-path="url(#clip0_1415_834)">
<path d="M66.4999 24.1593H73.8166L72.8093 27.3477H65.5986C63.6899 27.3477 62.1523 25.8067 62.1523 23.8936V9.17383H65.4926V23.2028C65.4926 23.7342 65.9167 24.1593 66.4999 24.1593Z" fill="#28327F"/>
<path d="M87.1777 12.7867H90.3058V27.4002H87.1777V25.2746C86.0112 26.9219 84.1025 27.8784 82.0878 27.7722C80.1261 27.7722 78.2704 26.9751 76.9449 25.5403C74.0818 22.4582 74.0818 17.7287 76.9449 14.6466C78.2704 13.2118 80.1261 12.4147 82.0878 12.4147C84.1025 12.3084 86.0112 13.2118 87.1777 14.8591V12.7867ZM79.2778 23.4147C81.1334 25.1683 83.9965 25.1683 85.8522 23.4147C87.6018 21.5548 87.6018 18.6321 85.8522 16.719C83.9965 14.9654 81.0804 14.9654 79.2778 16.719C77.5281 18.6321 77.5281 21.5548 79.2778 23.4147Z" fill="#28327F"/>
<path d="M97.7816 24.4248H104.886V27.4006H93.54V25.275L100.38 15.763H93.8582V12.7871H104.621V14.8596L97.7816 24.4248Z" fill="#28327F"/>
<path d="M109.393 21.4491C109.552 22.4587 110.135 23.4153 110.984 23.9998C111.885 24.5843 112.945 24.9032 114.059 24.9032C115.543 25.0095 116.975 24.3187 117.823 23.0964L120.421 24.6375C118.989 26.7631 116.869 27.8259 114.059 27.8259C111.938 27.9322 109.87 27.1351 108.333 25.6472C106.901 24.2124 106.106 22.193 106.159 20.1206C106.106 18.1013 106.901 16.0819 108.333 14.6471C109.817 13.1592 111.779 12.3621 113.9 12.4684C115.914 12.4153 117.823 13.2124 119.149 14.7003C120.527 16.1882 121.269 18.1544 121.216 20.1737C121.216 20.5988 121.163 21.0771 121.11 21.5022L109.393 21.4491ZM109.34 18.8452H117.929C117.664 16.7196 115.861 15.1785 113.741 15.2317C112.68 15.1785 111.673 15.5505 110.824 16.1882C110.029 16.879 109.499 17.8356 109.34 18.8452Z" fill="#28327F"/>
<path d="M126.995 15.2316C127.791 13.4249 129.275 12.5215 131.502 12.5215V15.9225C130.389 15.8162 129.275 16.135 128.374 16.7727C127.472 17.4104 127.048 18.4732 127.048 20.0142V27.4007H123.92V12.7872H127.048V15.2316H126.995Z" fill="#28327F"/>
<path d="M140.568 15.8163H137.493V22.8308C137.44 23.3091 137.599 23.7874 137.917 24.1062C138.235 24.3719 138.712 24.5313 139.137 24.5313C139.932 24.5313 140.727 24.4782 141.522 24.2656L141.787 26.9758C138.977 27.9854 137.016 27.4009 135.955 26.6569C134.895 25.913 134.365 24.6376 134.365 22.7246V10.1303L137.493 9.17383V12.7874H141.628L140.568 15.8163Z" fill="#28327F"/>
<path d="M153.929 12.7871H157.057V27.4006H153.929V25.5407C152.975 27.0286 151.49 27.7726 149.423 27.7726C147.885 27.8257 146.453 27.2412 145.393 26.1784C144.333 25.1156 143.855 23.6277 143.855 21.7678V12.7871H146.984V21.4489C146.931 22.3523 147.249 23.2557 147.832 23.9465C148.468 24.5311 149.316 24.8499 150.218 24.7968C151.225 24.8499 152.18 24.4779 152.922 23.7871C153.611 23.0963 153.929 22.0335 153.929 20.5987V12.7871Z" fill="#28327F"/>
<path d="M163.897 15.2316C164.692 13.4249 166.177 12.5215 168.404 12.5215V15.9224C167.29 15.8162 166.177 16.135 165.275 16.8258C164.374 17.4635 163.95 18.5263 163.95 20.0674V27.4538H160.822V12.7872H163.95L163.897 15.2316Z" fill="#28327F"/>
<path d="M44.0727 22.6172L41.6338 27.2935H27.0535L29.4393 22.6172H44.0727Z" fill="#E33149"/>
<path d="M39.2479 31.9699L36.809 36.6462H22.3347C18.7294 36.6462 15.7603 33.7235 15.7603 30.0569C15.7603 28.9941 16.0254 27.9844 16.5025 27.0279L30.2876 0.351562H35.5896L20.7441 28.9941C20.2139 30.0037 20.6381 31.1728 21.5924 31.7042C21.8575 31.8636 22.1756 31.9168 22.4937 31.9168L39.2479 31.9699Z" fill="#E33149"/>
<path d="M24.8796 0.351968L10.9885 27.294H0.59668L1.81613 24.9027C2.5584 23.4679 4.04295 22.5645 5.63354 22.5645H8.12545L19.6307 0.298828H24.8796V0.351968Z" fill="#E33149"/>
</g>
<defs>
<clipPath id="clip0_1415_834">
<rect width="169" height="37" fill="white"/>
</clipPath>
</defs>
</svg>
