<svg width="357" height="94" viewBox="0 0 357 94" fill="none" xmlns="http://www.w3.org/2000/svg">
<g clip-path="url(#clip0_1415_425)">
<path d="M28.56 43.63V45.26C28.6046 46.9055 28.3027 48.5419 27.6739 50.0631C27.0451 51.5843 26.1034 52.9563 24.91 54.09C23.6104 55.2855 22.0865 56.2114 20.4267 56.8139C18.7668 57.4164 17.0039 57.6836 15.24 57.6C13.3438 57.6576 11.4561 57.3242 9.69442 56.6205C7.93271 55.9169 6.33474 54.858 5 53.51C2.62094 51.0666 1.20143 47.8481 1.00128 44.4437C0.801133 41.0393 1.83374 37.6767 3.9101 34.9714C5.98646 32.266 8.96767 30.3989 12.308 29.7119C15.6484 29.0248 19.1245 29.5638 22.1 31.23C24.1058 32.3618 25.7732 34.0085 26.93 36L23.82 37.83C23.0253 36.3267 21.8042 35.0917 20.31 34.28C18.2642 33.1735 15.9204 32.7439 13.6152 33.053C11.31 33.362 9.16208 34.3938 7.48 36C6.49844 36.9924 5.72691 38.1725 5.21147 39.4696C4.69603 40.7668 4.44726 42.1546 4.48 43.55C4.44187 44.9432 4.68824 46.3295 5.20405 47.6242C5.71987 48.9189 6.4943 50.0948 7.48 51.08C8.50319 52.0849 9.72137 52.8694 11.0594 53.3854C12.3975 53.9014 13.8271 54.1378 15.26 54.08C17.6249 54.1948 19.9567 53.4882 21.86 52.08C23.5362 50.8192 24.6611 48.96 25 46.89H15V43.63H28.56Z" fill="#000092"/>
<path d="M36 41.0001C37.11 38.6001 39.13 37.3901 42.06 37.3901V40.9201C40.5219 40.813 38.9993 41.2837 37.79 42.2401C37.1566 42.8208 36.6656 43.5397 36.3552 44.341C36.0447 45.1422 35.9232 46.0043 36 46.8601V57.1001H32.62V37.6901H36V41.0001Z" fill="#000092"/>
<path d="M58.72 37.6899H62.09V57.0999H58.72V54.2999C58.0685 55.3678 57.1392 56.2388 56.0315 56.82C54.9237 57.4012 53.679 57.6708 52.43 57.5999C51.4182 57.6471 50.4079 57.4799 49.4653 57.1094C48.5226 56.7389 47.6689 56.1734 46.96 55.4499C46.249 54.6601 45.701 53.7376 45.3475 52.7354C44.994 51.7332 44.8419 50.6711 44.9 49.6099V37.6899H48.27V49.4099C48.2289 50.0768 48.3219 50.7452 48.5434 51.3755C48.765 52.0059 49.1107 52.5854 49.56 53.0799C50.0275 53.5275 50.5822 53.874 51.1896 54.0977C51.7969 54.3213 52.4439 54.4174 53.09 54.3799C53.8399 54.4127 54.5886 54.2901 55.2889 54.0199C55.9893 53.7497 56.6263 53.3378 57.16 52.8099C57.725 52.1471 58.1536 51.3792 58.4213 50.5504C58.689 49.7216 58.7905 48.8481 58.72 47.9799V37.6899Z" fill="#000092"/>
<path d="M77.93 37.1902C79.2338 37.1763 80.5261 37.4361 81.7233 37.9528C82.9204 38.4696 83.9958 39.2318 84.88 40.1902C86.7244 42.1477 87.7516 44.7357 87.7516 47.4252C87.7516 50.1148 86.7244 52.7028 84.88 54.6602C83.9958 55.6186 82.9204 56.3808 81.7233 56.8976C80.5261 57.4144 79.2338 57.6742 77.93 57.6602C76.4764 57.7252 75.0316 57.4041 73.7423 56.7296C72.4531 56.0552 71.3655 55.0513 70.59 53.8202V64.9202H67.22V37.6902H70.59V41.0002C71.3691 39.7747 72.4584 38.7768 73.7474 38.1077C75.0364 37.4386 76.4793 37.1221 77.93 37.1902ZM77.5 54.3402C78.409 54.3628 79.3129 54.1968 80.1545 53.8525C80.9962 53.5083 81.7573 52.9934 82.39 52.3402C83.6598 51.007 84.3681 49.2364 84.3681 47.3952C84.3681 45.554 83.6598 43.7834 82.39 42.4502C81.0806 41.1616 79.3171 40.4394 77.48 40.4394C75.6428 40.4394 73.8794 41.1616 72.57 42.4502C71.3002 43.7834 70.5919 45.554 70.5919 47.3952C70.5919 49.2364 71.3002 51.007 72.57 52.3402C73.2091 52.9959 73.9771 53.5122 74.8256 53.8564C75.6741 54.2006 76.5847 54.3654 77.5 54.3402Z" fill="#000092"/>
<path d="M108.17 54.6499C106.231 56.5422 103.629 57.6014 100.92 57.6014C98.2108 57.6014 95.6089 56.5422 93.6701 54.6499C92.2304 53.2224 91.2483 51.3986 90.849 49.4109C90.4496 47.4233 90.6511 45.3617 91.4276 43.4889C92.2042 41.6162 93.5207 40.017 95.2095 38.8952C96.8982 37.7734 98.8827 37.1797 100.91 37.1899C102.256 37.1674 103.594 37.4172 104.841 37.9241C106.089 38.431 107.221 39.1847 108.17 40.1399C110.08 42.0717 111.151 44.6785 111.151 47.3949C111.151 50.1112 110.08 52.718 108.17 54.6499ZM100.91 54.2999C102.044 54.2985 103.16 54.0182 104.16 53.4835C105.16 52.9488 106.013 52.1762 106.644 51.2339C107.275 50.2915 107.664 49.2084 107.777 48.0801C107.891 46.9518 107.725 45.813 107.294 44.7641C106.863 43.7151 106.18 42.7884 105.307 42.0656C104.433 41.3427 103.395 40.8461 102.284 40.6194C101.172 40.3927 100.023 40.4429 98.9355 40.7656C97.8484 41.0883 96.8575 41.6736 96.0501 42.4699C94.7852 43.7976 94.0796 45.5611 94.0796 47.3949C94.0796 49.2287 94.7852 50.9922 96.0501 52.3199C96.6821 52.9642 97.4393 53.4723 98.2752 53.8128C99.111 54.1534 100.008 54.3191 100.91 54.2999Z" fill="#000092"/>
<path d="M356.36 0.339844H291.21L282.43 16.7798H312.19V93.9599H329.89V16.7798H356.36V0.339844Z" fill="#000092"/>
<path d="M150.31 72.4998V0.589844H133.07V76.2498C133.07 80.9442 134.935 85.4462 138.254 88.7656C141.574 92.085 146.076 93.9498 150.77 93.9498H186.77L195.51 77.4698H155.28C153.964 77.462 152.705 76.9358 151.774 76.0055C150.844 75.0751 150.318 73.8155 150.31 72.4998Z" fill="#000092"/>
<path d="M254.28 0.330078H204.24V16.7701H245.33L203.29 93.9601H223.68H272.6V77.5201H232.52L274.04 0.330078H254.28Z" fill="#000092"/>
</g>
<defs>
<clipPath id="clip0_1415_425">
<rect width="357" height="94" fill="white"/>
</clipPath>
</defs>
</svg>
