<svg width="175" height="56" viewBox="0 0 175 56" fill="none" xmlns="http://www.w3.org/2000/svg">
<path d="M51.1363 45.3101H49.6473L43.05 28.876H44.4799L50.377 43.8251H50.4362L55.9487 28.876H57.3194L51.1363 45.3101Z" fill="#0098BE"/>
<path d="M58.1182 22.54H59.3015V25.8071H58.1182V22.54ZM58.1182 28.8761H59.3015V45.3102H58.1182V28.8761Z" fill="#0098BE"/>
<path d="M73.3046 42.2711C73.3046 43.2314 73.3046 44.2511 74.3894 44.2511C74.6162 44.2511 74.9022 44.2214 75.2769 44.1521V45.1718C74.9318 45.2312 74.6162 45.3005 74.3006 45.3005C72.4073 45.3005 72.1213 44.2511 72.1213 42.9047V42.0434H72.0424C71.2732 43.9937 69.084 45.6866 65.9678 45.6866C62.8812 45.6866 60.4948 44.4986 60.4948 41.0534C60.4948 37.2221 63.7983 36.4202 66.5102 36.1925C71.9142 35.8064 72.141 35.4599 72.141 32.777C72.141 32.0444 71.3126 29.5495 67.5851 29.5495C64.6562 29.5495 62.7234 31.084 62.5558 33.9254H61.3428C61.5006 30.3118 63.7293 28.4902 67.5752 28.4902C70.435 28.4902 73.3046 29.3812 73.3046 32.777V42.2711ZM72.1213 35.9648C71.1647 37.0439 68.5613 36.9251 66.2143 37.2419C63.3545 37.5587 61.7373 38.5784 61.7373 41.0336C61.7373 43.0136 63.1672 44.6075 66.027 44.6075C71.5197 44.6075 72.1213 39.8852 72.1213 39.0239V35.9648Z" fill="#0098BE"/>
<path d="M88.6982 28.8764V44.3997C88.6982 45.6669 88.6982 51.7257 81.7755 51.498C78.3438 51.498 75.6911 50.1912 75.5136 46.3995H76.6969C76.9435 49.3002 79.182 50.4486 81.8051 50.4486C87.4162 50.4486 87.505 45.7659 87.505 44.6769V40.9544H87.4359C86.292 43.3701 84.3 44.667 81.5487 44.667C76.766 44.667 74.5176 41.1425 74.5176 36.5984C74.5176 32.2721 76.9533 28.5596 81.5487 28.5596C84.0831 28.5596 86.5484 29.8961 87.4359 32.3414H87.505V28.8764H88.6982ZM75.7305 36.5786C75.7305 40.4396 77.7324 43.6275 81.5684 43.6275C85.5327 43.6275 87.505 40.2812 87.505 36.5786C87.505 32.9156 85.5721 29.5694 81.5684 29.5694C77.6338 29.5595 75.7305 33.0938 75.7305 36.5786Z" fill="#0098BE"/>
<path d="M90.8973 37.2914C90.8381 41.1326 92.8597 44.6174 96.8733 44.6174C99.9401 44.6174 102.119 42.776 102.691 39.7664H103.895C103.263 43.5779 100.739 45.6668 96.8733 45.6668C92.13 45.6668 89.635 41.9246 89.6942 37.4201C89.635 32.9452 91.9722 28.5991 96.8733 28.5991C101.962 28.5991 104.24 32.6284 104.013 37.2914H90.8973ZM102.849 36.2024C102.78 32.7571 100.621 29.5693 96.8733 29.5693C93.2542 29.5693 91.134 32.9551 90.8677 36.2024H102.849Z" fill="#0098BE"/>
<path d="M104.969 28.8764H106.153V32.4404H106.212C107.04 29.9852 109.516 28.5596 112.07 28.5596C117.819 28.5596 117.888 33.1829 117.888 35.1827V45.3105H116.704V34.955C116.704 33.2621 116.517 29.5991 112.05 29.5991C108.382 29.5991 106.153 32.4404 106.153 36.4499V45.3105H104.969V28.8764Z" fill="#0098BE"/>
<path d="M120.077 39.8653C120.264 42.9145 122.542 44.6866 125.52 44.6866C127.67 44.6866 130.737 44.0431 130.737 41.182C130.737 38.3902 127.917 37.9645 125.106 37.3903C122.256 36.8161 119.436 36.0736 119.436 32.6977C119.436 29.4208 122.611 28.4604 125.392 28.4604C128.883 28.4604 131.477 29.9653 131.477 33.7273H130.264C130.234 30.7375 128.153 29.5198 125.402 29.5198C123.164 29.5198 120.669 30.3514 120.669 32.7076C120.669 35.341 123.489 35.7568 126.142 36.3409C129.406 36.9547 131.97 37.717 131.97 41.1919C131.97 44.7559 128.42 45.7558 125.54 45.7558C121.793 45.7558 118.982 43.7263 118.884 39.8752L120.077 39.8653Z" fill="#0098BE"/>
<path d="M124.889 25.8071H130.609V1.75H124.889V25.8071ZM123.607 8.38304H117.888V17.7386C117.888 20.8373 116.014 21.6491 114.782 21.6491C112.977 21.6491 111.971 20.8373 111.971 18.5207V8.38304H106.251V18.8573C106.251 23.4311 107.701 26.3219 112.701 26.3219C114.712 26.3219 116.931 25.2131 118.016 23.4311H118.085V25.8071H123.607V8.38304ZM89.0927 25.8071H105.66V21.4511H96.4L105.058 12.7193V8.38304H89.8718V12.7391H97.7904L89.0829 21.362V25.8071H89.0927ZM64.4492 25.8071H70.8098L72.3383 21.4511H80.7796L82.2687 25.8071H88.7278L79.754 1.75H73.4132L64.4492 25.8071ZM76.5294 8.38304H76.5984L79.2412 16.7981H73.8175L76.5294 8.38304Z" fill="#00193F"/>
<path d="M100.808 48.8942V52.0127C100.808 53.1908 101.331 53.6957 102.031 53.6957C102.81 53.6957 103.313 53.1809 103.313 52.0127V48.8942H104.003V51.9632C104.003 53.5868 103.155 54.2501 102.021 54.2501C100.946 54.2501 100.137 53.6363 100.137 51.9929V48.8843H100.808V48.8942Z" fill="#00193F"/>
<path d="M105.167 48.9634C105.462 48.904 105.926 48.8545 106.409 48.8545C107.09 48.8545 107.523 48.9733 107.849 49.2406C108.125 49.4485 108.283 49.7554 108.283 50.1712C108.283 50.6761 107.948 51.1216 107.395 51.3295V51.3493C107.898 51.478 108.48 51.8938 108.48 52.6759C108.48 53.1313 108.303 53.4778 108.036 53.7352C107.671 54.0718 107.08 54.2302 106.222 54.2302C105.758 54.2302 105.393 54.2005 105.167 54.1708V48.9634ZM105.847 51.1216H106.458C107.178 51.1216 107.593 50.7454 107.593 50.2405C107.593 49.6267 107.129 49.3792 106.439 49.3792C106.123 49.3792 105.946 49.399 105.837 49.4287V51.1216H105.847ZM105.847 53.6461C105.975 53.6659 106.172 53.6758 106.419 53.6758C107.119 53.6758 107.77 53.4184 107.77 52.6561C107.77 51.9334 107.159 51.6364 106.419 51.6364H105.857V53.6461H105.847Z" fill="#00193F"/>
<path d="M112.109 51.6956H110.068V53.5964H112.346V54.1706H109.397V48.9038H112.237V49.478H110.078V51.1412H112.119V51.6956H112.109Z" fill="#00193F"/>
<path d="M113.223 48.9634C113.569 48.8941 114.062 48.8545 114.525 48.8545C115.245 48.8545 115.718 48.9832 116.044 49.2802C116.31 49.5178 116.458 49.8742 116.458 50.2801C116.458 50.9731 116.024 51.4384 115.472 51.6265V51.6463C115.876 51.7849 116.123 52.1611 116.241 52.7056C116.409 53.4382 116.537 53.953 116.645 54.151H115.945C115.856 54.0025 115.738 53.5471 115.59 52.8937C115.432 52.171 115.156 51.8938 114.535 51.874H113.894V54.1609H113.214V48.9634H113.223ZM113.904 51.3592H114.594C115.314 51.3592 115.777 50.9632 115.777 50.3593C115.777 49.6762 115.284 49.3792 114.574 49.3693C114.249 49.3693 114.012 49.399 113.904 49.4287V51.3592Z" fill="#00193F"/>
<path d="M118.302 52.5076L117.759 54.1609H117.059L118.844 48.894H119.663L121.457 54.1609H120.738L120.176 52.5076H118.302ZM120.028 51.973L119.515 50.4583C119.396 50.1117 119.318 49.8048 119.239 49.4979H119.219C119.14 49.8147 119.051 50.1315 118.953 50.4483L118.44 51.973H120.028Z" fill="#00193F"/>
<path d="M122.227 48.9634C122.523 48.904 122.986 48.8545 123.469 48.8545C124.15 48.8545 124.584 48.9733 124.909 49.2406C125.185 49.4485 125.343 49.7554 125.343 50.1712C125.343 50.6761 125.008 51.1216 124.455 51.3295V51.3493C124.958 51.478 125.54 51.8938 125.54 52.6759C125.54 53.1313 125.363 53.4778 125.096 53.7352C124.731 54.0718 124.14 54.2302 123.282 54.2302C122.818 54.2302 122.453 54.2005 122.227 54.1708V48.9634ZM122.897 51.1216H123.509C124.229 51.1216 124.643 50.7454 124.643 50.2405C124.643 49.6267 124.179 49.3792 123.489 49.3792C123.173 49.3792 122.996 49.399 122.887 49.4287V51.1216H122.897ZM122.897 53.6461C123.025 53.6659 123.223 53.6758 123.469 53.6758C124.169 53.6758 124.82 53.4184 124.82 52.6561C124.82 51.9334 124.209 51.6364 123.469 51.6364H122.907V53.6461H122.897Z" fill="#00193F"/>
<path d="M127.295 52.5076L126.753 54.1609H126.053L127.838 48.894H128.656L130.451 54.1609H129.731L129.169 52.5076H127.295ZM129.021 51.973L128.508 50.4583C128.39 50.1117 128.311 49.8048 128.232 49.4979H128.212C128.134 49.8147 128.045 50.1315 127.946 50.4483L127.433 51.973H129.021Z" fill="#00193F"/>
</svg>
