<svg width="175" height="56" viewBox="0 0 175 56" fill="none" xmlns="http://www.w3.org/2000/svg">
<path d="M51.4854 45.6601H49.9965L43.4 29.2261H44.8298L50.7262 44.1751H50.7854L56.2972 29.2261H57.6678L51.4854 45.6601Z" fill="#0098BE"/>
<path d="M58.4763 22.8896H59.6597V26.1567H58.4763V22.8896ZM58.4763 29.2257H59.6597V45.6597H58.4763V29.2257Z" fill="#0098BE"/>
<path d="M73.6611 42.6212C73.6611 43.5815 73.6611 44.6012 74.7457 44.6012C74.9725 44.6012 75.2486 44.5715 75.6331 44.5022V45.5219C75.288 45.5813 74.9725 45.6506 74.657 45.6506C72.7638 45.6506 72.4779 44.6012 72.4779 43.2548V42.3935H72.3891C71.62 44.3438 69.4311 46.0367 66.3152 46.0367C63.229 46.0367 60.8428 44.8586 60.8428 41.4035C60.8428 37.5722 64.146 36.7703 66.8575 36.5426C72.2708 36.1565 72.4877 35.81 72.4877 33.127C72.4877 32.3944 71.6595 29.8996 67.9323 29.8996C65.0038 29.8996 63.0712 31.4341 62.9036 34.2755H61.6908C61.8485 30.6619 64.0769 28.8403 67.9224 28.8403C70.7918 28.8403 73.6512 29.7313 73.6512 33.127V42.6212H73.6611ZM72.4779 36.3149C71.5214 37.394 68.9183 37.2752 66.5716 37.592C63.7121 37.9088 62.095 38.9285 62.095 41.3837C62.095 43.3637 63.5248 44.9576 66.3842 44.9576C71.8764 44.9576 72.4779 40.2353 72.4779 39.374V36.3149Z" fill="#0098BE"/>
<path d="M89.0431 29.226V44.7492C89.0431 46.0165 89.0431 52.0753 82.131 51.8476C78.6997 51.8476 76.0473 50.5408 75.8599 46.7491H77.0432C77.2897 49.6498 79.5279 50.7982 82.1508 50.7982C87.7613 50.7982 87.85 46.1155 87.85 45.0264V41.304H87.7908C86.647 43.7196 84.6553 45.0165 81.9043 45.0165C77.122 45.0165 74.8739 41.4921 74.8739 36.948C74.8739 32.6217 77.3094 28.9092 81.9043 28.9092C84.4383 28.9092 86.9034 30.2457 87.7908 32.691H87.85V29.226H89.0431ZM76.0769 36.9282C76.0769 40.7892 78.0785 43.977 81.9141 43.977C85.8779 43.977 87.85 40.6308 87.85 36.9282C87.85 33.2652 85.9174 29.9091 81.9141 29.9091C77.9799 29.9091 76.0769 33.4434 76.0769 36.9282Z" fill="#0098BE"/>
<path d="M91.242 37.641C91.1829 41.4822 93.2042 44.967 97.2173 44.967C100.284 44.967 102.463 43.1256 103.035 40.116H104.238C103.607 43.9176 101.083 46.0164 97.2272 46.0164C92.4844 46.0164 89.9898 42.2742 90.0489 37.7697C89.9898 33.2948 92.3267 28.9487 97.2272 28.9487C102.315 28.9487 104.593 32.978 104.366 37.641H91.242ZM103.193 36.552C103.134 33.1067 100.964 29.9189 97.2272 29.9189C93.6085 29.9189 91.4885 33.3047 91.2223 36.552H103.193Z" fill="#0098BE"/>
<path d="M105.312 29.2261H106.496V32.7901H106.555C107.383 30.3349 109.858 28.8994 112.412 28.8994C118.16 28.8994 118.229 33.5227 118.229 35.5225V45.6602H117.046V35.3047C117.046 33.6118 116.859 29.9488 112.392 29.9488C108.724 29.9488 106.496 32.7901 106.496 36.7997V45.6602H105.312V29.2261Z" fill="#0098BE"/>
<path d="M120.418 40.2154C120.616 43.2646 122.883 45.0367 125.861 45.0367C128.011 45.0367 131.077 44.3932 131.077 41.5321C131.077 38.7403 128.257 38.3146 125.447 37.7404C122.598 37.1662 119.777 36.4237 119.777 33.0478C119.777 29.7709 122.952 28.8105 125.733 28.8105C129.224 28.8105 131.817 30.3154 131.817 34.0774H130.594C130.565 31.0876 128.484 29.8699 125.733 29.8699C123.495 29.8699 121 30.7015 121 33.0577C121 35.6911 123.82 36.1069 126.473 36.691C129.736 37.3048 132.3 38.0671 132.3 41.542C132.3 45.106 128.75 46.1059 125.871 46.1059C122.124 46.1059 119.314 44.0863 119.215 40.2253H120.418V40.2154Z" fill="#0098BE"/>
<path d="M125.23 26.1572H130.949V2.1001H125.23V26.1572ZM123.948 8.73313H118.229V18.0887C118.229 21.1874 116.356 21.9992 115.123 21.9992C113.319 21.9992 112.313 21.1874 112.313 18.8708V8.73313H106.594V19.2074C106.594 23.7812 108.044 26.672 113.043 26.672C115.054 26.672 117.273 25.5632 118.358 23.7812H118.427V26.1572H123.948V8.73313ZM89.4375 26.1572H106.003V21.8012H96.744L105.401 13.0694V8.73313H90.2165V13.0892H98.1343L89.4277 21.7121V26.1572H89.4375ZM64.7968 26.1572H71.1566L72.685 21.8012H81.1253L82.6142 26.1572H89.0727L80.0999 2.1001H73.7597L64.7968 26.1572ZM76.8756 8.73313H76.9446L79.5871 17.1482H74.164L76.8756 8.73313Z" fill="#00193F"/>
<path d="M91.311 49.4224V52.4122C91.311 53.5408 91.8041 54.0259 92.4648 54.0259C93.2044 54.0259 93.6777 53.5309 93.6777 52.4122V49.4224H94.368V52.3726C94.368 53.9269 93.5495 54.5605 92.4451 54.5605C91.3998 54.5605 90.6207 53.9665 90.6207 52.4023V49.4224H91.311Z" fill="#00193F"/>
<path d="M95.4522 49.4815C95.7382 49.4221 96.1918 49.3726 96.6553 49.3726C97.316 49.3726 97.7401 49.4914 98.0556 49.7488C98.3219 49.9468 98.4797 50.2537 98.4797 50.6596C98.4797 51.1546 98.1543 51.5902 97.6119 51.7882V51.808C98.0951 51.9268 98.667 52.3327 98.667 53.095C98.667 53.5405 98.4895 53.8672 98.2331 54.1246C97.8781 54.4513 97.2963 54.5998 96.468 54.5998C96.0143 54.5998 95.6593 54.5701 95.4424 54.5404V49.4815H95.4522ZM96.1425 51.6001H96.7342C97.4245 51.6001 97.8288 51.2437 97.8288 50.7487C97.8288 50.1547 97.3851 49.927 96.7244 49.927C96.4285 49.927 96.251 49.9468 96.1524 49.9765V51.6001H96.1425ZM96.1425 54.0256C96.2707 54.0454 96.4581 54.0553 96.6849 54.0553C97.3555 54.0553 97.9767 53.8078 97.9767 53.0752C97.9767 52.3822 97.3851 52.105 96.6751 52.105H96.1327V54.0256H96.1425Z" fill="#00193F"/>
<path d="M102.158 52.1944H100.185V53.9764H102.355V54.4714H99.495V49.4224H102.256V50.0164H100.185V51.6004H102.158V52.1944Z" fill="#00193F"/>
<path d="M103.143 49.4815C103.479 49.4122 103.952 49.3726 104.406 49.3726C105.106 49.3726 105.559 49.5013 105.875 49.7884C106.131 50.0161 106.269 50.3626 106.269 50.7487C106.269 51.412 105.845 51.8575 105.313 52.0357V52.0753C105.697 52.2139 105.924 52.5703 106.043 53.0851C106.2 53.788 106.319 54.2731 106.427 54.4612H105.766C105.688 54.3226 105.579 53.887 105.431 53.2633C105.283 52.5703 105.017 52.3129 104.435 52.2832H103.834V54.4612H103.143V49.4815ZM103.834 51.7981H104.494C105.185 51.7981 105.628 51.412 105.628 50.8378C105.628 50.1844 105.155 49.8973 104.475 49.8973C104.159 49.8973 103.932 49.927 103.834 49.9567V51.7981Z" fill="#00193F"/>
<path d="M107.186 49.4224H107.876V53.9764H109.947V54.4714H107.186V49.4224Z" fill="#00193F"/>
<path d="M111.535 52.887L111.012 54.471H110.341L112.047 49.422H112.826L114.542 54.471H113.842L113.31 52.887H111.535ZM112.698 48.333L113.428 49.125H112.925L112.471 48.63H112.461L112.008 49.125H111.535L112.245 48.333H112.698ZM113.181 52.392L112.688 50.9367C112.58 50.61 112.501 50.3031 112.432 50.016H112.412C112.333 50.313 112.254 50.6199 112.156 50.9268L111.663 52.392H113.181Z" fill="#00193F"/>
<path d="M115.271 54.4714V49.4224H116.05L117.608 51.9766C117.973 52.5706 118.249 53.1052 118.486 53.62L118.496 53.6101C118.437 52.9369 118.427 52.3231 118.427 51.5311V49.4224H119.019V54.4714H118.289L116.741 51.9073C116.405 51.343 116.08 50.7688 115.833 50.2243L115.814 50.2342C115.853 50.8678 115.863 51.4816 115.863 52.3132V54.4714H115.271Z" fill="#00193F"/>
<path d="M120.201 49.5112C120.596 49.4518 121.069 49.4023 121.582 49.4023C122.519 49.4023 123.18 49.6201 123.623 50.0359C124.067 50.4518 124.333 51.0359 124.333 51.8477C124.333 52.6694 124.077 53.3426 123.613 53.8079C123.14 54.2831 122.371 54.5306 121.385 54.5306C120.921 54.5306 120.537 54.5108 120.201 54.4712V49.5112ZM120.892 53.9861C121.059 54.0158 121.296 54.0257 121.552 54.0257C122.943 54.0257 123.692 53.2436 123.692 51.8774C123.702 50.6894 123.032 49.927 121.651 49.927C121.316 49.927 121.059 49.9567 120.892 49.9963V53.9861Z" fill="#00193F"/>
<path d="M125.822 49.4224V54.4714H125.132V49.4224H125.822Z" fill="#00193F"/>
<path d="M127.774 52.8874L127.252 54.4714H126.581L128.287 49.4224H129.066L130.782 54.4714H130.082L129.549 52.8874H127.774ZM129.421 52.3924L128.928 50.9371C128.82 50.6104 128.741 50.3035 128.672 50.0164H128.652C128.573 50.3134 128.494 50.6203 128.396 50.9272L127.902 52.3924H129.421Z" fill="#00193F"/>
</svg>
