<svg width="175" height="56" viewBox="0 0 175 56" fill="none" xmlns="http://www.w3.org/2000/svg">
<path d="M50.7964 45.1448H49.3004L42.7 28.6406H44.1374L50.0191 43.6512H50.0924L55.6074 28.6406H56.9715L50.7964 45.1448Z" fill="#0696BB"/>
<path d="M57.7782 22.2817H58.9663V25.5648H57.7782V22.2817ZM57.7782 28.6409H58.9663V45.1451H57.7782V28.6409Z" fill="#0696BB"/>
<path d="M72.9591 42.0837C72.9591 43.0449 72.9591 44.0802 74.0445 44.0802C74.2645 44.0802 74.5578 44.0506 74.9392 43.9766V44.997C74.5872 45.0562 74.2791 45.1302 73.9565 45.1302C72.0643 45.1302 71.7857 44.0654 71.7857 42.7344V41.8766H71.6977C70.9349 43.8287 68.7348 45.5442 65.6253 45.5442C62.5451 45.5442 60.1543 44.3611 60.1543 40.8858C60.1543 37.0407 63.4545 36.2273 66.168 36.0055C71.5803 35.621 71.8003 35.2661 71.8003 32.5745C71.8003 31.8351 70.9789 29.3358 67.2534 29.3358C64.3345 29.3358 62.3838 30.8738 62.2224 33.728H61.005C61.1664 30.1048 63.3958 28.271 67.2387 28.271C70.0989 28.271 72.9591 29.1731 72.9591 32.5745V42.0837ZM71.771 35.7689C70.8176 36.8632 68.2068 36.7302 65.86 37.0555C62.9998 37.3661 61.3864 38.4013 61.3864 40.8562C61.3864 42.8379 62.8091 44.4499 65.6693 44.4499C71.155 44.4499 71.771 39.7175 71.771 38.8449V35.7689Z" fill="#0696BB"/>
<path d="M88.3454 28.6408V44.2281C88.3454 45.4999 88.3454 51.5781 81.4223 51.3563C77.9901 51.3563 75.3499 50.0401 75.1592 46.2394H76.3473C76.5967 49.1528 78.8408 50.3063 81.4516 50.3063C87.0546 50.3063 87.1573 45.6035 87.1573 44.5091V40.7675H87.0986C85.9545 43.1929 83.9598 44.4943 81.2023 44.4943C76.4206 44.4943 74.1765 40.9598 74.1765 36.3901C74.1765 32.0422 76.6113 28.3154 81.2023 28.3154C83.7397 28.3154 86.2039 29.6464 87.0986 32.1161H87.1573V28.6408H88.3454ZM75.3793 36.3753C75.3793 40.2499 77.374 43.4443 81.2169 43.4443C85.1918 43.4443 87.1573 40.0873 87.1573 36.3753C87.1573 32.6929 85.2212 29.3359 81.2169 29.3359C77.286 29.3359 75.3793 32.8851 75.3793 36.3753Z" fill="#0696BB"/>
<path d="M90.5455 37.0999C90.4868 40.9597 92.5109 44.4647 96.5152 44.4647C99.5807 44.4647 101.766 42.6161 102.324 39.5844H103.526C102.896 43.4147 100.373 45.5147 96.5152 45.5147C91.7776 45.5147 89.2841 41.7583 89.3428 37.233C89.2841 32.7372 91.6162 28.3745 96.5152 28.3745C101.605 28.3745 103.878 32.4266 103.658 37.0999H90.5455ZM102.5 36.0055C102.441 32.5449 100.27 29.3506 96.5298 29.3506C92.907 29.3506 90.7802 32.752 90.5308 36.0055H102.5Z" fill="#0696BB"/>
<path d="M104.612 28.6408H105.8V32.2197H105.858C106.68 29.7647 109.159 28.3154 111.711 28.3154C117.46 28.3154 117.534 32.9591 117.534 34.9704V45.145H116.346V34.7337C116.346 33.033 116.155 29.3506 111.696 29.3506C108.029 29.3506 105.8 32.2049 105.8 36.2422V45.145H104.612V28.6408Z" fill="#0696BB"/>
<path d="M119.719 39.6732C119.91 42.7344 122.183 44.5091 125.161 44.5091C127.302 44.5091 130.383 43.8584 130.383 40.9894C130.383 38.1795 127.566 37.7654 124.75 37.1739C121.905 36.5971 119.089 35.8577 119.089 32.4711C119.089 29.1732 122.257 28.2119 125.044 28.2119C128.534 28.2119 131.131 29.7204 131.131 33.5063H129.913C129.884 30.5042 127.801 29.2767 125.044 29.2767C122.799 29.2767 120.306 30.1197 120.306 32.4711C120.306 35.1183 123.122 35.5323 125.777 36.1239C129.048 36.7302 131.6 37.514 131.6 41.0042C131.6 44.583 128.05 45.5887 125.161 45.5887C121.421 45.5887 118.605 43.5626 118.502 39.688L119.719 39.6732Z" fill="#0696BB"/>
<path d="M124.53 25.5647H130.25V1.3999H124.53V25.5647ZM123.254 8.05483H117.534V17.4605C117.534 20.5661 115.656 21.3795 114.424 21.3795C112.62 21.3795 111.608 20.5661 111.608 18.2295V8.05483H105.888V18.5844C105.888 23.1689 107.34 26.0823 112.341 26.0823C114.351 26.0823 116.58 24.9731 117.651 23.1837H117.724V25.5647H123.239V8.05483H123.254ZM88.7413 25.5647H105.301V21.1872H96.0458L104.714 12.4175V8.05483H89.5187V12.4323H97.4392L88.7413 21.0837V25.5647ZM64.0999 25.5647H70.4509L71.9763 21.1872H80.4102L81.9062 25.5647H88.36L79.3981 1.3999H73.0617L64.0999 25.5647ZM76.1859 8.05483H76.2592L78.8994 16.4992H73.4724L76.1859 8.05483Z" fill="#19203B"/>
<path d="M90.6922 53.8112L88.7708 48.7979H89.4895L90.7802 52.4359C90.8829 52.7317 90.9709 52.9979 91.0442 53.2493C91.1176 52.9831 91.2056 52.7021 91.3082 52.4359L92.6577 48.7979H93.3324L91.3816 53.8112H90.6922Z" fill="#19203B"/>
<path d="M94.0217 53.8112V48.7979H94.6818V53.8112H94.0217Z" fill="#19203B"/>
<path d="M95.8112 53.8112V48.7979H96.4712V53.2197H98.9207V53.8112H95.8112Z" fill="#19203B"/>
<path d="M99.6687 53.8112V48.7979H100.329V53.2197H102.778V53.8112H99.6687Z" fill="#19203B"/>
<path d="M103.013 53.8112L104.92 48.7979H105.624L107.663 53.8112H106.915L106.328 52.288H104.245L103.702 53.8112H103.013ZM104.45 51.7556H106.137L105.624 50.3655C105.462 49.9366 105.345 49.5964 105.272 49.3302C105.213 49.6556 105.125 49.9662 105.008 50.2915L104.45 51.7556Z" fill="#19203B"/>
<path d="M108.176 53.8112V48.7979H108.836V53.2197H111.285V53.8112H108.176Z" fill="#19203B"/>
<path d="M111.857 51.3714C111.857 50.5433 112.077 49.8926 112.517 49.4193C112.957 48.9461 113.53 48.7095 114.234 48.7095C114.688 48.7095 115.114 48.813 115.48 49.0348C115.847 49.2567 116.126 49.5672 116.316 49.9665C116.507 50.3658 116.61 50.8095 116.61 51.3123C116.61 51.8151 116.507 52.2736 116.302 52.6729C116.096 53.0722 115.803 53.3827 115.436 53.5898C115.07 53.7968 114.659 53.9003 114.234 53.9003C113.764 53.9003 113.354 53.782 112.972 53.5602C112.591 53.3383 112.327 53.0278 112.136 52.6285C111.96 52.2292 111.857 51.8151 111.857 51.3714ZM112.532 51.3862C112.532 51.9926 112.693 52.4658 113.016 52.8207C113.339 53.1757 113.75 53.3383 114.234 53.3383C114.732 53.3383 115.143 53.1609 115.451 52.806C115.759 52.451 115.935 51.963 115.935 51.3123C115.935 50.8982 115.862 50.5433 115.73 50.2475C115.598 49.9369 115.392 49.7003 115.128 49.5376C114.864 49.375 114.571 49.2862 114.248 49.2862C113.779 49.2862 113.383 49.4489 113.045 49.7743C112.708 50.0848 112.532 50.632 112.532 51.3862Z" fill="#19203B"/>
<path d="M117.431 53.8112V48.7979H119.294C119.675 48.7979 119.983 48.8422 120.203 48.9457C120.438 49.0493 120.614 49.1971 120.746 49.419C120.878 49.626 120.937 49.8479 120.937 50.0845C120.937 50.2915 120.878 50.4986 120.761 50.6908C120.643 50.8831 120.467 51.0309 120.233 51.1493C120.526 51.238 120.761 51.3859 120.922 51.6077C121.083 51.8148 121.171 52.081 121.171 52.3619C121.171 52.5986 121.127 52.8204 121.025 53.0126C120.922 53.2197 120.805 53.3676 120.658 53.4859C120.511 53.6042 120.335 53.6781 120.115 53.7373C119.895 53.7964 119.631 53.826 119.309 53.826H117.431V53.8112ZM118.091 50.8979H119.162C119.455 50.8979 119.661 50.8831 119.793 50.8387C119.954 50.7943 120.086 50.7056 120.174 50.5873C120.262 50.469 120.306 50.3211 120.306 50.1436C120.306 49.981 120.262 49.8331 120.189 49.7C120.115 49.5669 119.998 49.4929 119.851 49.4338C119.705 49.3894 119.455 49.3598 119.089 49.3598H118.091V50.8979ZM118.091 53.2197H119.323C119.529 53.2197 119.69 53.2049 119.778 53.1901C119.925 53.1605 120.057 53.1162 120.159 53.057C120.262 52.9978 120.35 52.8943 120.409 52.776C120.467 52.6577 120.511 52.5098 120.511 52.3471C120.511 52.1549 120.467 51.9922 120.365 51.8591C120.277 51.726 120.145 51.6225 119.969 51.5633C119.793 51.5042 119.558 51.4746 119.235 51.4746H118.091V53.2197Z" fill="#19203B"/>
<path d="M121.89 51.3714C121.89 50.5433 122.11 49.8926 122.55 49.4193C122.99 48.9461 123.562 48.7095 124.266 48.7095C124.721 48.7095 125.146 48.813 125.513 49.0348C125.88 49.2567 126.158 49.5672 126.349 49.9665C126.54 50.3658 126.642 50.8095 126.642 51.3123C126.642 51.8151 126.54 52.2736 126.334 52.6729C126.129 53.0722 125.836 53.3827 125.469 53.5898C125.102 53.7968 124.692 53.9003 124.266 53.9003C123.797 53.9003 123.386 53.782 123.005 53.5602C122.624 53.3383 122.359 53.0278 122.169 52.6285C121.993 52.2292 121.89 51.8151 121.89 51.3714ZM122.58 51.3862C122.58 51.9926 122.741 52.4658 123.064 52.8207C123.386 53.1757 123.797 53.3383 124.281 53.3383C124.78 53.3383 125.19 53.1609 125.498 52.806C125.806 52.451 125.982 51.963 125.982 51.3123C125.982 50.8982 125.909 50.5433 125.777 50.2475C125.645 49.9369 125.44 49.7003 125.176 49.5376C124.912 49.375 124.618 49.2862 124.296 49.2862C123.826 49.2862 123.43 49.4489 123.093 49.7743C122.741 50.0848 122.58 50.632 122.58 51.3862Z" fill="#19203B"/>
<path d="M127.273 52.1994L127.889 52.1403C127.918 52.3917 127.992 52.5987 128.094 52.7614C128.197 52.9241 128.373 53.0572 128.593 53.1459C128.813 53.2494 129.077 53.2938 129.356 53.2938C129.605 53.2938 129.825 53.2494 130.016 53.1755C130.207 53.1015 130.353 52.998 130.441 52.8649C130.529 52.7318 130.588 52.5839 130.588 52.436C130.588 52.2733 130.544 52.1402 130.456 52.0219C130.368 51.9036 130.221 51.8001 130.001 51.7262C129.869 51.667 129.576 51.5931 129.121 51.4748C128.666 51.3712 128.344 51.2529 128.168 51.1642C127.933 51.0459 127.757 50.8832 127.64 50.691C127.522 50.4987 127.464 50.2917 127.464 50.0698C127.464 49.8184 127.537 49.5818 127.684 49.36C127.83 49.1381 128.036 48.9755 128.314 48.8571C128.593 48.7388 128.887 48.6797 129.224 48.6797C129.591 48.6797 129.913 48.7388 130.192 48.8571C130.471 48.9755 130.691 49.1529 130.837 49.3895C130.984 49.6262 131.072 49.8924 131.087 50.1733L130.456 50.2177C130.427 49.9072 130.309 49.6557 130.119 49.4931C129.928 49.3304 129.635 49.2564 129.253 49.2564C128.857 49.2564 128.564 49.3304 128.388 49.4783C128.212 49.6262 128.109 49.8036 128.109 50.0107C128.109 50.1881 128.168 50.336 128.3 50.4543C128.432 50.5726 128.755 50.691 129.297 50.8093C129.825 50.9276 130.192 51.0311 130.397 51.1346C130.691 51.2677 130.896 51.4452 131.043 51.6522C131.175 51.8593 131.248 52.0959 131.248 52.3621C131.248 52.6283 131.175 52.8797 131.028 53.1163C130.881 53.3529 130.661 53.5304 130.368 53.6635C130.089 53.7966 129.767 53.8557 129.415 53.8557C128.96 53.8557 128.593 53.7966 128.285 53.6635C127.977 53.5304 127.742 53.3381 127.566 53.0719C127.376 52.8353 127.288 52.5395 127.273 52.1994Z" fill="#19203B"/>
</svg>
