<svg width="175" height="56" viewBox="0 0 175 56" fill="none" xmlns="http://www.w3.org/2000/svg">
<path d="M128.967 8.95361L126.677 13.2007H134.288V33.9069H139.081V13.2007H146V8.95361H128.967Z" fill="#192033"/>
<path d="M92.4801 29.6598C91.7606 29.6598 91.1748 29.0755 91.1748 28.3853V8.95361H86.6497V29.2088C86.6497 31.8109 88.7509 33.9069 91.3594 33.9069H100.753L103.041 29.6598H92.4801Z" fill="#192033"/>
<path d="M105.548 8.95361V13.4654H116.432L105.306 33.9069H110.684H123.644V29.3952H113.026L124.016 8.95361H118.801H105.548Z" fill="#192033"/>
<path d="M89.1796 44.6601C88.6469 44.6601 88.2224 44.5014 87.8743 44.1817C87.5284 43.8641 87.3692 43.4385 87.3692 42.8542C87.3692 42.2698 87.5284 41.8464 87.8743 41.5267C88.2203 41.2091 88.6469 41.0482 89.2051 41.0482C89.844 41.0482 90.3491 41.1816 90.7481 41.4716V40.8619C90.5338 40.7285 90.3236 40.6226 90.0562 40.5697C89.7888 40.5168 89.498 40.4893 89.152 40.4893C88.6724 40.4893 88.2479 40.5951 87.8743 40.7814C87.5008 40.9656 87.2079 41.2599 86.9956 41.6029C86.7812 41.9734 86.6772 42.3736 86.6772 42.8521C86.6772 43.3305 86.7834 43.754 86.9956 44.1012C87.2079 44.4463 87.5008 44.7385 87.8743 44.9227C88.2479 45.1069 88.6724 45.2148 89.152 45.2148C89.5235 45.2148 89.844 45.1873 90.1093 45.109C90.3746 45.0285 90.6144 44.9502 90.8543 44.7914V44.1817C90.6144 44.3404 90.3746 44.4484 90.1093 44.5268C89.8164 44.6072 89.5235 44.6326 89.1775 44.6601H89.1796Z" fill="#192033"/>
<path d="M95.3538 40.7834C94.9824 40.5695 94.5558 40.4912 94.0761 40.4912C93.5964 40.4912 93.1719 40.5971 92.7984 40.7834C92.427 40.9697 92.1319 41.2619 91.9197 41.6049C91.7053 41.9754 91.6013 42.3755 91.6013 42.854C91.6013 43.3325 91.7074 43.7559 91.9197 44.1032C92.1319 44.4483 92.4248 44.7404 92.7984 44.9246C93.1698 45.1109 93.5964 45.2168 94.1037 45.2168C94.611 45.2168 95.0079 45.1109 95.409 44.9246C95.808 44.7383 96.0755 44.4461 96.2877 44.1032C96.5021 43.7581 96.6061 43.3325 96.6061 42.854C96.6061 42.3755 96.5 41.9775 96.2877 41.6049C96.0458 41.2619 95.7529 40.9676 95.3538 40.7834ZM95.3538 44.154C95.0355 44.4715 94.6089 44.6325 94.0761 44.6325C93.5434 44.6325 93.1189 44.4737 92.7984 44.154C92.4779 43.8364 92.3187 43.3833 92.3187 42.8519C92.3187 42.3205 92.4779 41.8695 92.7984 41.5498C93.1168 41.2301 93.5434 41.0713 94.0761 41.0713C94.6089 41.0713 95.0333 41.2301 95.3538 41.5498C95.6722 41.8674 95.8335 42.3205 95.8335 42.8519C95.8335 43.3833 95.6743 43.8364 95.3538 44.154Z" fill="#192033"/>
<path d="M98.3889 41.4991V40.6226H97.697V45.0835H98.4165V42.2697C98.684 41.552 99.3483 41.2069 100.412 41.2069V40.6226C99.4247 40.6247 98.7328 40.9147 98.3889 41.4991Z" fill="#192033"/>
<path d="M105.175 40.7834C104.829 40.5695 104.43 40.4912 103.977 40.4912C103.126 40.4912 102.46 40.7834 102.035 41.3931V40.6225H101.344V47.1265H102.063V44.3382C102.25 44.6303 102.515 44.8421 102.861 45.003C103.207 45.1618 103.581 45.2422 103.98 45.2422C104.432 45.2422 104.831 45.1363 105.177 44.95C105.523 44.7637 105.816 44.4715 106 44.1286C106.215 43.758 106.293 43.3579 106.293 42.8794C106.293 42.4009 106.187 42.0029 106 41.6303C105.813 41.2619 105.548 40.9697 105.175 40.7834ZM105.389 43.8089C105.23 44.0756 105.017 44.2873 104.75 44.4461C104.483 44.6049 104.164 44.66 103.846 44.66C103.421 44.66 103.048 44.5541 102.727 44.3149C102.409 44.0756 102.169 43.7835 102.061 43.4129V42.2972C102.195 41.9267 102.407 41.607 102.727 41.3953C103.046 41.1814 103.419 41.0777 103.846 41.0777C104.192 41.0777 104.485 41.1581 104.75 41.2915C105.017 41.4503 105.23 41.662 105.389 41.9288C105.548 42.1956 105.629 42.5131 105.629 42.8836C105.629 43.2542 105.523 43.5484 105.389 43.8131V43.8089Z" fill="#192033"/>
<path d="M110.788 40.7834C110.417 40.5695 109.99 40.4912 109.511 40.4912C109.031 40.4912 108.607 40.5971 108.233 40.7834C107.862 40.9972 107.567 41.2619 107.354 41.6049C107.14 41.9754 107.036 42.3755 107.036 42.854C107.036 43.3325 107.142 43.7559 107.354 44.1032C107.569 44.4483 107.859 44.7404 108.233 44.9246C108.604 45.1109 109.031 45.2168 109.538 45.2168C110.043 45.2168 110.442 45.1109 110.816 44.9246C111.187 44.7383 111.482 44.4461 111.695 44.1032C111.909 43.7581 112.013 43.3325 112.013 42.854C112.013 42.3755 111.907 41.9775 111.695 41.6049C111.453 41.2619 111.162 40.9676 110.788 40.7834ZM110.788 44.154C110.47 44.4715 110.043 44.6325 109.511 44.6325C108.978 44.6325 108.553 44.4737 108.233 44.154C107.915 43.8364 107.753 43.3833 107.753 42.8519C107.753 42.3205 107.912 41.8695 108.233 41.5498C108.551 41.2322 108.978 41.0713 109.511 41.0713C110.043 41.0713 110.468 41.2301 110.788 41.5498C111.107 41.8674 111.268 42.3205 111.268 42.8519C111.268 43.3833 111.109 43.8364 110.788 44.154Z" fill="#192033"/>
<path d="M113.798 41.4991V40.6226H113.106V45.0835H113.826V42.2697C114.093 41.552 114.757 41.2069 115.821 41.2069V40.6226C114.836 40.6247 114.17 40.9147 113.798 41.4991Z" fill="#192033"/>
<path d="M118.215 40.4912C117.948 40.4912 117.682 40.5188 117.391 40.5717C117.099 40.6246 116.859 40.6776 116.672 40.758V41.3678C117.124 41.1539 117.604 41.0756 118.134 41.0756C118.665 41.0756 118.985 41.1815 119.225 41.3678C119.465 41.5541 119.571 41.8717 119.571 42.2697V42.6148C119.092 42.348 118.561 42.2168 117.894 42.2168C117.309 42.2168 116.884 42.3501 116.564 42.6148C116.243 42.8794 116.112 43.2521 116.112 43.7306C116.112 44.209 116.271 44.5796 116.591 44.8463C116.912 45.1131 117.336 45.2444 117.869 45.2444C118.642 45.2444 119.227 45.0051 119.599 44.5266V45.111H120.265V42.3226C120.265 41.7658 120.106 41.3148 119.76 40.9951C119.467 40.6225 118.934 40.4616 118.215 40.4912ZM119.599 43.8618C119.465 44.1011 119.253 44.2853 118.988 44.4186C118.72 44.552 118.429 44.6325 118.083 44.6325C117.285 44.6325 116.886 44.3149 116.886 43.703C116.886 43.3855 116.992 43.1462 117.179 42.9853C117.366 42.8244 117.684 42.7461 118.111 42.7461C118.404 42.7461 118.669 42.7736 118.909 42.8519C119.149 42.9048 119.389 43.0107 119.628 43.1695L119.599 43.8618Z" fill="#192033"/>
<path d="M122.553 44.4739C122.42 44.3405 122.367 44.1288 122.367 43.8091V41.1817H123.485V40.6248H122.367V39.2974H121.647V40.6248H120.955V41.1817H121.647V43.7837C121.647 44.2347 121.753 44.6052 121.993 44.8465C122.233 45.0879 122.551 45.2171 122.978 45.2171C123.271 45.2171 123.536 45.1895 123.75 45.1112V44.5268C123.564 44.6073 123.404 44.6327 123.245 44.6327C122.899 44.6306 122.685 44.5777 122.553 44.4739Z" fill="#192033"/>
<path d="M128.195 40.7834C127.849 40.5971 127.397 40.4912 126.889 40.4912C126.117 40.4912 125.559 40.7051 125.132 41.1285C124.733 41.5519 124.521 42.1363 124.521 42.854C124.521 43.5717 124.761 44.1815 125.213 44.5795C125.665 45.003 126.304 45.2168 127.127 45.2168C127.42 45.2168 127.738 45.1893 128.059 45.1363C128.379 45.0834 128.645 45.0305 128.831 44.95V44.3403C128.617 44.4461 128.352 44.4991 128.059 44.5541C127.766 44.6092 127.501 44.6346 127.208 44.6346C126.597 44.6346 126.142 44.5012 125.771 44.2641C125.399 44.0248 125.238 43.6268 125.213 43.1229H129.286V42.7249C129.286 42.3014 129.205 41.9034 129.018 41.5562C128.834 41.2365 128.568 40.9718 128.195 40.7834ZM125.215 42.6148C125.215 42.1363 125.374 41.7658 125.667 41.499C125.96 41.2322 126.359 41.0756 126.919 41.0756C127.479 41.0756 127.876 41.2089 128.171 41.499C128.464 41.7658 128.596 42.1638 128.623 42.6402C128.594 42.6148 125.215 42.6148 125.215 42.6148Z" fill="#192033"/>
<path d="M73.346 32.3931L70.7905 37.3325H55.3284L57.9093 32.3931H73.346Z" fill="#192033"/>
<path d="M68.235 42.2423L65.6795 47.1796H50.4042C46.571 47.1796 43.4595 44.0737 43.4595 40.2521C43.4595 39.1364 43.7269 38.0481 44.232 37.0658L58.8134 8.979H64.4018L48.6998 39.1639C48.1671 40.1992 48.5661 41.4738 49.604 42.0052C49.8969 42.164 50.2429 42.2444 50.5888 42.2444L68.235 42.2423Z" fill="#192033"/>
<path d="M53.0659 8.979L38.3487 37.3325H27.384L28.6893 34.8385C29.4619 33.3247 31.0326 32.3952 32.7093 32.3952H35.3412L47.5029 8.979H53.0659Z" fill="#192033"/>
</svg>
