<svg width="175" height="56" viewBox="0 0 175 56" fill="none" xmlns="http://www.w3.org/2000/svg">
<path d="M71.4214 25.6996H77.9627L77.0139 28.5496H70.6225C68.9247 28.5496 67.5266 27.1496 67.5266 25.4496V12.3496H70.5226V24.8496C70.5725 25.3496 70.9221 25.6996 71.4214 25.6996Z" fill="#333132"/>
<path d="M89.8968 15.5498H92.693V28.5998H89.8968V26.6998C88.8482 28.1498 87.1504 28.9998 85.3528 28.8998C83.6051 28.8998 81.9573 28.1998 80.7589 26.8998C78.2123 24.1498 78.2123 19.8998 80.7589 17.1498C81.9573 15.8998 83.6051 15.1498 85.3528 15.1998C87.1504 15.0998 88.8482 15.9498 89.8968 17.3998V15.5498ZM82.8561 25.0498C84.5039 26.5998 87.1005 26.5998 88.7483 25.0498C90.2962 23.3498 90.2962 20.7498 88.7483 19.0998C87.1005 17.5498 84.5039 17.5498 82.8561 19.0998C81.2583 20.7998 81.2583 23.3998 82.8561 25.0498Z" fill="#333132"/>
<path d="M99.3341 25.9498H105.676V28.5998H95.4893V26.6998L101.581 18.1998H95.7889V15.5498H105.426V17.4498L99.3341 25.9498Z" fill="#333132"/>
<path d="M109.72 23.2494C109.87 24.1494 110.369 24.9994 111.168 25.5494C111.967 26.0994 112.916 26.3494 113.915 26.3494C115.213 26.4494 116.511 25.7994 117.26 24.7494L119.557 26.0994C118.259 27.9994 116.361 28.9494 113.865 28.9494C111.967 29.0494 110.12 28.2994 108.722 26.9994C107.423 25.6994 106.724 23.9494 106.774 22.0994C106.674 18.4494 109.521 15.3494 113.216 15.2494C113.365 15.2494 113.515 15.2494 113.615 15.2494C115.413 15.1994 117.11 15.9494 118.309 17.2494C119.507 18.5994 120.206 20.2994 120.156 22.0994C120.156 22.4994 120.106 22.8994 120.057 23.2494H109.72ZM109.67 20.9994H117.31C117.21 20.0494 116.711 19.1994 116.012 18.5994C115.313 18.0494 114.464 17.7994 113.615 17.7994C112.666 17.7494 111.768 18.0494 111.019 18.6494C110.32 19.2494 109.82 20.0494 109.67 20.9994Z" fill="#333132"/>
<path d="M125.449 17.7494C126.148 16.0994 127.497 15.2994 129.444 15.3494V18.3994C128.445 18.2994 127.447 18.5994 126.648 19.1494C125.849 19.7494 125.449 20.6994 125.449 22.0494V28.5994H122.653V15.5494H125.449V17.7494Z" fill="#333132"/>
<path d="M137.583 18.2496H134.837V24.4996C134.787 24.8996 134.937 25.3496 135.186 25.6496C135.486 25.8996 135.885 26.0496 136.285 26.0496C136.984 26.0496 137.733 25.9996 138.432 25.8496L138.682 28.2996C136.185 29.1996 134.437 28.6496 133.489 28.0496C132.54 27.3996 132.09 26.2496 132.09 24.5496V13.1996L134.887 12.3496V15.5496H138.582L137.583 18.2496Z" fill="#333132"/>
<path d="M149.517 15.5498H152.313V28.5998H149.517V26.9498C148.668 28.2998 147.32 28.9498 145.473 28.9498C144.124 28.9998 142.826 28.4998 141.877 27.4998C140.929 26.4498 140.429 24.9998 140.479 23.5998V15.5998H143.276V23.2998C143.226 24.0998 143.525 24.9498 144.074 25.5498C144.624 26.0998 145.423 26.3498 146.222 26.3498C147.12 26.3998 147.969 26.0498 148.618 25.3998C149.218 24.7998 149.517 23.8498 149.517 22.5498V15.5498Z" fill="#333132"/>
<path d="M158.405 17.7494C159.104 16.0994 160.453 15.2994 162.4 15.3494V18.3994C161.401 18.2994 160.403 18.5494 159.554 19.1494C158.755 19.7494 158.355 20.6994 158.355 22.0494V28.5994H155.559V15.5494H158.355L158.405 17.7494Z" fill="#333132"/>
<path d="M51.3981 30.9497L49.2011 35.1497H36.1685L38.3655 30.9497H51.3981Z" fill="#808285"/>
<path d="M47.104 39.2996L44.9069 43.4996H32.0241C28.7784 43.4996 26.132 40.8496 26.132 37.6496C26.132 36.6996 26.3816 35.7996 26.7811 34.9496L39.1146 11.0996H43.8583L30.576 36.6496C30.1266 37.5496 30.4762 38.5996 31.325 39.0496C31.5747 39.1996 31.8743 39.2496 32.1739 39.2496L47.104 39.2996Z" fill="#808285"/>
<path d="M34.271 11.0996L21.8376 35.1496H12.6L13.6985 32.9996C14.3476 31.7496 15.6459 30.9496 17.094 30.9496H19.291L29.5773 11.0996H34.271Z" fill="#808285"/>
<path d="M69.0745 39.5994C69.1744 40.1494 69.4241 40.5994 69.8735 40.9494C70.3229 41.2994 70.8721 41.4494 71.4214 41.4494C72.1704 41.4994 72.8695 41.1494 73.2689 40.4994L74.2676 41.0494C73.6684 41.9994 72.5699 42.5994 71.4214 42.4994C70.4727 42.5494 69.5739 42.1994 68.9247 41.4994C67.6265 40.0994 67.6265 37.9994 68.9247 36.5994C69.5739 35.9494 70.4727 35.5994 71.3715 35.5994C72.2703 35.5494 73.1191 35.9494 73.7183 36.5994C74.3175 37.2494 74.6171 38.1494 74.6171 38.9994C74.6171 39.1494 74.6171 39.3494 74.5672 39.4994L69.0745 39.5994ZM71.3215 36.7494C70.223 36.6994 69.2243 37.4994 69.0745 38.6494H73.4187C73.3688 38.0994 73.1191 37.5994 72.7197 37.2494C72.3202 36.8994 71.8209 36.7494 71.3215 36.7494Z" fill="#333132"/>
<path d="M81.1584 42.3496H79.8601L78.0625 39.8996L76.2649 42.3496H74.9667L77.4633 38.9996L75.1165 35.8496H76.4647L78.1125 38.0996L79.7603 35.8496H81.0585L78.7117 38.9996L81.1584 42.3496Z" fill="#333132"/>
<path d="M85.7523 35.6997C86.6511 35.6997 87.45 36.0497 88.0492 36.6997C89.3475 38.0497 89.3475 40.1497 88.0492 41.5497C87.45 42.1997 86.6012 42.5497 85.7523 42.5497C84.7536 42.5997 83.8548 42.0997 83.3056 41.2497V44.9497H82.1571V35.8497H83.3056V36.9497C83.8548 36.1497 84.8036 35.6497 85.7523 35.6997ZM85.6524 41.3997C86.2516 41.3997 86.8508 41.1497 87.3002 40.7497C88.1491 39.7997 88.1491 38.3997 87.3002 37.4497C86.4014 36.5497 84.9534 36.5497 84.0046 37.4497C83.1058 38.3497 83.1058 39.8497 84.0046 40.7497C84.4041 41.1997 85.0033 41.4497 85.6524 41.3997Z" fill="#333132"/>
<path d="M91.195 39.5994C91.2949 40.1494 91.5446 40.5994 91.994 40.9494C92.4434 41.2994 92.9926 41.4494 93.5419 41.4494C94.2909 41.4994 94.99 41.1494 95.3894 40.4994L96.3881 41.0494C95.7889 41.9994 94.6904 42.5994 93.5419 42.4994C92.5932 42.5494 91.6944 42.1994 91.0452 41.4994C89.747 40.0994 89.747 37.9994 91.0452 36.5994C91.6944 35.9494 92.5932 35.5994 93.492 35.5994C94.3908 35.5494 95.2396 35.9494 95.8388 36.5994C96.438 37.2494 96.7376 38.1494 96.7376 38.9994C96.7376 39.1494 96.7376 39.3494 96.6877 39.4994L91.195 39.5994ZM93.3921 36.7494C92.8428 36.7494 92.2936 36.8994 91.8941 37.2494C91.4946 37.5994 91.245 38.0994 91.1451 38.5994H95.4394C95.3894 38.0494 95.1398 37.5494 94.7403 37.1994C94.3908 36.8994 93.8914 36.7494 93.3921 36.7494Z" fill="#333132"/>
<path d="M99.0346 36.9494C99.3841 36.1494 100.183 35.6994 101.032 35.7494V36.9494C100.533 36.8994 100.033 37.0494 99.6338 37.3994C99.1844 37.7994 98.9846 38.3494 99.0346 38.9494V42.3994H97.936V35.8494H99.0845L99.0346 36.9494Z" fill="#333132"/>
<path d="M102.73 34.6994C102.53 34.6994 102.33 34.6494 102.18 34.4994C102.031 34.3494 101.931 34.1494 101.931 33.9494C101.931 33.7494 102.031 33.5494 102.18 33.3994C102.33 33.2494 102.53 33.1494 102.73 33.1494C102.929 33.1494 103.129 33.2494 103.279 33.3994C103.429 33.5494 103.479 33.7494 103.479 33.9494C103.479 34.3494 103.179 34.6994 102.73 34.6994ZM102.18 42.3494V35.8494H103.329V42.2994H102.18V42.3494Z" fill="#333132"/>
<path d="M105.826 39.5994C105.925 40.1494 106.175 40.5994 106.624 40.9494C107.074 41.2994 107.623 41.4494 108.172 41.4494C108.921 41.4994 109.62 41.1494 110.02 40.4994L111.019 41.0494C110.419 41.9994 109.321 42.5994 108.172 42.4994C107.224 42.5494 106.325 42.1994 105.676 41.4994C104.377 40.0994 104.377 37.9994 105.676 36.5994C106.325 35.9494 107.224 35.5994 108.122 35.5994C109.021 35.5494 109.87 35.9494 110.469 36.5994C111.069 37.2494 111.368 38.1494 111.368 38.9994C111.368 39.1494 111.368 39.3494 111.318 39.4994L105.826 39.5994ZM108.073 36.7494C106.974 36.6994 105.975 37.4994 105.826 38.6494H110.17C110.12 38.0994 109.87 37.5994 109.471 37.2494C109.021 36.8994 108.522 36.7494 108.073 36.7494Z" fill="#333132"/>
<path d="M115.762 35.6998C116.461 35.6498 117.11 35.9498 117.61 36.3998C118.109 36.9498 118.359 37.6498 118.309 38.3498V42.3498H117.16V38.4498C117.21 37.9998 117.061 37.5498 116.711 37.2498C116.411 36.9498 115.962 36.7998 115.513 36.7998C115.013 36.7998 114.514 36.9498 114.164 37.2998C113.765 37.7498 113.615 38.3498 113.665 38.8998V42.3498H112.517V35.8498H113.665V36.7998C114.114 36.0498 114.913 35.6498 115.762 35.6998Z" fill="#333132"/>
<path d="M122.903 42.4994C121.005 42.5494 119.457 40.9994 119.457 39.0994C119.407 37.1994 120.955 35.6494 122.853 35.6494C123.502 35.6494 124.101 35.7994 124.65 36.1494C125.15 36.4494 125.549 36.8494 125.799 37.3994L124.85 37.9494C124.7 37.5994 124.401 37.2994 124.101 37.0994C123.751 36.8994 123.352 36.7994 122.953 36.7994C122.353 36.7994 121.754 36.9994 121.305 37.4494C120.456 38.3494 120.456 39.7994 121.305 40.7494C122.054 41.4494 123.202 41.5994 124.101 41.0994C124.451 40.8994 124.7 40.5994 124.9 40.2994L125.899 40.8494C125.599 41.3494 125.2 41.7994 124.7 42.0494C124.101 42.3494 123.502 42.4994 122.903 42.4994Z" fill="#333132"/>
<path d="M127.646 39.5994C127.746 40.1494 127.996 40.5994 128.445 40.9494C128.895 41.2994 129.444 41.4494 129.993 41.4494C130.742 41.4994 131.441 41.1494 131.841 40.4994L132.84 41.0494C132.24 41.9994 131.142 42.5994 129.993 42.4994C129.045 42.5494 128.146 42.1994 127.497 41.4994C126.198 40.0994 126.198 37.9994 127.497 36.5994C128.146 35.9494 129.045 35.5994 129.943 35.5994C130.842 35.5494 131.691 35.9494 132.29 36.5994C132.889 37.2494 133.189 38.1494 133.189 38.9994C133.189 39.1494 133.189 39.3494 133.139 39.4994L127.646 39.5994ZM129.844 36.7494C129.294 36.7494 128.745 36.8994 128.346 37.2494C127.946 37.5994 127.696 38.0994 127.597 38.5994H131.891C131.841 38.0494 131.541 37.5494 131.142 37.1994C130.842 36.9494 130.343 36.7494 129.844 36.7494Z" fill="#333132"/>
</svg>
