<svg width="200" height="64" viewBox="0 0 200 64" fill="none" xmlns="http://www.w3.org/2000/svg">
<path d="M75.5081 25.1865L75.0395 27.9478H68.8543L68.2921 31.0653H73.0715L72.6029 33.7374H67.8235L66.8862 38.2801C66.7925 38.9927 66.0428 39.5271 65.2931 39.5271H63.0439L65.4805 26.5226C65.5742 25.81 66.3239 25.2757 67.0737 25.2757L75.5081 25.1865Z" fill="#181840"/>
<path d="M85.4417 29.2838C86.2852 30.0853 86.7537 31.1542 86.7537 32.4903C86.7537 32.7575 86.7537 33.2029 86.66 33.6482C86.5663 34.0046 86.4726 34.2718 86.3789 34.5389H78.132C78.132 34.8061 78.132 34.9843 78.132 35.0733C78.132 36.3204 78.788 36.9439 80.0063 36.9439C80.5686 36.9439 81.0372 36.8548 81.412 36.5876C81.7869 36.3204 82.1617 35.9641 82.3492 35.6078H86.1915C85.7229 36.8548 84.8794 37.8346 83.7549 38.6362C82.6303 39.4379 81.2246 39.7942 79.7252 39.7942C78.2257 39.7942 77.0074 39.3489 76.0703 38.5472C75.1332 37.7455 74.7583 36.5876 74.7583 35.1625C74.7583 34.7171 74.7583 34.2718 74.852 33.8264C75.0394 32.6685 75.508 31.6886 76.164 30.7979C76.82 29.9072 77.6634 29.2838 78.6006 28.8384C79.5377 28.393 80.6623 28.1257 81.7869 28.1257C83.38 28.1257 84.5983 28.4821 85.4417 29.2838ZM83.1926 32.4012C83.1926 31.8668 83.0052 31.4214 82.6303 31.1542C82.2554 30.887 81.7869 30.7089 81.3183 30.7089C80.6623 30.7089 80.1 30.887 79.5377 31.2433C79.0692 31.5996 78.6943 32.134 78.5069 32.9357H83.1926C83.1926 32.8465 83.1926 32.5793 83.1926 32.4012ZM85.1606 24.5629C85.0669 25.0973 84.692 25.4536 84.2234 25.6317L79.5377 27.4132L79.8189 25.8099C79.9126 25.3645 80.2874 24.9192 80.756 24.741L85.6292 22.6924L85.1606 24.5629Z" fill="#181840"/>
<path d="M95.0007 28.749C95.7504 28.3037 96.5939 28.1255 97.4373 28.1255L96.7813 31.8665H95.7505C94.8133 31.8665 93.9699 32.0446 93.4076 32.49C92.8453 32.8463 92.4705 33.5588 92.283 34.4496L91.3459 39.6157H87.6909L89.7527 28.3037H93.4076L93.0327 30.4413C93.5013 29.6397 94.1573 29.1052 95.0007 28.749Z" fill="#181840"/>
<path d="M102.592 28.2145L100.717 38.2797C100.624 38.9923 99.8739 39.5267 99.1241 39.5267H96.875L98.7493 29.5506C98.843 28.8381 99.5927 28.3037 100.342 28.3037L102.592 28.2145ZM99.8739 23.8501C100.342 23.4047 100.998 23.2266 101.654 23.2266C102.217 23.2266 102.685 23.4047 102.966 23.6719C103.341 23.9391 103.435 24.2954 103.435 24.7408C103.435 25.3642 103.154 25.8096 102.685 26.2549C102.217 26.7003 101.654 26.8785 100.905 26.8785C100.342 26.8785 99.8739 26.7003 99.499 26.4331C99.1241 26.1659 99.0304 25.8096 99.0304 25.3642C99.1241 24.7408 99.4053 24.2954 99.8739 23.8501Z" fill="#181840"/>
<path d="M111.869 28.661C112.525 29.0172 112.9 29.5517 113.088 30.2642L113.463 28.2156H117.117L115.243 38.3697C115.149 38.9933 114.493 39.5276 113.837 39.5276H111.401L111.776 37.479C111.307 38.1916 110.745 38.7261 109.995 39.0823C109.245 39.4386 108.402 39.7058 107.558 39.7058C106.246 39.7058 105.216 39.3496 104.466 38.5479C103.716 37.7462 103.341 36.6774 103.341 35.2522C103.341 34.7178 103.435 34.1834 103.529 33.6489C103.716 32.491 104.185 31.5113 104.747 30.7096C105.309 29.9079 106.059 29.2845 106.902 28.8391C107.746 28.3938 108.683 28.2156 109.62 28.2156C110.464 28.1265 111.213 28.3046 111.869 28.661ZM108.214 31.8675C107.652 32.3129 107.277 33.0254 107.09 33.9161C107.09 34.1834 106.996 34.3615 106.996 34.5397C106.996 35.1632 107.184 35.6976 107.558 36.0539C107.933 36.4102 108.496 36.5883 109.152 36.5883C109.901 36.5883 110.557 36.3211 111.213 35.8757C111.776 35.3414 112.151 34.7178 112.338 33.9161C112.338 33.6489 112.432 33.4708 112.432 33.2927C112.432 32.6692 112.244 32.1347 111.869 31.7785C111.495 31.4221 110.932 31.244 110.276 31.244C109.527 31.1549 108.87 31.3331 108.214 31.8675Z" fill="#181840"/>
<path d="M127.145 29.1053C127.988 29.8178 128.551 30.7977 128.644 31.9556H125.083C125.083 31.5102 124.896 31.1539 124.521 30.8867C124.146 30.6195 123.677 30.5305 123.115 30.5305C122.647 30.5305 122.272 30.6195 122.084 30.7977C121.803 30.9758 121.709 31.1539 121.709 31.5102C121.709 31.7774 121.897 32.0446 122.272 32.2228C122.647 32.4009 123.209 32.5791 124.052 32.7573C124.896 33.0245 125.645 33.2026 126.208 33.3807C126.77 33.5589 127.239 33.9152 127.613 34.3606C127.988 34.8059 128.176 35.3403 128.176 36.0529C128.176 36.32 128.176 36.5873 128.082 36.8545C127.895 37.7453 127.426 38.3688 126.583 38.9032C125.739 39.4376 124.615 39.7049 123.115 39.7049C121.522 39.7049 120.21 39.3485 119.273 38.725C118.336 38.1015 117.773 37.1217 117.773 35.8747H121.335C121.335 36.32 121.428 36.7654 121.897 37.0327C122.272 37.2999 122.834 37.3889 123.49 37.3889C123.959 37.3889 124.333 37.2999 124.615 37.1217C124.896 36.9436 124.989 36.6764 124.989 36.4092C124.989 36.0529 124.802 35.7857 124.427 35.6075C124.052 35.4293 123.49 35.2513 122.647 35.0731C121.803 34.8949 121.147 34.6277 120.585 34.4496C120.023 34.2714 119.554 33.9152 119.179 33.5589C118.804 33.1135 118.617 32.5791 118.617 31.9556C118.617 31.7774 118.617 31.5993 118.711 31.243C118.898 30.3523 119.367 29.7288 120.21 29.1053C121.053 28.5709 122.272 28.3037 123.677 28.3037C124.989 28.1255 126.301 28.4817 127.145 29.1053Z" fill="#181840"/>
<path d="M141.39 25.1865L140.921 27.9478H134.735L134.174 31.0653H138.953L138.484 33.7374H133.705L132.861 38.3692C132.767 39.0817 132.112 39.5271 131.362 39.5271H129.019L131.456 26.4336C131.549 25.721 132.206 25.1865 132.956 25.1865H141.39Z" fill="#181840"/>
<path d="M148.699 28.6601C149.355 29.0163 149.731 29.5508 149.918 30.2633L150.292 28.2147H153.947L152.073 38.3688C151.979 38.9923 151.323 39.5267 150.668 39.5267H148.231L148.605 37.4781C148.137 38.1907 147.574 38.7251 146.825 39.0814C146.076 39.4377 145.232 39.7049 144.389 39.7049C143.076 39.7049 142.045 39.3487 141.296 38.547C140.546 37.7453 140.171 36.6765 140.171 35.2513C140.171 34.7169 140.265 34.1824 140.359 33.648C140.546 32.4901 141.014 31.5103 141.577 30.7087C142.139 29.907 142.889 29.2835 143.732 28.8381C144.576 28.3928 145.513 28.2147 146.45 28.2147C147.387 28.2147 148.137 28.3037 148.699 28.6601ZM145.139 31.8666C144.576 32.312 144.201 33.0245 144.013 33.9152C144.013 34.1824 143.919 34.3606 143.919 34.5388C143.919 35.1623 144.108 35.6967 144.482 36.053C144.857 36.4092 145.419 36.5874 146.076 36.5874C146.825 36.5874 147.481 36.3202 148.137 35.8748C148.699 35.3404 149.074 34.7169 149.262 33.9152C149.262 33.648 149.355 33.4699 149.355 33.2917C149.355 32.6683 149.168 32.1338 148.793 31.7776C148.418 31.4212 147.856 31.2431 147.2 31.2431C146.356 31.154 145.7 31.3322 145.139 31.8666ZM151.042 24.4737C150.949 25.008 150.573 25.4534 150.011 25.7206L145.419 27.502L145.7 25.9879C145.794 25.4534 146.169 25.008 146.731 24.7409L151.51 22.7812L151.042 24.4737Z" fill="#181840"/>
<path d="M165.38 29.2841C166.317 30.0857 166.786 31.1546 166.786 32.5797H162.944C162.944 32.1344 162.756 31.689 162.475 31.4218C162.194 31.1546 161.725 30.9765 161.257 30.9765C160.601 30.9765 160.039 31.2437 159.57 31.689C159.102 32.1344 158.726 32.8469 158.539 33.8268C158.446 34.094 158.446 34.3612 158.446 34.7175C158.446 35.3409 158.633 35.8754 158.914 36.1426C159.196 36.4989 159.664 36.677 160.226 36.677C160.788 36.677 161.257 36.4989 161.631 36.2316C162.007 35.9644 162.288 35.6082 162.569 35.0737H166.411C165.849 36.4989 165.006 37.5677 163.881 38.3694C162.662 39.1711 161.351 39.6165 159.757 39.6165C158.258 39.6165 157.039 39.1711 156.102 38.3694C155.165 37.5677 154.697 36.4098 154.697 34.8956C154.697 34.5393 154.791 34.094 154.884 33.4705C155.071 32.3125 155.541 31.3327 156.196 30.5311C156.852 29.7294 157.696 29.1059 158.633 28.6605C159.57 28.2152 160.694 28.0371 161.819 28.0371C163.225 28.1261 164.443 28.4825 165.38 29.2841Z" fill="#181840"/>
<path d="M173.159 28.2145L171.285 38.3688C171.191 38.9923 170.535 39.5267 169.879 39.5267H167.443L169.317 29.3725C169.411 28.749 170.066 28.2145 170.722 28.2145H173.159ZM170.442 23.8501C170.91 23.4047 171.566 23.2266 172.222 23.2266C172.784 23.2266 173.253 23.4047 173.534 23.6719C173.908 23.9391 174.003 24.2954 174.003 24.7408C174.003 25.3642 173.721 25.8096 173.253 26.2549C172.784 26.7003 172.222 26.8785 171.472 26.8785C170.91 26.8785 170.442 26.7003 170.066 26.4331C169.692 26.1659 169.598 25.8096 169.598 25.3642C169.692 24.7408 169.972 24.2954 170.442 23.8501Z" fill="#181840"/>
<path d="M180 24.5631L177.469 38.1021C177.282 38.9037 176.626 39.4382 175.782 39.4382H173.627L176.158 25.8102C176.345 25.0085 177.001 24.4741 177.845 24.4741L180 24.5631Z" fill="#181840"/>
<path d="M27.4112 43.9958C27.0583 42.5945 26.7053 40.5339 27.4112 38.226C27.8524 36.7423 29.176 35.2586 35.2643 30.0657C40.2938 25.7796 41.2644 25.0378 42.7644 22.4001C44.3527 19.4328 44.4409 16.7951 44.4409 16.1357C44.4409 12.5914 42.9409 9.95378 42.1468 8.7998C41.3527 9.62407 40.1173 10.8605 38.6173 12.4266C31.7348 19.4328 26.0877 24.5432 26.0877 24.5432C22.0288 28.2524 20.97 28.9943 20.3523 30.89C19.117 34.9289 21.4994 38.7205 21.8523 39.2976C23.6171 42.1824 26.2642 43.5836 27.4112 43.9958Z" fill="url(#paint0_linear_1797_30)"/>
<path d="M49.0524 51.2727C46.6942 49.0785 44.4233 46.8032 42.065 44.6091C43.2005 43.9591 45.2967 42.4151 46.8689 39.8147C47.5677 38.5145 49.3145 35.6703 48.4411 32.0948C47.8297 29.6569 46.3448 28.0317 45.4714 27.3003C41.803 30.7946 38.1346 34.2888 34.4662 37.7019C33.6802 38.5145 32.1079 40.3835 31.6712 43.1464C31.4965 44.1216 31.0599 47.6159 33.5928 50.7037C34.0294 51.1913 35.5143 52.9791 38.0473 53.8729C41.5409 55.0919 45.8208 54.0355 49.0524 51.2727Z" fill="url(#paint1_linear_1797_30)"/>
<path d="M44.4741 16.1838C44.4741 16.5014 44.4741 17.216 44.3048 18.1688C38.7152 20.6301 34.9042 22.218 34.9042 22.218C29.6534 24.3618 28.4677 24.7588 27.1973 26.3468C24.4873 29.7608 25.3342 34.0483 25.4189 34.7629C25.7576 36.5098 26.5256 37.6017 27.2878 38.6338C26.7797 40.6982 27.1127 42.941 27.4514 44.1319C26.3504 43.6555 23.725 42.3057 21.8619 39.4475C21.4384 38.8916 19.1518 35.0805 20.3374 31.0312C20.9303 29.0463 21.9466 28.3317 26.0117 24.6C26.0117 24.6 31.6859 19.4391 38.6305 12.4521C40.2397 10.8642 41.4253 9.59378 42.2722 8.7998C42.9497 9.91138 44.5588 12.6109 44.4741 16.1838Z" fill="#D61C4C"/>
<path d="M49.2173 51.2775C48.2011 52.151 47.1 52.7861 45.9144 53.3419C43.3736 54.4535 40.4942 54.7712 38.0382 53.8977C35.4128 53.0243 33.973 51.1982 33.5496 50.7218C32.7027 49.6102 32.1098 48.4193 31.8558 47.3871C31.5171 44.4494 32.8721 42.0674 33.2956 41.3528C34.8199 38.8121 37.022 37.6211 38.0382 37.0653C41.5952 35.4773 45.1521 33.9688 48.7092 32.3809C49.2173 35.7155 47.6929 38.3357 47.0153 39.6061C45.491 42.3056 43.289 43.8142 42.188 44.5287C42.6962 45.0051 43.2043 45.4815 43.6278 45.958C45.491 47.7047 47.3542 49.4515 49.2173 51.2775Z" fill="#181840"/>
<path d="M44.3055 18.1694C44.136 19.3604 43.7126 20.869 42.781 22.4569C41.3412 25.0771 40.325 25.8711 35.2436 30.1586C29.0612 35.3988 27.7909 36.9074 27.3674 38.3365C27.2827 38.5747 27.2827 38.8129 27.198 38.9717C26.4358 37.8602 25.7583 36.431 25.3349 34.6843C25.1655 33.9696 24.4033 29.6821 27.1133 26.268C28.3837 24.68 29.5694 24.2831 34.8201 22.1394C34.9048 22.2187 38.7159 20.7101 44.3055 18.1694Z" fill="url(#paint2_linear_1797_30)"/>
<path d="M48.7093 32.3811C45.1523 33.9691 41.5953 35.4776 38.0383 37.0655C37.022 37.542 34.8201 38.8123 33.2956 41.353C32.8722 42.0676 31.6018 44.4496 31.8559 47.3873C31.3478 45.4023 31.5171 43.735 31.6018 43.0204C32.11 40.1621 33.7191 38.2566 34.4813 37.4626C36.9373 35.0806 39.3934 32.7781 41.8493 30.3961C43.1197 29.2052 44.39 28.0142 45.6604 26.8232C45.9992 27.1408 46.592 27.6966 47.1001 28.4112C47.693 29.2846 48.2858 30.3961 48.6246 31.7459C48.6246 31.9047 48.6246 32.1429 48.7093 32.3811Z" fill="url(#paint3_linear_1797_30)"/>
<defs>
<linearGradient id="paint0_linear_1797_30" x1="20" y1="8.7998" x2="46.5369" y2="10.4583" gradientUnits="userSpaceOnUse">
<stop stop-color="#8F2752"/>
<stop offset="1" stop-color="#D61C4C"/>
</linearGradient>
<linearGradient id="paint1_linear_1797_30" x1="31.5288" y1="27.3003" x2="50.565" y2="28.4092" gradientUnits="userSpaceOnUse">
<stop stop-color="#8F2752"/>
<stop offset="1" stop-color="#D61C4C"/>
</linearGradient>
<linearGradient id="paint2_linear_1797_30" x1="25.1072" y1="18.1694" x2="45.8898" y2="19.8957" gradientUnits="userSpaceOnUse">
<stop stop-color="#8F2752"/>
<stop offset="1" stop-color="#D61C4C"/>
</linearGradient>
<linearGradient id="paint3_linear_1797_30" x1="31.5054" y1="26.8232" x2="50.1519" y2="28.2272" gradientUnits="userSpaceOnUse">
<stop stop-color="#8F2752"/>
<stop offset="1" stop-color="#D61C4C"/>
</linearGradient>
</defs>
</svg>
