<svg width="141" height="41" viewBox="0 0 141 41" fill="none" xmlns="http://www.w3.org/2000/svg">
<path d="M49.0694 15.0386L48.6594 17.4547H43.2474L42.7554 20.1825H46.9374L46.5274 22.5206H42.3454L41.5253 26.4955C41.4433 27.119 40.7873 27.5866 40.1313 27.5866H38.1633L40.2953 16.2076C40.3773 15.5842 41.0333 15.1166 41.6893 15.1166L49.0694 15.0386Z" fill="#181840"/>
<path d="M57.7616 18.6234C58.4996 19.3248 58.9096 20.2601 58.9096 21.4291C58.9096 21.6629 58.9096 22.0526 58.8276 22.4423C58.7456 22.7541 58.6636 22.9879 58.5816 23.2217H51.3656C51.3656 23.4555 51.3656 23.6114 51.3656 23.6893C51.3656 24.7805 51.9396 25.3261 53.0056 25.3261C53.4976 25.3261 53.9076 25.2481 54.2356 25.0143C54.5636 24.7805 54.8916 24.4687 55.0556 24.157H58.4176C58.0076 25.2481 57.2696 26.1054 56.2856 26.8068C55.3016 27.5083 54.0716 27.8201 52.7596 27.8201C51.4476 27.8201 50.3816 27.4304 49.5616 26.7289C48.7416 26.0274 48.4136 25.0143 48.4136 23.7673C48.4136 23.3776 48.4136 22.9879 48.4956 22.5982C48.6596 21.585 49.0696 20.7277 49.6436 19.9483C50.2176 19.1689 50.9556 18.6234 51.7756 18.2337C52.5956 17.844 53.5796 17.6101 54.5636 17.6101C55.9576 17.6101 57.0236 17.9219 57.7616 18.6234ZM55.7936 21.3512C55.7936 20.8836 55.6296 20.4939 55.3016 20.2601C54.9736 20.0263 54.5636 19.8704 54.1536 19.8704C53.5796 19.8704 53.0876 20.0263 52.5956 20.338C52.1856 20.6498 51.8576 21.1174 51.6936 21.8188H55.7936C55.7936 21.7408 55.7936 21.507 55.7936 21.3512ZM57.5156 14.4926C57.4336 14.9603 57.1056 15.272 56.6956 15.4279L52.5956 16.9867L52.8416 15.5838C52.9236 15.1941 53.2516 14.8044 53.6616 14.6485L57.9256 12.856L57.5156 14.4926Z" fill="#181840"/>
<path d="M66.1256 18.1559C66.7816 17.7662 67.5196 17.6104 68.2576 17.6104L67.6836 20.8838H66.7816C65.9616 20.8838 65.2236 21.0396 64.7316 21.4293C64.2396 21.741 63.9116 22.3645 63.7476 23.1439L62.9276 27.6643H59.7295L61.5336 17.7662H64.7316L64.4036 19.6367C64.8136 18.9353 65.3876 18.4676 66.1256 18.1559Z" fill="#181840"/>
<path d="M72.7676 17.6882L71.1276 26.4952C71.0456 27.1188 70.3896 27.5864 69.7336 27.5864H67.7656L69.4056 18.8573C69.4876 18.2338 70.1436 17.7662 70.7996 17.7662L72.7676 17.6882ZM70.3896 13.8693C70.7996 13.4796 71.3736 13.3237 71.9476 13.3237C72.4396 13.3237 72.8496 13.4796 73.0956 13.7134C73.4236 13.9472 73.5056 14.259 73.5056 14.6487C73.5056 15.1942 73.2596 15.5839 72.8496 15.9736C72.4396 16.3633 71.9476 16.5191 71.2916 16.5191C70.7996 16.5191 70.3896 16.3633 70.0616 16.1295C69.7336 15.8957 69.6516 15.5839 69.6516 15.1942C69.7336 14.6487 69.9796 14.259 70.3896 13.8693Z" fill="#181840"/>
<path d="M80.8857 18.0785C81.4597 18.3902 81.7877 18.8579 81.9517 19.4814L82.2797 17.6888H85.4777L83.8377 26.5737C83.7557 27.1193 83.1817 27.5869 82.6077 27.5869H80.4757L80.8037 25.7943C80.3937 26.4178 79.9017 26.8855 79.2457 27.1972C78.5897 27.509 77.8516 27.7428 77.1136 27.7428C75.9656 27.7428 75.0636 27.4311 74.4076 26.7296C73.7516 26.0281 73.4236 25.0929 73.4236 23.8459C73.4236 23.3783 73.5056 22.9107 73.5876 22.443C73.7516 21.4298 74.1616 20.5726 74.6536 19.8711C75.1456 19.1696 75.8016 18.6241 76.5396 18.2344C77.2776 17.8447 78.0976 17.6888 78.9177 17.6888C79.6557 17.6108 80.3117 17.7667 80.8857 18.0785ZM77.6876 20.8842C77.1956 21.2739 76.8676 21.8974 76.7036 22.6768C76.7036 22.9107 76.6216 23.0665 76.6216 23.2224C76.6216 23.768 76.7856 24.2356 77.1136 24.5474C77.4416 24.8591 77.9336 25.0149 78.5076 25.0149C79.1637 25.0149 79.7377 24.7812 80.3117 24.3915C80.8037 23.9239 81.1317 23.3783 81.2957 22.6768C81.2957 22.443 81.3777 22.2871 81.3777 22.1313C81.3777 21.5857 81.2137 21.118 80.8857 20.8064C80.5577 20.4946 80.0657 20.3387 79.4917 20.3387C78.8357 20.2608 78.2616 20.4167 77.6876 20.8842Z" fill="#181840"/>
<path d="M94.2518 18.4676C94.9898 19.0911 95.4818 19.9485 95.5638 20.9616H92.4478C92.4478 20.5719 92.2838 20.2602 91.9558 20.0264C91.6278 19.7926 91.2178 19.7147 90.7258 19.7147C90.3158 19.7147 89.9878 19.7926 89.8238 19.9485C89.5778 20.1044 89.4958 20.2602 89.4958 20.5719C89.4958 20.8057 89.6598 21.0395 89.9878 21.1954C90.3158 21.3513 90.8078 21.5072 91.5458 21.6631C92.2838 21.8969 92.9398 22.0528 93.4318 22.2086C93.9238 22.3645 94.3338 22.6763 94.6618 23.066C94.9897 23.4557 95.1538 23.9233 95.1538 24.5467C95.1538 24.7805 95.1538 25.0144 95.0718 25.2482C94.9078 26.0276 94.4978 26.5732 93.7598 27.0408C93.0218 27.5084 92.0378 27.7422 90.7258 27.7422C89.3318 27.7422 88.1838 27.4305 87.3638 26.8849C86.5438 26.3393 86.0518 25.482 86.0518 24.3908H89.1678C89.1678 24.7805 89.2498 25.1702 89.6598 25.4041C89.9878 25.6379 90.4798 25.7158 91.0538 25.7158C91.4638 25.7158 91.7918 25.6379 92.0378 25.482C92.2838 25.3261 92.3658 25.0923 92.3658 24.8585C92.3658 24.5467 92.2018 24.3129 91.8738 24.157C91.5458 24.0012 91.0538 23.8454 90.3158 23.6895C89.5778 23.5336 89.0038 23.2998 88.5118 23.1439C88.0198 22.988 87.6098 22.6763 87.2818 22.3645C86.9538 21.9748 86.7898 21.5072 86.7898 20.9616C86.7898 20.8057 86.7898 20.6498 86.8718 20.3381C87.0358 19.5588 87.4458 19.0132 88.1838 18.4676C88.9218 18 89.9878 17.7662 91.2178 17.7662C92.3658 17.6103 93.5138 17.922 94.2518 18.4676Z" fill="#181840"/>
<path d="M106.716 15.0386L106.306 17.4547H100.893L100.402 20.1825H104.584L104.173 22.5206H99.9914L99.2533 26.5734C99.1714 27.1969 98.598 27.5866 97.9418 27.5866H95.8914L98.0237 16.1297C98.1056 15.5063 98.6799 15.0386 99.3361 15.0386H106.716Z" fill="#181840"/>
<path d="M113.111 18.078C113.686 18.3897 114.014 18.8574 114.178 19.4809L114.506 17.6883H117.704L116.064 26.5732C115.982 27.1188 115.408 27.5864 114.834 27.5864H112.702L113.029 25.7938C112.62 26.4173 112.128 26.885 111.471 27.1967C110.816 27.5085 110.078 27.7423 109.34 27.7423C108.191 27.7423 107.289 27.4306 106.634 26.7291C105.978 26.0276 105.649 25.0924 105.649 23.8454C105.649 23.3778 105.731 22.9101 105.814 22.4425C105.978 21.4293 106.388 20.572 106.88 19.8706C107.371 19.1691 108.028 18.6235 108.766 18.2338C109.504 17.8441 110.324 17.6883 111.144 17.6883C111.964 17.6883 112.62 17.7662 113.111 18.078ZM109.996 20.8838C109.504 21.2735 109.176 21.8969 109.011 22.6763C109.011 22.9101 108.929 23.066 108.929 23.2219C108.929 23.7675 109.094 24.2351 109.422 24.5469C109.749 24.8586 110.242 25.0145 110.816 25.0145C111.471 25.0145 112.046 24.7807 112.62 24.391C113.111 23.9234 113.44 23.3778 113.604 22.6763C113.604 22.4425 113.686 22.2866 113.686 22.1307C113.686 21.5852 113.522 21.1176 113.194 20.8059C112.866 20.4941 112.374 20.3382 111.8 20.3382C111.062 20.2603 110.488 20.4162 109.996 20.8838ZM115.162 14.4149C115.08 14.8825 114.751 15.2722 114.26 15.506L110.242 17.0648L110.488 15.7399C110.569 15.2722 110.898 14.8825 111.389 14.6487L115.571 12.9341L115.162 14.4149Z" fill="#181840"/>
<path d="M127.707 18.6238C128.527 19.3253 128.938 20.2605 128.938 21.5075H125.576C125.576 21.1178 125.411 20.7281 125.166 20.4943C124.92 20.2605 124.509 20.1046 124.1 20.1046C123.526 20.1046 123.034 20.3384 122.624 20.7281C122.214 21.1178 121.886 21.7413 121.722 22.5987C121.64 22.8325 121.64 23.0663 121.64 23.3781C121.64 23.9236 121.804 24.3912 122.049 24.625C122.296 24.9368 122.706 25.0926 123.198 25.0926C123.689 25.0926 124.1 24.9368 124.427 24.7029C124.756 24.4691 125.002 24.1574 125.247 23.6898H128.609C128.118 24.9368 127.38 25.872 126.396 26.5735C125.329 27.275 124.182 27.6646 122.787 27.6646C121.476 27.6646 120.409 27.275 119.589 26.5735C118.769 25.872 118.36 24.8588 118.36 23.5339C118.36 23.2222 118.442 22.8325 118.524 22.2869C118.687 21.2737 119.098 20.4163 119.671 19.715C120.246 19.0135 120.984 18.4679 121.804 18.0782C122.624 17.6885 123.607 17.5327 124.591 17.5327C125.822 17.6106 126.887 17.9224 127.707 18.6238Z" fill="#181840"/>
<path d="M134.514 17.6882L132.874 26.5732C132.792 27.1188 132.218 27.5864 131.644 27.5864H129.512L131.152 18.7014C131.234 18.1559 131.808 17.6882 132.382 17.6882H134.514ZM132.136 13.8693C132.546 13.4796 133.12 13.3237 133.694 13.3237C134.186 13.3237 134.596 13.4796 134.842 13.7134C135.17 13.9472 135.252 14.259 135.252 14.6487C135.252 15.1942 135.006 15.5839 134.596 15.9736C134.186 16.3633 133.694 16.5191 133.038 16.5191C132.546 16.5191 132.136 16.3633 131.808 16.1295C131.48 15.8957 131.398 15.5839 131.398 15.1942C131.48 14.6487 131.726 14.259 132.136 13.8693Z" fill="#181840"/>
<path d="M140.5 14.4929L138.286 26.3395C138.122 27.0409 137.548 27.5086 136.81 27.5086H134.924L137.138 15.5841C137.302 14.8826 137.876 14.415 138.615 14.415L140.5 14.4929Z" fill="#181840"/>
<path d="M6.98484 31.4967C6.67601 30.2706 6.36718 28.4675 6.98484 26.4481C7.37088 25.1499 8.52898 23.8516 13.8563 19.3079C18.257 15.5575 19.1064 14.9085 20.4189 12.6004C21.8087 10.0041 21.8858 7.69612 21.8858 7.11914C21.8858 4.01785 20.5733 1.70992 19.8785 0.700195C19.1836 1.42143 18.1027 2.50327 16.7902 3.87361C10.768 10.0041 5.82673 14.4756 5.82673 14.4756C2.2752 17.7212 1.34871 18.3703 0.808263 20.0291C-0.272638 23.5631 1.81196 26.8808 2.12079 27.3857C3.66493 29.91 5.98114 31.136 6.98484 31.4967Z" fill="url(#paint0_linear_1415_567)"/>
<path d="M25.9208 37.864C23.8574 35.9441 21.8703 33.9532 19.8068 32.0334C20.8003 31.4646 22.6345 30.1136 24.0102 27.8383C24.6217 26.7006 26.1501 24.2119 25.3859 21.0834C24.8509 18.9503 23.5517 17.5282 22.7874 16.8882C19.5776 19.9457 16.3677 23.0031 13.1579 25.9896C12.4701 26.7006 11.0944 28.336 10.7123 30.7535C10.5594 31.6068 10.1773 34.6643 12.3936 37.3662C12.7757 37.7928 14.0749 39.3571 16.2913 40.1392C19.3483 41.2058 23.0931 40.2815 25.9208 37.864Z" fill="url(#paint1_linear_1415_567)"/>
<path d="M21.9149 7.16121C21.9149 7.43911 21.9149 8.06437 21.7667 8.89804C16.8758 11.0517 13.5411 12.4412 13.5411 12.4412C8.94669 14.3169 7.90924 14.6644 6.79767 16.0538C4.42635 19.0411 5.16739 22.7927 5.24149 23.418C5.53791 24.9464 6.20989 25.9018 6.87683 26.805C6.43221 28.6113 6.72357 30.5738 7.01999 31.6158C6.05664 31.1989 3.75942 30.0179 2.12913 27.5169C1.75861 27.0305 -0.242197 23.6958 0.795258 20.1527C1.31399 18.4159 2.20324 17.7906 5.76022 14.5254C5.76022 14.5254 10.7251 10.0096 16.8017 3.89597C18.2097 2.5065 19.2471 1.39493 19.9882 0.700195C20.581 1.67283 21.989 4.03491 21.9149 7.16121Z" fill="#D61C4C"/>
<path d="M26.0653 37.8686C25.1761 38.6328 24.2127 39.1886 23.1752 39.6749C20.9521 40.6475 18.4326 40.9255 16.2836 40.1612C13.9864 39.397 12.7265 37.7991 12.3561 37.3823C11.615 36.4097 11.0963 35.3676 10.874 34.4644C10.5776 31.8939 11.7632 29.8097 12.1338 29.1844C13.4676 26.9613 15.3944 25.9192 16.2836 25.4329C19.396 24.0434 22.5083 22.7235 25.6207 21.334C26.0653 24.2518 24.7314 26.5445 24.1386 27.6561C22.8048 30.0181 20.878 31.3382 19.9147 31.9634C20.3593 32.3802 20.8039 32.7971 21.1745 33.2139C22.8048 34.7423 24.435 36.2708 26.0653 37.8686Z" fill="#181840"/>
<path d="M21.7673 8.89844C21.619 9.94054 21.2485 11.2605 20.4334 12.65C19.1736 14.9426 18.2843 15.6374 13.8381 19.3889C8.42854 23.9741 7.31699 25.2941 6.94646 26.5446C6.87236 26.753 6.87236 26.9615 6.79825 27.1005C6.13132 26.1278 5.53849 24.8773 5.16797 23.3489C5.01976 22.7236 4.35283 18.9721 6.72415 15.9847C7.83571 14.5952 8.87317 14.2479 13.4676 12.3721C13.5417 12.4416 16.8764 11.1215 21.7673 8.89844Z" fill="url(#paint2_linear_1415_567)"/>
<path d="M25.6206 21.3339C22.5082 22.7233 19.3958 24.0433 16.2834 25.4327C15.3942 25.8496 13.4675 26.9612 12.1336 29.1843C11.7631 29.8096 10.6515 31.8938 10.8739 34.4643C10.4292 32.7274 10.5774 31.2685 10.6515 30.6432C11.0962 28.1422 12.5042 26.4749 13.171 25.7801C15.3201 23.6959 17.4691 21.6812 19.6181 19.597C20.7297 18.5549 21.8412 17.5128 22.9528 16.4707C23.2492 16.7486 23.7679 17.2349 24.2126 17.8602C24.7313 18.6244 25.25 19.597 25.5465 20.778C25.5465 20.917 25.5465 21.1254 25.6206 21.3339Z" fill="url(#paint3_linear_1415_567)"/>
<defs>
<linearGradient id="paint0_linear_1415_567" x1="0.5" y1="0.700195" x2="23.7198" y2="2.1514" gradientUnits="userSpaceOnUse">
<stop stop-color="#8F2752"/>
<stop offset="1" stop-color="#D61C4C"/>
</linearGradient>
<linearGradient id="paint1_linear_1415_567" x1="10.5876" y1="16.8882" x2="27.2443" y2="17.8585" gradientUnits="userSpaceOnUse">
<stop stop-color="#8F2752"/>
<stop offset="1" stop-color="#D61C4C"/>
</linearGradient>
<linearGradient id="paint2_linear_1415_567" x1="4.96875" y1="8.89844" x2="23.1536" y2="10.4089" gradientUnits="userSpaceOnUse">
<stop stop-color="#8F2752"/>
<stop offset="1" stop-color="#D61C4C"/>
</linearGradient>
<linearGradient id="paint3_linear_1415_567" x1="10.5671" y1="16.4707" x2="26.8829" y2="17.6992" gradientUnits="userSpaceOnUse">
<stop stop-color="#8F2752"/>
<stop offset="1" stop-color="#D61C4C"/>
</linearGradient>
</defs>
</svg>
