<svg width="175" height="56" viewBox="0 0 175 56" fill="none" xmlns="http://www.w3.org/2000/svg">
<path d="M70.9793 36.0651C71.2947 36.2596 71.5374 36.5029 71.7316 36.8433C71.9015 37.1838 71.9986 37.5486 71.9986 37.9619C71.9986 38.3754 71.9015 38.7401 71.7316 39.0806C71.5617 39.4211 71.2947 39.6642 70.9793 39.8588C70.6637 40.0533 70.2996 40.1263 69.9114 40.1263C69.523 40.1263 69.1589 40.029 68.8435 39.8588C68.528 39.6642 68.2853 39.4211 68.0911 39.0806C67.897 38.7401 67.8241 38.3754 67.8241 37.9619C67.8241 37.5486 67.9212 37.1838 68.0911 36.8433C68.2853 36.5029 68.528 36.2596 68.8435 36.0651C69.1589 35.8705 69.523 35.7976 69.9114 35.7976C70.324 35.7733 70.6637 35.8705 70.9793 36.0651ZM69.2076 36.6002C68.9891 36.7217 68.8435 36.892 68.7221 37.1351C68.6008 37.3784 68.5523 37.6459 68.5523 37.9377C68.5523 38.2538 68.6008 38.5213 68.7221 38.7401C68.8435 38.9834 69.0134 39.1536 69.2076 39.2751C69.426 39.3967 69.6687 39.4697 69.9356 39.4697C70.2026 39.4697 70.4453 39.3967 70.6395 39.2751C70.8579 39.1536 71.0035 38.9834 71.1248 38.7401C71.2462 38.497 71.2947 38.2295 71.2947 37.9377C71.2947 37.6215 71.2462 37.354 71.1248 37.1351C71.0035 36.892 70.8336 36.7217 70.6395 36.6002C70.421 36.4785 70.2026 36.4056 69.9356 36.4056C69.6444 36.4056 69.426 36.4785 69.2076 36.6002Z" fill="#00042D"/>
<path d="M78.4538 38.4239V40.0533H77.7743V35.8218H79.2063C79.6917 35.8218 80.0557 35.9434 80.2984 36.1623C80.5411 36.4054 80.6624 36.7216 80.6624 37.1107C80.6624 37.4998 80.5411 37.8159 80.2984 38.0591C80.0557 38.2779 79.6917 38.3996 79.2063 38.3996L78.4538 38.4239ZM79.9586 37.135C79.9586 36.8918 79.8858 36.7216 79.7644 36.5756C79.6189 36.4541 79.4247 36.3811 79.1334 36.3811H78.4538V37.8402H79.1334C79.6917 37.8646 79.9586 37.6213 79.9586 37.135Z" fill="#00042D"/>
<path d="M86.9973 36.3807V37.6695H88.5506V38.2046H86.9973V39.5178H88.7204V40.0771H86.3177V35.8457H88.7204V36.405L86.9973 36.3807Z" fill="#00042D"/>
<path d="M96.6812 40.0533L95.6376 38.3752H95.1522V40.0533H94.4727V35.8218H95.9532C96.4385 35.8218 96.8026 35.9434 97.0453 36.1865C97.2881 36.4298 97.409 36.7216 97.409 37.1107C97.409 37.4511 97.312 37.7186 97.1425 37.9132C96.9482 38.1321 96.6812 38.2537 96.3415 38.3266L97.4575 40.0533H96.6812ZM95.1522 37.8888H95.9046C96.4628 37.8888 96.7298 37.6457 96.7298 37.1593C96.7298 36.9162 96.657 36.7459 96.5356 36.6243C96.39 36.5027 96.1959 36.4298 95.9046 36.4298H95.1522V37.8888Z" fill="#00042D"/>
<path d="M105.636 39.1533H103.865L103.549 40.0774H102.821L104.374 35.9189H105.151L106.704 40.0774H105.976L105.636 39.1533ZM105.442 38.6183L104.738 36.6485L104.034 38.6183H105.442Z" fill="#00042D"/>
<path d="M115.611 39.0562C115.442 39.3723 115.175 39.6155 114.86 39.7857C114.519 39.956 114.131 40.0533 113.67 40.0533H112.262V35.8218H113.67C114.131 35.8218 114.519 35.9191 114.86 36.0893C115.199 36.2596 115.442 36.5027 115.611 36.8189C115.782 37.135 115.879 37.4998 115.879 37.9375C115.879 38.3752 115.782 38.74 115.611 39.0562ZM114.786 39.0562C115.054 38.7887 115.199 38.4239 115.199 37.9619C115.199 37.4755 115.054 37.1107 114.786 36.8675C114.519 36.6 114.131 36.4784 113.621 36.4784H112.942V39.4696H113.621C114.131 39.4453 114.519 39.2994 114.786 39.0562Z" fill="#00042D"/>
<path d="M124.64 36.0651C124.956 36.2596 125.198 36.5029 125.392 36.8433C125.562 37.1838 125.659 37.5486 125.659 37.9619C125.659 38.3754 125.562 38.7401 125.392 39.0806C125.222 39.4211 124.956 39.6642 124.64 39.8588C124.324 40.0533 123.96 40.1263 123.572 40.1263C123.183 40.1263 122.82 40.029 122.504 39.8588C122.188 39.6642 121.946 39.4211 121.751 39.0806C121.557 38.7401 121.485 38.3754 121.485 37.9619C121.485 37.5486 121.582 37.1838 121.751 36.8433C121.946 36.5029 122.188 36.2596 122.504 36.0651C122.82 35.8705 123.183 35.7976 123.572 35.7976C123.984 35.7733 124.324 35.8705 124.64 36.0651ZM122.868 36.6002C122.65 36.7217 122.504 36.892 122.383 37.1351C122.261 37.3784 122.213 37.6459 122.213 37.9377C122.213 38.2538 122.261 38.5213 122.383 38.7401C122.504 38.9834 122.674 39.1536 122.868 39.2751C123.086 39.3967 123.329 39.4697 123.596 39.4697C123.863 39.4697 124.106 39.3967 124.3 39.2751C124.518 39.1536 124.664 38.9834 124.785 38.7401C124.907 38.497 124.956 38.2295 124.956 37.9377C124.956 37.6215 124.907 37.354 124.785 37.1351C124.664 36.892 124.494 36.7217 124.3 36.6002C124.081 36.4785 123.863 36.4056 123.596 36.4056C123.329 36.4056 123.086 36.4785 122.868 36.6002Z" fill="#00042D"/>
<path d="M133.644 40.0533L132.601 38.3752H132.115V40.0533H131.435V35.8218H132.916C133.402 35.8218 133.765 35.9434 134.009 36.1865C134.251 36.4298 134.372 36.7216 134.372 37.1107C134.372 37.4511 134.275 37.7186 134.106 37.9132C133.912 38.1321 133.644 38.2537 133.305 38.3266L134.421 40.0533H133.644ZM132.115 37.8888H132.868C133.426 37.8888 133.693 37.6457 133.693 37.1593C133.693 36.9162 133.62 36.7459 133.499 36.6243C133.377 36.5027 133.159 36.4298 132.868 36.4298H132.115V37.8888Z" fill="#00042D"/>
<path d="M142.575 39.1533H140.803L140.488 40.0774H139.76L141.313 35.9189H142.09L143.643 40.0774H142.915L142.575 39.1533ZM142.381 38.6183L141.678 36.6485L140.974 38.6183H142.381Z" fill="#00042D"/>
<path d="M64.4993 38.5699H56.3932C56.2475 38.5699 56.1262 38.3997 56.1262 38.2051C56.1262 38.0105 56.2475 37.8403 56.3932 37.8403H64.4993C64.645 37.8403 64.7663 38.0105 64.7663 38.2051C64.742 38.3997 64.645 38.5699 64.4993 38.5699Z" fill="#00042D"/>
<path d="M155.39 38.254H147.212C147.09 38.254 146.993 38.0837 146.993 37.8892C146.993 37.6947 147.09 37.5244 147.212 37.5244H155.39C155.511 37.5244 155.608 37.6947 155.608 37.8892C155.608 38.0837 155.511 38.254 155.39 38.254Z" fill="#00042D"/>
<path d="M74.8623 16.9991C74.7651 17.5099 74.4254 17.8503 73.9885 18.0448L69.6442 19.7715L69.9112 18.2151C70.0082 17.7773 70.348 17.364 70.7849 17.1694L75.2991 15.1753L74.8623 16.9991Z" fill="#00042D"/>
<path d="M132.382 16.9991C132.285 17.5099 131.945 17.8503 131.509 18.0448L127.164 19.7715L127.431 18.2151C127.528 17.7773 127.868 17.364 128.304 17.1694L132.819 15.1753L132.382 16.9991Z" fill="#00042D"/>
<path d="M65.494 17.6074L65.227 19.1152C65.1542 19.48 64.8387 19.7475 64.4504 19.7475H59.4022L58.7712 23.3952H63.334L63.0913 24.83C63.0185 25.1948 62.7029 25.4866 62.3146 25.4866H58.3829L57.5092 30.5206C57.4364 30.9097 57.0966 31.2258 56.684 31.2258H54.6696L56.9024 18.4343C56.9753 17.9723 57.3879 17.6318 57.849 17.6318H65.494V17.6074Z" fill="#00042D"/>
<path d="M74.11 21.498C74.8866 22.2276 75.2992 23.2002 75.2992 24.4162C75.2992 24.708 75.275 25.0485 75.2021 25.4619C75.1293 25.851 75.0323 26.1671 74.9594 26.386H67.1445C67.1203 26.5319 67.0959 26.7265 67.0959 26.9939C67.0959 27.7478 67.2901 28.2829 67.6784 28.6233C68.0668 28.9637 68.5764 29.134 69.2075 29.134C69.8385 29.134 70.3967 28.9881 70.8578 28.6719C71.3432 28.3558 71.683 27.9424 71.8772 27.4317H74.741C74.3284 28.599 73.6003 29.523 72.5567 30.2527C71.5131 30.9822 70.3239 31.3226 68.9648 31.3226C67.6057 31.3226 66.5378 30.9336 65.7368 30.1797C64.9359 29.4258 64.5476 28.3801 64.5476 27.0183C64.5476 26.6048 64.5961 26.1671 64.669 25.7051C64.8631 24.6107 65.2514 23.6623 65.8582 22.8598C66.465 22.0573 67.1931 21.4494 68.0668 21.0116C68.9405 20.5739 69.887 20.355 70.9306 20.355C72.2412 20.4037 73.3333 20.7684 74.11 21.498ZM72.581 24.4648C72.581 23.8326 72.3868 23.3462 71.9742 23.03C71.5859 22.7139 71.0762 22.5437 70.4695 22.5437C69.7171 22.5437 69.0618 22.7625 68.4794 23.2246C67.8969 23.6623 67.5085 24.3432 67.3144 25.2187H72.4839C72.5567 24.9512 72.581 24.708 72.581 24.4648Z" fill="#00042D"/>
<path d="M82.2159 20.9875C82.944 20.5984 83.7207 20.4038 84.5216 20.4038L84.0119 23.322H83.2353C81.2452 23.322 80.1045 24.2461 79.7647 26.0943L79.0123 30.423C78.9395 30.8851 78.5269 31.2255 78.0657 31.2255H76.1484L77.8959 21.3522C77.9687 20.8902 78.3813 20.5497 78.8424 20.5497H80.7354L80.3714 22.5925C80.8811 21.9115 81.4878 21.3765 82.2159 20.9875Z" fill="#00042D"/>
<path d="M88.7203 20.55L86.9728 30.4233C86.9001 30.8854 86.4874 31.2258 86.0263 31.2258H84.1333L85.8808 21.3525C85.9535 20.8904 86.3661 20.55 86.8273 20.55H88.7203ZM86.7787 16.5132C87.1427 16.1727 87.6281 16.0024 88.1864 16.0024C88.6232 16.0024 88.963 16.1241 89.2057 16.3429C89.4484 16.5618 89.5698 16.8536 89.5698 17.2184C89.5698 17.7291 89.3756 18.1424 89.0116 18.4586C88.6475 18.7748 88.1864 18.945 87.6281 18.945C87.1913 18.945 86.8273 18.8477 86.5846 18.6288C86.3419 18.41 86.2205 18.1182 86.2205 17.7534C86.2205 17.2427 86.3904 16.8292 86.7787 16.5132Z" fill="#00042D"/>
<path d="M97.5545 21.0604C98.1376 21.4981 98.5011 22.0574 98.6467 22.7627L98.9139 21.3523C98.9871 20.8902 99.3992 20.5497 99.8605 20.5497H101.729L99.9814 30.423C99.9091 30.8851 99.4962 31.2255 99.0356 31.2255H97.1663L97.5792 28.9882C97.191 29.7178 96.6325 30.2771 95.9044 30.7149C95.1763 31.1526 94.3754 31.3715 93.4774 31.3715C92.2639 31.3715 91.3174 31.0067 90.6379 30.2527C89.9341 29.4989 89.5942 28.4775 89.5942 27.1643C89.5942 26.6537 89.6428 26.1673 89.7399 25.6809C89.9341 24.6109 90.2981 23.6868 90.8321 22.8843C91.366 22.0818 92.0213 21.4738 92.7979 21.0604C93.5745 20.647 94.3997 20.4281 95.2977 20.4281C96.22 20.4038 96.9723 20.6226 97.5545 21.0604ZM93.6473 23.6139C93.0406 24.1732 92.6523 24.9271 92.4824 25.8755C92.4339 26.2402 92.4096 26.4834 92.4096 26.6293C92.4096 27.3589 92.628 27.9425 93.0406 28.3316C93.4532 28.745 94.0357 28.9396 94.7637 28.9396C95.5889 28.9396 96.317 28.6721 96.9238 28.1127C97.5545 27.5534 97.9435 26.7996 98.1129 25.8755C98.1614 25.535 98.1861 25.2918 98.1861 25.1459C98.1861 24.4163 97.9674 23.8327 97.5307 23.4193C97.0939 23.0059 96.5355 22.787 95.8316 22.787C94.9822 22.787 94.2541 23.0545 93.6473 23.6139Z" fill="#00042D"/>
<path d="M110.636 21.3769C111.388 22.0335 111.801 22.909 111.85 24.0033H109.204C109.18 23.4683 109.01 23.0549 108.646 22.7631C108.282 22.4713 107.772 22.301 107.117 22.301C106.632 22.301 106.243 22.3983 105.928 22.6172C105.636 22.8361 105.467 23.1279 105.467 23.4927C105.467 23.8574 105.661 24.1492 106.025 24.3438C106.389 24.5384 106.947 24.7329 107.724 24.9517C108.476 25.1706 109.083 25.3895 109.544 25.5841C110.005 25.7786 110.418 26.0704 110.758 26.4595C111.097 26.8486 111.267 27.3593 111.267 27.9915C111.267 28.2348 111.243 28.4779 111.194 28.7211C111.049 29.4993 110.587 30.1316 109.859 30.6179C109.132 31.1043 108.16 31.3475 106.947 31.3475C105.539 31.3475 104.423 31.0314 103.598 30.3991C102.748 29.7668 102.336 28.8914 102.311 27.7484H104.957C104.909 28.259 105.103 28.6725 105.515 28.9886C105.928 29.3047 106.486 29.4507 107.19 29.4507C107.7 29.4507 108.088 29.3291 108.354 29.1102C108.622 28.867 108.767 28.5752 108.767 28.2348C108.767 27.9429 108.67 27.724 108.476 27.5295C108.282 27.3349 108.039 27.1891 107.748 27.0918C107.456 26.9945 107.02 26.8486 106.486 26.7027C105.758 26.5081 105.175 26.3136 104.714 26.119C104.277 25.9245 103.889 25.657 103.549 25.2922C103.234 24.9275 103.064 24.4411 103.064 23.8331C103.064 23.6143 103.088 23.3954 103.112 23.1279C103.258 22.3253 103.695 21.6931 104.423 21.1824C105.151 20.696 106.146 20.4528 107.359 20.4528C108.791 20.4042 109.883 20.7447 110.636 21.3769Z" fill="#00042D"/>
<path d="M123.111 17.6074L122.844 19.1152C122.771 19.48 122.455 19.7475 122.067 19.7475H117.019L116.388 23.3952H120.95L120.708 24.83C120.635 25.1948 120.32 25.4866 119.931 25.4866H115.999L115.15 30.399C115.078 30.861 114.665 31.2015 114.203 31.2015H112.31L114.543 18.41C114.616 17.9479 115.029 17.6074 115.49 17.6074H123.111Z" fill="#00042D"/>
<path d="M130.319 21.0604C130.902 21.4981 131.266 22.0574 131.411 22.7627L131.678 21.3523C131.751 20.8902 132.164 20.5497 132.625 20.5497H134.494L132.746 30.423C132.673 30.8851 132.261 31.2255 131.8 31.2255H129.931L130.343 28.9882C129.955 29.7178 129.397 30.2771 128.669 30.7149C127.941 31.1526 127.14 31.3715 126.242 31.3715C125.028 31.3715 124.082 31.0067 123.402 30.2527C122.698 29.4989 122.358 28.4775 122.358 27.1643C122.358 26.6537 122.407 26.1673 122.504 25.6809C122.698 24.6109 123.062 23.6868 123.596 22.8843C124.131 22.0818 124.785 21.4738 125.562 21.0604C126.339 20.647 127.164 20.4281 128.062 20.4281C128.985 20.4038 129.737 20.6226 130.319 21.0604ZM126.412 23.6139C125.805 24.1732 125.417 24.9271 125.247 25.8755C125.198 26.2402 125.174 26.4834 125.174 26.6293C125.174 27.3589 125.392 27.9425 125.805 28.3316C126.217 28.745 126.8 28.9396 127.528 28.9396C128.353 28.9396 129.082 28.6721 129.689 28.1127C130.319 27.5534 130.707 26.7996 130.878 25.8755C130.926 25.535 130.95 25.2918 130.95 25.1459C130.95 24.4163 130.731 23.8327 130.295 23.4193C129.858 23.0059 129.3 22.787 128.596 22.787C127.747 22.787 127.018 23.0545 126.412 23.6139Z" fill="#00042D"/>
<path d="M144.905 21.5226C145.706 22.2765 146.119 23.2736 146.119 24.5624H143.255C143.23 24.0031 143.036 23.5411 142.697 23.2249C142.332 22.9088 141.871 22.7385 141.24 22.7385C140.512 22.7385 139.857 23.006 139.298 23.5411C138.741 24.0761 138.352 24.8543 138.182 25.8756C138.134 26.1431 138.109 26.4349 138.109 26.7511C138.109 27.505 138.303 28.0643 138.668 28.4534C139.056 28.8425 139.541 29.0371 140.148 29.0371C140.755 29.0371 141.313 28.8668 141.799 28.5507C142.26 28.2345 142.6 27.7725 142.817 27.2132H145.682C145.244 28.502 144.493 29.4991 143.424 30.253C142.381 31.0068 141.168 31.3716 139.784 31.3716C138.4 31.3716 137.333 30.9825 136.508 30.2043C135.707 29.4262 135.294 28.3561 135.294 26.97C135.294 26.5566 135.343 26.1189 135.416 25.6567C135.61 24.5868 135.998 23.6384 136.58 22.8601C137.163 22.0819 137.891 21.474 138.765 21.0606C139.638 20.6471 140.561 20.4283 141.58 20.4283C142.988 20.404 144.104 20.7931 144.905 21.5226Z" fill="#00042D"/>
<path d="M151.507 20.55L149.759 30.4233C149.686 30.8854 149.274 31.2258 148.813 31.2258H146.92L148.667 21.3525C148.74 20.8904 149.153 20.55 149.614 20.55H151.507ZM149.565 16.5132C149.93 16.1727 150.415 16.0024 150.973 16.0024C151.41 16.0024 151.75 16.1241 151.992 16.3429C152.235 16.5618 152.357 16.8536 152.357 17.2184C152.357 17.7291 152.163 18.1424 151.798 18.4586C151.434 18.7748 150.973 18.945 150.415 18.945C149.978 18.945 149.614 18.8477 149.371 18.6288C149.129 18.41 149.007 18.1182 149.007 17.7534C149.007 17.2427 149.201 16.8292 149.565 16.5132Z" fill="#00042D"/>
<path d="M157.308 16.9751L154.953 30.4232C154.881 30.8853 154.468 31.2257 154.006 31.2257H152.114L154.468 17.7776C154.541 17.3155 154.953 16.9751 155.414 16.9751H157.308Z" fill="#00042D"/>
<path d="M38.2144 14.1908C38.1805 16.1801 37.7145 18.0672 36.7146 19.8691C35.6686 21.7539 34.1396 23.3175 32.5062 24.6867C30.5573 26.3184 28.7346 28.1277 26.8561 29.8397C25.8562 30.7517 24.8272 31.7074 24.167 32.9087C23.4438 34.2244 23.3394 35.8075 23.4947 37.2739C23.5481 37.7894 23.6816 38.2928 23.7544 38.801C23.5214 38.6308 22.9535 38.3756 22.9462 38.3707C21.9803 37.8843 21.109 37.2496 20.3615 36.4665C19.614 35.6834 19.0509 34.8469 18.5946 33.9131C18.5534 33.828 18.5145 33.7452 18.4757 33.6602C18.0122 32.6388 17.6894 31.542 17.5559 30.4258C17.3399 28.6116 17.7403 26.62 18.9271 25.19C20.0023 23.8939 21.3905 22.7898 22.6113 21.6347C22.6113 21.6347 27.3925 17.0871 33.3386 10.9102C34.6492 9.5484 35.6928 8.40543 36.3481 7.7002C36.3481 7.7002 37.3383 9.52651 37.4014 9.67485C37.8213 10.6841 38.0907 11.7322 38.1732 12.8144C38.2096 13.2789 38.2241 13.736 38.2144 14.1908Z" fill="#00042D"/>
<path d="M37.244 40.1168C36.8314 39.7034 36.4188 39.29 36.0062 38.8766C36.0426 38.9131 36.8168 38.3124 36.8848 38.2614C37.2731 37.9647 37.6444 37.6461 37.994 37.3081C38.807 36.5201 39.4695 35.6252 40.0447 34.6525C40.9573 33.1083 41.6247 31.3743 41.6612 29.5602C41.7024 27.3593 40.785 25.1804 39.2584 23.6094C39.2341 23.5851 38.955 23.303 38.9453 23.3127C37.8774 24.3584 36.8095 25.4285 35.7417 26.4742C34.0864 28.1327 32.4239 29.779 30.7396 31.4108C29.8222 32.3009 28.9243 33.2347 28.2519 34.3314C27.1089 36.1967 26.6792 38.4899 27.0701 40.6421C27.4268 42.6046 28.4874 44.4333 30.0091 45.7198C30.7518 46.3472 31.5915 46.8506 32.5114 47.1692C34.6228 47.8987 37.0256 47.6798 39.2099 46.6828C40.1807 46.2208 41.1272 45.6371 41.9766 44.8832C40.4233 43.2782 38.8458 41.6975 37.244 40.1168Z" fill="#00042D"/>
</svg>
