<svg width="200" height="64" viewBox="0 0 200 64" fill="none" xmlns="http://www.w3.org/2000/svg">
<g clip-path="url(#clip0_2246_382)">
<path d="M42.3526 33.9497L39.8845 38.7416H54.7473L57.1884 33.9497H42.3526Z" fill="url(#paint0_linear_2246_382)"/>
<path d="M52.3092 43.4729V43.4434L52.2944 43.4729H52.3092Z" fill="url(#paint1_linear_2246_382)"/>
<path d="M34.3681 43.2418C33.352 42.7187 32.9732 41.4711 33.4963 40.4851L48.5936 11.3638H43.1944L29.1703 38.4499C28.6773 39.4089 28.4158 40.452 28.4158 41.5282C28.4158 45.2169 31.434 48.2051 35.1227 48.2051H49.8412L52.2942 43.4733H35.3241C34.9754 43.4733 34.6567 43.3861 34.3651 43.2418H34.3681Z" fill="url(#paint2_linear_2246_382)"/>
<path d="M32.336 11.3638L20.6357 33.9496H18.1105C16.4841 33.9496 15.0051 34.8484 14.2505 36.3004L13.0029 38.7114H23.5698L37.7051 11.3638H32.333H32.336Z" fill="url(#paint3_linear_2246_382)"/>
<path d="M69.418 48.2381V30.814H72.4482L77.9677 42.0963L83.4601 30.814H86.4903V48.2381H83.5683V35.6029L78.8605 45.2348H77.0748L72.34 35.6029V48.2381H69.418Z" fill="#00365F"/>
<path d="M93.9036 48.5088C93.092 48.5088 92.3374 48.3645 91.643 48.0759C90.9485 47.7873 90.3924 47.3514 89.9775 46.7651C89.5627 46.1789 89.3552 45.4514 89.3552 44.5856C89.3552 43.3591 89.7761 42.373 90.6148 41.6245C91.4536 40.8759 92.7462 40.5002 94.4989 40.5002H98.6114V39.932C98.6114 39.3187 98.5182 38.8317 98.3288 38.471C98.1394 38.1102 97.7967 37.8487 97.3007 37.6863C96.8047 37.524 96.0771 37.4428 95.1212 37.4428C93.606 37.4428 92.1901 37.6683 90.8734 38.1192V35.9277C91.4506 35.6932 92.154 35.5038 92.9837 35.3595C93.8135 35.2152 94.7063 35.1431 95.6623 35.1431C97.5382 35.1431 98.9661 35.5219 99.9522 36.2794C100.935 37.037 101.425 38.2725 101.425 39.9861V48.2382H98.909L98.7196 46.9395C98.1965 47.4445 97.5502 47.8324 96.7866 48.1029C96.02 48.3735 95.058 48.5088 93.9067 48.5088H93.9036ZM94.6883 46.3984C95.5721 46.3984 96.3417 46.2481 97.0001 45.9535C97.6584 45.6558 98.1935 45.256 98.6084 44.751V42.5053H94.55C93.6842 42.5053 93.0559 42.6737 92.6711 43.0074C92.2833 43.341 92.0879 43.8521 92.0879 44.5345C92.0879 45.2169 92.3133 45.6799 92.7643 45.9685C93.2152 46.2571 93.8555 46.4014 94.6853 46.4014L94.6883 46.3984Z" fill="#00365F"/>
<path d="M104.699 48.2382V35.4136H107.405L107.567 36.9017C108.18 36.5049 108.911 36.1441 109.758 35.8195C110.606 35.4948 111.445 35.2693 112.275 35.1431V37.3887C111.77 37.4789 111.222 37.6112 110.636 37.7795C110.05 37.9509 109.494 38.1403 108.974 38.3477C108.451 38.5551 108.009 38.7686 107.648 38.985V48.2382H104.699Z" fill="#00365F"/>
<path d="M114.412 48.2382V30.0024H117.361V40.5543L122.745 35.4137H126.127L120.906 40.5814L126.425 48.2382H123.314L119.066 42.1506L117.361 43.774V48.2382H114.412Z" fill="#00365F"/>
<path d="M133.676 48.5088C131.44 48.5088 129.708 47.9586 128.481 46.8583C127.255 45.7581 126.642 44.0716 126.642 41.7989C126.642 39.7426 127.165 38.1192 128.211 36.9288C129.257 35.7383 130.844 35.1431 132.973 35.1431C134.921 35.1431 136.385 35.6541 137.368 36.6702C138.351 37.6893 138.844 39.0031 138.844 40.6084V42.9893H129.455C129.6 44.2339 130.051 45.0907 130.808 45.5596C131.566 46.0286 132.72 46.2631 134.271 46.2631C134.921 46.2631 135.588 46.2 136.274 46.0737C136.959 45.9474 137.554 45.7851 138.059 45.5867V47.7512C137.482 48.0037 136.818 48.1931 136.072 48.3194C135.324 48.4456 134.524 48.5088 133.676 48.5088ZM129.455 41.0683H136.247V40.1755C136.247 39.2917 136.003 38.6032 135.516 38.1042C135.029 37.6082 134.208 37.3587 133.054 37.3587C131.683 37.3587 130.739 37.6563 130.225 38.2515C129.711 38.8467 129.455 39.7847 129.455 41.0653V41.0683Z" fill="#00365F"/>
<path d="M146.606 48.5089C145.235 48.5089 144.213 48.1451 143.536 47.4116C142.86 46.6811 142.52 45.686 142.52 44.4234V37.7135H140.626V35.4137H142.52V32.4646L145.442 31.5718V35.4137H148.851L148.662 37.7135H145.442V44.2611C145.442 45.0006 145.614 45.5207 145.956 45.8153C146.299 46.1129 146.858 46.2632 147.634 46.2632C148.121 46.2632 148.635 46.173 149.176 45.9926V48.076C148.473 48.3646 147.616 48.5089 146.606 48.5089Z" fill="#00365F"/>
<path d="M152.748 48.2385V37.6595H150.8L151.07 35.4139H155.697V48.2385H152.748ZM152.504 32.7353V30.3003H155.724V32.7353H152.504Z" fill="#00365F"/>
<path d="M159.133 48.2382V35.4136H161.838L161.974 36.7664C162.551 36.3155 163.239 35.9337 164.042 35.6181C164.845 35.3024 165.731 35.1431 166.708 35.1431C168.368 35.1431 169.576 35.5309 170.334 36.3065C171.092 37.0821 171.47 38.2906 171.47 39.932V48.2382H168.548V40.0673C168.548 39.0752 168.347 38.3808 167.938 37.984C167.532 37.5871 166.769 37.3887 165.653 37.3887C164.986 37.3887 164.331 37.524 163.69 37.7946C163.05 38.0651 162.512 38.4168 162.082 38.8497V48.2382H159.133Z" fill="#00365F"/>
<path d="M179.966 53C179.01 53 178.054 52.9399 177.098 52.8256C176.142 52.7084 175.33 52.531 174.663 52.2995V50.0268C175.384 50.2613 176.214 50.4417 177.152 50.5679C178.09 50.6942 178.983 50.7573 179.831 50.7573C181.129 50.7573 182.076 50.6852 182.672 50.5409C183.267 50.3966 183.564 50.0719 183.564 49.5669C183.564 49.1881 183.42 48.9205 183.132 48.7672C182.843 48.6139 182.293 48.5387 181.481 48.5387H178.018C175.691 48.5387 174.528 47.718 174.528 46.0766C174.528 45.5536 174.681 45.0665 174.988 44.6156C175.294 44.1647 175.781 43.822 176.449 43.5875C175.709 43.2267 175.162 42.7307 174.81 42.0994C174.459 41.4681 174.284 40.7105 174.284 39.8267C174.284 38.1853 174.774 36.9948 175.76 36.2553C176.743 35.5158 178.216 35.146 180.182 35.146C180.597 35.146 181.03 35.1791 181.481 35.2392C181.932 35.3023 182.284 35.3624 182.536 35.4136H187.244L187.163 37.3345H184.998C185.341 37.6231 185.594 37.9839 185.756 38.4168C185.918 38.8497 185.999 39.3186 185.999 39.8237C185.999 41.1945 185.585 42.2738 184.755 43.0584C183.925 43.843 182.672 44.2368 180.994 44.2368C180.705 44.2368 180.441 44.2218 180.194 44.1947C179.951 44.1677 179.683 44.1376 179.395 44.1015C178.854 44.1557 178.367 44.3 177.934 44.5344C177.501 44.7689 177.284 45.0846 177.284 45.4814C177.284 45.752 177.393 45.9474 177.609 46.0646C177.826 46.1819 178.186 46.239 178.691 46.239H182.29C183.57 46.239 184.556 46.5155 185.251 47.0657C185.945 47.6158 186.291 48.4125 186.291 49.4586C186.291 50.7213 185.744 51.6261 184.656 52.1793C183.564 52.7294 181.998 53.003 179.96 53.003L179.966 53ZM180.182 42.367C181.355 42.367 182.173 42.1685 182.632 41.7717C183.092 41.3749 183.321 40.6985 183.321 39.7425C183.321 38.7865 183.089 38.0921 182.632 37.6592C182.173 37.2263 181.355 37.0099 180.182 37.0099C179.082 37.0099 178.279 37.2173 177.774 37.6321C177.269 38.047 177.017 38.7505 177.017 39.7425C177.017 40.6624 177.254 41.3298 177.735 41.7447C178.213 42.1595 179.028 42.367 180.182 42.367Z" fill="#00365F"/>
<path d="M73.1337 23.1571V13.0742H69.418V11.541H78.7974V13.0742H75.0997V23.1571H73.1337Z" fill="#00365F"/>
<path d="M78.8335 23.1573V14.6076H80.6372L80.7455 15.5997C81.1543 15.3351 81.6413 15.0946 82.2065 14.8782C82.7717 14.6617 83.3308 14.5114 83.884 14.4272V15.9243C83.5473 15.9845 83.1835 16.0717 82.7927 16.1859C82.4019 16.3001 82.0321 16.4264 81.6834 16.5647C81.3347 16.703 81.0401 16.8443 80.7996 16.9886V23.1573H78.8335Z" fill="#00365F"/>
<path d="M87.4373 23.3377C86.8961 23.3377 86.3941 23.2415 85.9311 23.0491C85.4682 22.8567 85.0984 22.5651 84.8218 22.1743C84.5453 21.7835 84.407 21.2995 84.407 20.7223C84.407 19.9046 84.6866 19.2462 85.2457 18.7472C85.8049 18.2482 86.6677 17.9986 87.8341 17.9986H90.5758V17.6199C90.5758 17.211 90.5126 16.8863 90.3864 16.6458C90.2601 16.4053 90.0316 16.231 89.7009 16.1228C89.3703 16.0145 88.8863 15.9604 88.2489 15.9604C87.2388 15.9604 86.2949 16.1107 85.4171 16.4114V14.9503C85.8019 14.794 86.2708 14.6677 86.824 14.5715C87.3771 14.4753 87.9724 14.4272 88.6097 14.4272C89.8603 14.4272 90.8132 14.6798 91.4686 15.1848C92.124 15.6899 92.4516 16.5136 92.4516 17.6559V23.1573H90.7742L90.6479 22.2915C90.2992 22.6282 89.8693 22.8868 89.3582 23.0671C88.8472 23.2475 88.2069 23.3377 87.4373 23.3377ZM87.9603 21.9308C88.5496 21.9308 89.0636 21.8316 89.5025 21.6332C89.9414 21.4348 90.2992 21.1672 90.5758 20.8305V19.3334H87.8702C87.293 19.3334 86.8751 19.4446 86.6166 19.6671C86.358 19.8896 86.2288 20.2293 86.2288 20.6862C86.2288 21.1432 86.3791 21.4498 86.6797 21.6422C86.9803 21.8346 87.4072 21.9308 87.9603 21.9308Z" fill="#00365F"/>
<path d="M96.8347 23.1571L93.4617 14.6074H95.4999L97.8989 21.2452L100.298 14.6074H102.318L98.9631 23.1571H96.8347Z" fill="#00365F"/>
<path d="M107.585 23.3377C106.094 23.3377 104.939 22.9709 104.122 22.2374C103.304 21.5039 102.895 20.3796 102.895 18.8644C102.895 17.4936 103.244 16.4114 103.941 15.6177C104.639 14.8241 105.697 14.4272 107.116 14.4272C108.415 14.4272 109.392 14.7669 110.047 15.4464C110.702 16.1258 111.03 17.0006 111.03 18.0708V19.6581H104.771C104.867 20.4878 105.168 21.059 105.673 21.3716C106.178 21.6843 106.948 21.8406 107.982 21.8406C108.415 21.8406 108.86 21.7985 109.317 21.7143C109.774 21.6302 110.17 21.5219 110.507 21.3897V22.8327C110.122 23.001 109.68 23.1273 109.181 23.2114C108.682 23.2956 108.15 23.3377 107.585 23.3377ZM104.771 18.3774H109.299V17.7822C109.299 17.193 109.136 16.733 108.812 16.4023C108.487 16.0717 107.94 15.9063 107.17 15.9063C106.256 15.9063 105.628 16.1047 105.285 16.5015C104.943 16.8984 104.771 17.5237 104.771 18.3774Z" fill="#00365F"/>
<path d="M115.071 23.3376C114.373 23.3376 113.844 23.1662 113.483 22.8235C113.123 22.4808 112.942 21.9126 112.942 21.119V11H114.908V20.9386C114.908 21.2753 114.968 21.5038 115.089 21.624C115.209 21.7443 115.389 21.8044 115.63 21.8044C115.918 21.8044 116.195 21.7683 116.459 21.6962V23.1211C116.231 23.2053 116.011 23.2624 115.801 23.2925C115.591 23.3225 115.347 23.3376 115.071 23.3376Z" fill="#00365F"/>
</g>
<defs>
<linearGradient id="paint0_linear_2246_382" x1="39.8845" y1="36.3457" x2="57.1884" y2="36.3457" gradientUnits="userSpaceOnUse">
<stop stop-color="#98C3DA"/>
<stop offset="1" stop-color="#529EBF"/>
</linearGradient>
<linearGradient id="paint1_linear_2246_382" x1="52.2944" y1="43.4581" x2="52.3092" y2="43.4581" gradientUnits="userSpaceOnUse">
<stop stop-color="#98C3DA"/>
<stop offset="1" stop-color="#529EBF"/>
</linearGradient>
<linearGradient id="paint2_linear_2246_382" x1="28.4158" y1="29.7859" x2="52.2942" y2="29.7859" gradientUnits="userSpaceOnUse">
<stop stop-color="#98C3DA"/>
<stop offset="1" stop-color="#529EBF"/>
</linearGradient>
<linearGradient id="paint3_linear_2246_382" x1="12.9999" y1="25.0391" x2="37.7051" y2="25.0391" gradientUnits="userSpaceOnUse">
<stop stop-color="#98C3DA"/>
<stop offset="1" stop-color="#529EBF"/>
</linearGradient>
<clipPath id="clip0_2246_382">
<rect width="174.244" height="42" fill="white" transform="translate(13 11)"/>
</clipPath>
</defs>
</svg>
