<svg width="70" height="66" viewBox="0 0 70 66" fill="none" xmlns="http://www.w3.org/2000/svg">
<path d="M63.9506 15.5327V4.48825C64.7128 4.15467 65.2469 3.39591 65.2469 2.5101C65.2469 1.31665 64.2799 0.349609 63.0864 0.349609H42.3457C41.1522 0.349609 40.1852 1.31665 40.1852 2.5101C40.1852 3.39591 40.7193 4.15467 41.4815 4.48825V15.5336C38.0765 15.9613 35.4321 18.8685 35.4321 22.3875V26.7085H34.5679V24.1159C34.5679 21.7333 32.6295 19.7949 30.2469 19.7949H19.0123C16.6298 19.7949 14.6914 21.7333 14.6914 24.1159V26.7085H12.963C9.62716 26.7085 6.91358 29.4221 6.91358 32.7579V37.9431V44.8566H5.18519C2.32556 44.8566 0 47.1822 0 50.0418V56.9554C0 59.815 2.32556 62.1406 5.18519 62.1406H7.50556C8.47864 64.181 10.5562 65.5974 12.963 65.5974H36.2963C38.7031 65.5974 40.7806 64.181 41.7537 62.1406H63.0864C66.8984 62.1406 70 59.039 70 55.227V22.3866C70 18.8676 67.3556 15.9605 63.9506 15.5327ZM57.4691 15.4731V12.4484C57.4691 11.4943 56.6948 10.72 55.7407 10.72H49.6914C48.7373 10.72 47.963 11.4943 47.963 12.4484V15.4731H44.9383V4.6706H60.4938V15.4731H57.4691ZM54.0123 15.4731H51.4198V14.1768H54.0123V15.4731ZM18.1481 24.115C18.1481 23.6389 18.5362 23.2508 19.0123 23.2508H30.2469C30.7231 23.2508 31.1111 23.6389 31.1111 24.115V26.7076H18.1481V24.115ZM10.3704 32.757C10.3704 31.3276 11.5336 30.1644 12.963 30.1644H36.2963C37.7257 30.1644 38.8889 31.3276 38.8889 32.757V37.9422C38.8889 39.3716 37.7257 40.5348 36.2963 40.5348H34.5679V37.9422C34.5679 36.9881 33.7936 36.2138 32.8395 36.2138C31.8854 36.2138 31.1111 36.9881 31.1111 37.9422V40.5348H18.1481V37.9422C18.1481 36.9881 17.3738 36.2138 16.4198 36.2138C15.4657 36.2138 14.6914 36.9881 14.6914 37.9422V40.5348H12.963C11.5336 40.5348 10.3704 39.3716 10.3704 37.9422V32.757ZM3.45679 56.9545V50.041C3.45679 49.0878 4.23198 48.3126 5.18519 48.3126H6.91358V58.6829H5.18519C4.23198 58.6829 3.45679 57.9078 3.45679 56.9545ZM36.2963 62.1397H12.963C11.5336 62.1397 10.3704 60.9765 10.3704 59.5471V43.3996C11.1577 43.7755 12.034 43.9916 12.963 43.9916H14.6914V46.5842C14.6914 47.5382 15.4657 48.3126 16.4198 48.3126C17.3738 48.3126 18.1481 47.5382 18.1481 46.5842V43.9916H31.1111V46.5842C31.1111 47.5382 31.8854 48.3126 32.8395 48.3126C33.7936 48.3126 34.5679 47.5382 34.5679 46.5842V43.9916H36.2963C37.2253 43.9916 38.1016 43.7755 38.8889 43.3996V59.5471C38.8889 60.9765 37.7257 62.1397 36.2963 62.1397ZM42.3457 58.6829V48.3126H44.0741C45.0273 48.3126 45.8025 49.0878 45.8025 50.041V56.9545C45.8025 57.9078 45.0273 58.6829 44.0741 58.6829H42.3457ZM66.5432 55.2262C66.5432 57.1326 64.9928 58.6829 63.0864 58.6829H48.9568C49.1495 58.1411 49.2593 57.5612 49.2593 56.9545V25.8434C49.2593 24.8894 48.4849 24.115 47.5309 24.115C46.5768 24.115 45.8025 24.8894 45.8025 25.8434V45.1582C45.2606 44.9664 44.6807 44.8558 44.0741 44.8558H42.3457V37.9422V32.757C42.3457 30.3502 40.9293 28.2727 38.8889 27.2996V22.3866C38.8889 20.4802 40.4393 18.9299 42.3457 18.9299H63.0864C64.9928 18.9299 66.5432 20.4802 66.5432 22.3866V55.2262Z" fill="#E33149"/>
<path d="M57.9012 24.1152C56.9472 24.1152 56.1729 24.8896 56.1729 25.8436V49.177C56.1729 50.131 56.9472 50.9054 57.9012 50.9054C58.8553 50.9054 59.6296 50.131 59.6296 49.177V25.8436C59.6296 24.8896 58.8553 24.1152 57.9012 24.1152Z" fill="#E33149"/>
</svg>
