<svg width="70" height="54" viewBox="0 0 70 54" fill="none" xmlns="http://www.w3.org/2000/svg">
<path d="M30.4608 17.7291C25.6757 18.9595 21.5468 22.063 19.1268 26.2466C18.7167 26.9712 18.9491 27.8873 19.6737 28.2974C19.9061 28.4341 20.1659 28.5025 20.4257 28.5025C20.9452 28.5025 21.451 28.2291 21.7245 27.7505C23.7479 24.2642 27.2069 21.6802 31.2128 20.6412C32.0194 20.4361 32.4979 19.6158 32.2928 18.8091C32.0741 18.0025 31.2538 17.524 30.4608 17.7291Z" fill="#E33149"/>
<path d="M55.9863 7.65381C56.3691 7.65381 56.7519 7.50342 57.0527 7.21631L61.2227 3.04639C61.8105 2.4585 61.8105 1.50146 61.2227 0.913574C60.6348 0.325684 59.6777 0.325684 59.0898 0.913574L54.9199 5.0835C54.332 5.67139 54.332 6.62842 54.9199 7.21631C55.2207 7.50342 55.6035 7.65381 55.9863 7.65381Z" fill="#E33149"/>
<path d="M64.3262 20.1641H68.4961C69.3301 20.1641 70 19.4941 70 18.6602C70 17.8262 69.3301 17.1562 68.4961 17.1562H64.3262C63.4922 17.1562 62.8223 17.8262 62.8223 18.6602C62.8223 19.4941 63.4922 20.1641 64.3262 20.1641Z" fill="#E33149"/>
<path d="M12.9473 7.21631C13.2344 7.50342 13.6309 7.65381 14.0137 7.65381C14.3965 7.65381 14.7793 7.50342 15.0801 7.21631C15.668 6.62842 15.668 5.67139 15.0801 5.0835L10.9102 0.913574C10.3223 0.325684 9.36523 0.325684 8.77734 0.913574C8.18945 1.50146 8.18945 2.4585 8.77734 3.04639L12.9473 7.21631Z" fill="#E33149"/>
<path d="M1.50391 20.1641H5.67383C6.50781 20.1641 7.17773 19.4941 7.17773 18.6602C7.17773 17.8262 6.50781 17.1562 5.67383 17.1562H1.50391C0.669922 17.1562 0 17.8262 0 18.6602C0 19.4941 0.669922 20.1641 1.50391 20.1641Z" fill="#E33149"/>
<path d="M68.4961 50.5156C64.7227 50.5156 61.6602 47.4531 61.6602 43.6797C61.6602 42.8457 60.9902 42.1758 60.1562 42.1758H57.4902V36.8438H64.3262C65.1602 36.8438 65.8301 36.1738 65.8301 35.3398C65.8301 34.5059 65.1602 33.8359 64.3262 33.8359H61.6191C60.8672 20.4102 50.0117 9.60938 36.5039 8.85742V3.48438H39.1699C40.0039 3.48438 40.6738 2.81445 40.6738 1.98047C40.6738 1.14648 40.0039 0.476562 39.1699 0.476562H30.8301C29.9961 0.476562 29.3262 1.14648 29.3262 1.98047C29.3262 2.81445 29.9961 3.48438 30.8301 3.48438H33.4961V8.85742C19.9883 9.60938 9.14648 20.4102 8.38086 33.8359H5.67383C4.83984 33.8359 4.16992 34.5059 4.16992 35.3398C4.16992 36.1738 4.83984 36.8438 5.67383 36.8438H12.5098V42.1758H9.84375C9.00977 42.1758 8.33984 42.8457 8.33984 43.6797C8.33984 47.4531 5.27734 50.5156 1.50391 50.5156C0.669922 50.5156 0 51.1855 0 52.0195C0 52.8535 0.669922 53.5234 1.50391 53.5234H68.4961C69.3301 53.5234 70 52.8535 70 52.0195C70 51.1855 69.3301 50.5156 68.4961 50.5156ZM35 11.8242C47.5371 11.8242 57.8184 21.5723 58.5977 33.8359H11.4023C12.1816 21.5723 22.4629 11.8242 35 11.8242ZM15.5176 36.8438H54.4824V42.1758H15.5176V36.8438ZM8.58594 50.5156C9.9668 49.0801 10.9238 47.2344 11.2383 45.1836H58.7754C59.0898 47.2344 60.0469 49.0801 61.4277 50.5156H8.58594Z" fill="#E33149"/>
</svg>
