<svg width="70" height="70" viewBox="0 0 70 70" fill="none" xmlns="http://www.w3.org/2000/svg">
<path d="M30.4608 25.7291C25.6757 26.9595 21.5468 30.063 19.1268 34.2466C18.7167 34.9712 18.9491 35.8873 19.6737 36.2974C19.9061 36.4341 20.1659 36.5025 20.4257 36.5025C20.9452 36.5025 21.451 36.2291 21.7245 35.7505C23.7479 32.2642 27.2069 29.6802 31.2128 28.6412C32.0194 28.4361 32.4979 27.6158 32.2928 26.8091C32.0741 26.0025 31.2538 25.524 30.4608 25.7291Z" fill="#E33149"/>
<path d="M55.9863 15.6538C56.3691 15.6538 56.7519 15.5034 57.0527 15.2163L61.2227 11.0464C61.8105 10.4585 61.8105 9.50146 61.2227 8.91357C60.6348 8.32568 59.6777 8.32568 59.0898 8.91357L54.9199 13.0835C54.332 13.6714 54.332 14.6284 54.9199 15.2163C55.2207 15.5034 55.6035 15.6538 55.9863 15.6538Z" fill="#E33149"/>
<path d="M64.3262 28.1641H68.4961C69.3301 28.1641 70 27.4941 70 26.6602C70 25.8262 69.3301 25.1562 68.4961 25.1562H64.3262C63.4922 25.1562 62.8223 25.8262 62.8223 26.6602C62.8223 27.4941 63.4922 28.1641 64.3262 28.1641Z" fill="#E33149"/>
<path d="M12.9473 15.2163C13.2344 15.5034 13.6309 15.6538 14.0137 15.6538C14.3965 15.6538 14.7793 15.5034 15.0801 15.2163C15.668 14.6284 15.668 13.6714 15.0801 13.0835L10.9102 8.91357C10.3223 8.32568 9.36523 8.32568 8.77734 8.91357C8.18945 9.50146 8.18945 10.4585 8.77734 11.0464L12.9473 15.2163Z" fill="#E33149"/>
<path d="M1.50391 28.1641H5.67383C6.50781 28.1641 7.17773 27.4941 7.17773 26.6602C7.17773 25.8262 6.50781 25.1562 5.67383 25.1562H1.50391C0.669922 25.1562 0 25.8262 0 26.6602C0 27.4941 0.669922 28.1641 1.50391 28.1641Z" fill="#E33149"/>
<path d="M68.4961 58.5156C64.7227 58.5156 61.6602 55.4531 61.6602 51.6797C61.6602 50.8457 60.9902 50.1758 60.1562 50.1758H57.4902V44.8438H64.3262C65.1602 44.8438 65.8301 44.1738 65.8301 43.3398C65.8301 42.5059 65.1602 41.8359 64.3262 41.8359H61.6191C60.8672 28.4102 50.0117 17.6094 36.5039 16.8574V11.4844H39.1699C40.0039 11.4844 40.6738 10.8145 40.6738 9.98047C40.6738 9.14648 40.0039 8.47656 39.1699 8.47656H30.8301C29.9961 8.47656 29.3262 9.14648 29.3262 9.98047C29.3262 10.8145 29.9961 11.4844 30.8301 11.4844H33.4961V16.8574C19.9883 17.6094 9.14648 28.4102 8.38086 41.8359H5.67383C4.83984 41.8359 4.16992 42.5059 4.16992 43.3398C4.16992 44.1738 4.83984 44.8438 5.67383 44.8438H12.5098V50.1758H9.84375C9.00977 50.1758 8.33984 50.8457 8.33984 51.6797C8.33984 55.4531 5.27734 58.5156 1.50391 58.5156C0.669922 58.5156 0 59.1855 0 60.0195C0 60.8535 0.669922 61.5234 1.50391 61.5234H68.4961C69.3301 61.5234 70 60.8535 70 60.0195C70 59.1855 69.3301 58.5156 68.4961 58.5156ZM35 19.8242C47.5371 19.8242 57.8184 29.5723 58.5977 41.8359H11.4023C12.1816 29.5723 22.4629 19.8242 35 19.8242ZM15.5176 44.8438H54.4824V50.1758H15.5176V44.8438ZM8.58594 58.5156C9.9668 57.0801 10.9238 55.2344 11.2383 53.1836H58.7754C59.0898 55.2344 60.0469 57.0801 61.4277 58.5156H8.58594Z" fill="#E33149"/>
</svg>
