<svg width="70" height="70" viewBox="0 0 70 70" fill="none" xmlns="http://www.w3.org/2000/svg">
<path d="M69.6038 15.6966C69.2645 15.431 68.8214 15.3368 68.403 15.4419C63.49 16.6668 52.8591 11.5286 48.519 8.63496C45.3175 6.50022 42.0206 8.09886 39.8678 9.99936L39.5719 8.98633C40.3266 8.01857 40.7383 6.82743 40.7425 5.60008C40.7425 2.50724 38.2353 0 35.1425 0C32.0496 0 29.5424 2.50724 29.5424 5.60008C29.5472 6.82743 29.9589 8.01857 30.713 8.98633L30.4178 10.0006C28.2631 8.10067 24.9638 6.50324 21.7659 8.63496C17.4258 11.5298 6.79131 16.6722 1.88249 15.4419C1.46411 15.3374 1.02099 15.4316 0.681093 15.6966C0.341805 15.9617 0.143182 16.3692 0.142578 16.8002C0.142578 19.6003 2.04429 24.8043 9.11985 25.1786C10.535 27.3949 13.7117 30.3356 18.1979 29.4656C20.2506 30.2643 22.4384 30.661 24.6414 30.6338C25.6629 33.1109 28.2879 35.3941 31.7659 37.0193L32.4559 48.0528C32.1239 47.9321 31.7955 47.8331 31.4628 47.6997C27.7524 46.2163 25.882 43.7423 26.0052 42.169C26.1356 40.5112 28.472 39.736 29.8539 39.4215C30.6079 39.2494 31.0794 38.499 30.908 37.7456C30.7359 36.9915 29.9855 36.5194 29.2315 36.6909C24.2659 37.8223 23.3301 40.4714 23.2142 41.9493C22.9691 45.0705 25.9334 48.5044 30.4226 50.2999C31.167 50.5975 31.9108 50.8583 32.6467 51.104L33.7455 68.6873C33.7913 69.425 34.4035 69.9998 35.1425 69.9998C35.882 69.9998 36.4936 69.425 36.5401 68.6873L37.5453 52.6031C41.4839 53.8105 43.5426 54.8006 43.5426 57.4002C43.5426 61.8073 39.1868 62.9936 38.9966 63.0431C38.2486 63.2333 37.7952 63.994 37.9842 64.7426C38.1737 65.4918 38.9332 65.9458 39.6824 65.758C41.9862 65.1821 46.3426 62.6942 46.3426 57.4002C46.3426 52.5674 42.2705 51.0787 37.7246 49.7294L38.3917 39.0587C38.6422 39.1015 38.8909 39.1492 39.1445 39.1855C42.1619 39.6171 44.0256 40.6428 44.2592 42.0006C44.5272 43.56 42.7759 45.711 40.0941 47.1159C39.4083 47.4745 39.1433 48.3209 39.5025 49.0061C39.8611 49.6913 40.7075 49.9552 41.3927 49.5959C45.3018 47.5493 47.5096 44.3816 47.0188 41.5261C46.7519 39.9781 45.4268 37.2554 39.5411 36.4144C39.2139 36.3673 38.8897 36.3112 38.5673 36.2514L38.9966 29.3793C39.0056 29.3799 39.0189 29.3799 39.0274 29.3799C40.1913 29.8321 41.3976 30.1665 42.6279 30.379C42.0586 31.2737 41.1591 32.1691 39.9456 33.0094C39.3105 33.4501 39.153 34.3213 39.5925 34.957C40.0326 35.5921 40.9037 35.7509 41.5394 35.3114C43.5504 33.9198 44.9354 32.3115 45.623 30.6441C45.6562 30.6441 45.6924 30.6483 45.7256 30.6483C47.902 30.661 50.0609 30.2595 52.0876 29.4656C56.5774 30.3392 59.7512 27.393 61.1657 25.1786C68.2406 24.8043 70.1429 19.6003 70.1429 16.8002C70.1423 16.3692 69.9437 15.9617 69.6038 15.6966ZM32.6087 12.4879L33.0983 10.8096C33.769 11.0728 34.4856 11.2008 35.2059 11.1869C35.3616 11.1845 37.2223 10.9297 37.1872 10.8096L37.6769 12.4879L35.1425 15.8669L32.6087 12.4879ZM35.1425 2.80004C36.2853 2.79762 37.3146 3.49129 37.7409 4.55203C38.1671 5.61215 37.9051 6.82502 37.0786 7.61468C37.0713 7.62072 37.0629 7.62434 37.0562 7.63098C35.9738 8.62349 34.3117 8.62349 33.2293 7.63098C33.2226 7.62434 33.2136 7.62072 33.2063 7.61468C32.3805 6.82502 32.1178 5.61215 32.5447 4.55142C32.9709 3.49129 33.9996 2.79762 35.1425 2.80004ZM27.6401 30.3664C28.8698 30.1557 30.0761 29.826 31.2412 29.3811C31.2539 29.3805 31.2744 29.3799 31.2889 29.3793L31.563 33.7677C29.7978 32.7685 28.4122 31.5919 27.6401 30.3664ZM35.1425 46.156L34.642 38.1416C34.9656 38.2461 35.2934 38.3451 35.6248 38.438L35.1425 46.156ZM34.4518 35.1073L33.9996 27.8724L33.763 24.0889L34.6082 22.3997H35.6774L36.522 24.0889L36.2859 27.8724L35.8047 35.5692C35.3429 35.4267 34.8919 35.2728 34.4518 35.1073ZM60.3428 22.3997C60.3066 22.3997 56.6952 22.3725 54.3322 20.0102C53.7858 19.4632 52.8996 19.4632 52.3526 20.0102C51.8063 20.5566 51.8063 21.4434 52.3526 21.9898C54.0702 23.7074 56.2067 24.5019 57.841 24.8737C56.7235 26.048 54.8683 27.2868 52.2826 26.6414C52.215 26.6318 52.1474 26.6269 52.0797 26.6275C52.0345 26.6161 51.9886 26.607 51.9427 26.5998C51.9234 26.5998 49.9963 26.5768 48.9947 24.5737C48.6494 23.8824 47.8084 23.6017 47.1166 23.9476C46.4247 24.2936 46.1446 25.1345 46.4905 25.8264C46.8377 26.5297 47.3092 27.1648 47.8827 27.7009C47.2935 27.7849 46.7006 27.8344 46.106 27.8495C46.0051 26.5466 45.402 24.8574 43.5359 23.1682C43.5365 23.1447 43.5426 23.1236 43.5426 23.1C43.5426 21.9403 42.6026 20.9997 41.4428 20.9997C40.2831 20.9997 39.3425 21.9403 39.3425 23.1C39.3425 24.2598 40.2831 25.1997 41.4428 25.1997C41.4911 25.1997 41.5364 25.1889 41.5841 25.1859C42.4939 25.9894 43.0542 26.8159 43.2371 27.6557C42.1142 27.4721 41.0154 27.1661 39.9595 26.7435C39.7567 26.6438 39.6546 26.6034 39.1717 26.5829L39.3401 23.8873C39.3552 23.6409 39.3057 23.3946 39.1952 23.1737L37.7952 20.3736C37.5579 19.8997 37.0731 19.5997 36.5425 19.6003H33.7424C33.2124 19.5997 32.7276 19.8997 32.4903 20.3736L31.0903 23.1737C30.9798 23.3946 30.9297 23.6409 30.9454 23.8873L31.1139 26.5811C30.6448 26.5974 30.5651 26.6275 30.4226 26.7C29.3341 27.1383 28.2015 27.4564 27.0442 27.649C27.2301 26.8074 27.7789 25.9834 28.6833 25.184C28.737 25.1883 28.7883 25.1997 28.8427 25.1997C30.0024 25.1997 30.9424 24.2598 30.9424 23.1C30.9424 21.9403 30.0024 20.9997 28.8427 20.9997C27.6829 20.9997 26.7429 21.9403 26.7429 23.1C26.7429 23.1181 26.7478 23.135 26.7478 23.1525C24.9095 24.8097 24.2943 26.4839 24.188 27.8489C23.5897 27.8356 22.9921 27.7873 22.3992 27.704C22.9739 27.1673 23.4467 26.5309 23.795 25.8264C24.1409 25.1345 23.8602 24.2936 23.1689 23.9476C22.4771 23.6017 21.6361 23.8824 21.2902 24.5737C20.7372 25.731 19.6076 26.5038 18.3289 26.5998C18.2837 26.607 18.2384 26.6167 18.1943 26.6281C18.1303 26.6281 18.0663 26.633 18.0029 26.6414C15.4178 27.2868 13.5614 26.0468 12.4445 24.8731C14.0794 24.5019 16.2153 23.7074 17.9323 21.9898C18.4793 21.4434 18.4793 20.5566 17.9323 20.0102C17.3859 19.4632 16.4997 19.4632 15.9527 20.0102C13.6332 22.3291 10.0381 22.3991 9.94151 22.3997C5.37016 22.3997 3.78359 20.0772 3.233 18.4097C9.5986 18.5341 19.412 13.5691 23.3193 10.9647C26.3578 8.9332 29.6843 13.2564 29.8231 13.4399L29.9481 13.6072L29.9487 13.6084L34.0232 19.04C34.287 19.3926 34.7024 19.6003 35.1425 19.6003C35.5832 19.6003 35.9979 19.3926 36.2624 19.04L40.3368 13.6084V13.6072L40.4624 13.4399C40.4968 13.3953 43.9054 8.92414 46.9663 10.9647C50.8735 13.5691 60.673 18.6011 67.0513 18.4097C66.5007 20.0796 64.9123 22.3997 60.3428 22.3997Z" fill="#E33149"/>
</svg>
