<svg width="70" height="70" viewBox="0 0 70 70" fill="none" xmlns="http://www.w3.org/2000/svg">
<path d="M63.9506 18.5327V7.48825C64.7128 7.15467 65.2469 6.39591 65.2469 5.5101C65.2469 4.31665 64.2799 3.34961 63.0864 3.34961H42.3457C41.1522 3.34961 40.1852 4.31665 40.1852 5.5101C40.1852 6.39591 40.7193 7.15467 41.4815 7.48825V18.5336C38.0765 18.9613 35.4321 21.8685 35.4321 25.3875V29.7085H34.5679V27.1159C34.5679 24.7333 32.6295 22.7949 30.2469 22.7949H19.0123C16.6298 22.7949 14.6914 24.7333 14.6914 27.1159V29.7085H12.963C9.62716 29.7085 6.91358 32.4221 6.91358 35.7579V40.9431V47.8566H5.18519C2.32556 47.8566 0 50.1822 0 53.0418V59.9554C0 62.815 2.32556 65.1406 5.18519 65.1406H7.50556C8.47864 67.181 10.5562 68.5974 12.963 68.5974H36.2963C38.7031 68.5974 40.7806 67.181 41.7537 65.1406H63.0864C66.8984 65.1406 70 62.039 70 58.227V25.3866C70 21.8676 67.3556 18.9605 63.9506 18.5327ZM57.4691 18.4731V15.4484C57.4691 14.4943 56.6948 13.72 55.7407 13.72H49.6914C48.7373 13.72 47.963 14.4943 47.963 15.4484V18.4731H44.9383V7.6706H60.4938V18.4731H57.4691ZM54.0123 18.4731H51.4198V17.1768H54.0123V18.4731ZM18.1481 27.115C18.1481 26.6389 18.5362 26.2508 19.0123 26.2508H30.2469C30.7231 26.2508 31.1111 26.6389 31.1111 27.115V29.7076H18.1481V27.115ZM10.3704 35.757C10.3704 34.3276 11.5336 33.1644 12.963 33.1644H36.2963C37.7257 33.1644 38.8889 34.3276 38.8889 35.757V40.9422C38.8889 42.3716 37.7257 43.5348 36.2963 43.5348H34.5679V40.9422C34.5679 39.9881 33.7936 39.2138 32.8395 39.2138C31.8854 39.2138 31.1111 39.9881 31.1111 40.9422V43.5348H18.1481V40.9422C18.1481 39.9881 17.3738 39.2138 16.4198 39.2138C15.4657 39.2138 14.6914 39.9881 14.6914 40.9422V43.5348H12.963C11.5336 43.5348 10.3704 42.3716 10.3704 40.9422V35.757ZM3.45679 59.9545V53.041C3.45679 52.0878 4.23198 51.3126 5.18519 51.3126H6.91358V61.6829H5.18519C4.23198 61.6829 3.45679 60.9078 3.45679 59.9545ZM36.2963 65.1397H12.963C11.5336 65.1397 10.3704 63.9765 10.3704 62.5471V46.3996C11.1577 46.7755 12.034 46.9916 12.963 46.9916H14.6914V49.5842C14.6914 50.5382 15.4657 51.3126 16.4198 51.3126C17.3738 51.3126 18.1481 50.5382 18.1481 49.5842V46.9916H31.1111V49.5842C31.1111 50.5382 31.8854 51.3126 32.8395 51.3126C33.7936 51.3126 34.5679 50.5382 34.5679 49.5842V46.9916H36.2963C37.2253 46.9916 38.1016 46.7755 38.8889 46.3996V62.5471C38.8889 63.9765 37.7257 65.1397 36.2963 65.1397ZM42.3457 61.6829V51.3126H44.0741C45.0273 51.3126 45.8025 52.0878 45.8025 53.041V59.9545C45.8025 60.9078 45.0273 61.6829 44.0741 61.6829H42.3457ZM66.5432 58.2262C66.5432 60.1326 64.9928 61.6829 63.0864 61.6829H48.9568C49.1495 61.1411 49.2593 60.5612 49.2593 59.9545V28.8434C49.2593 27.8894 48.4849 27.115 47.5309 27.115C46.5768 27.115 45.8025 27.8894 45.8025 28.8434V48.1582C45.2606 47.9664 44.6807 47.8558 44.0741 47.8558H42.3457V40.9422V35.757C42.3457 33.3502 40.9293 31.2727 38.8889 30.2996V25.3866C38.8889 23.4802 40.4393 21.9299 42.3457 21.9299H63.0864C64.9928 21.9299 66.5432 23.4802 66.5432 25.3866V58.2262Z" fill="#E33149"/>
<path d="M57.9012 27.1152C56.9472 27.1152 56.1729 27.8896 56.1729 28.8436V52.177C56.1729 53.131 56.9472 53.9054 57.9012 53.9054C58.8553 53.9054 59.6296 53.131 59.6296 52.177V28.8436C59.6296 27.8896 58.8553 27.1152 57.9012 27.1152Z" fill="#E33149"/>
</svg>
