<svg width="70" height="70" viewBox="0 0 70 70" fill="none" xmlns="http://www.w3.org/2000/svg">
<g clip-path="url(#clip0_1920_185)">
<path d="M65.4886 24.6695C66.7293 22.6394 67.7238 20.2298 67.8366 17.6255C67.9289 15.421 67.1086 13.237 65.6014 11.6375C64.1044 10.0584 62.0947 9.17665 59.9313 9.15614C58.0856 9.13563 56.3323 9.74058 54.9071 10.8685C52.2412 8.83828 49.2985 7.23875 46.1507 6.10062C42.5825 4.81895 38.8298 4.16273 35.0052 4.16273C34.2157 4.16273 33.416 4.19349 32.6264 4.24476C32.6162 4.24476 32.6162 4.24476 32.6059 4.24476C28.8224 4.5216 25.1004 5.44441 21.6553 6.97216C21.4195 5.30086 20.6607 3.71158 19.4918 2.47092C17.9948 0.902148 15.9852 0.0203552 13.8217 -0.000151633C11.6685 -0.0309119 9.6383 0.799614 8.11055 2.31712C6.58279 3.82437 5.73176 5.84429 5.73176 7.99751C5.73176 11.4119 7.28002 14.5084 9.00259 16.8872C7.01343 19.4403 5.42415 22.2497 4.26552 25.254C2.08154 30.3499 2.08154 35.4049 2.08154 37.0762C2.08154 45.8736 5.50618 54.1378 11.7197 60.3514C17.9333 66.565 26.2078 69.9896 34.995 69.9896C43.7924 69.9896 52.0566 66.565 58.2702 60.3514C64.4838 54.1378 67.9084 45.8633 67.9084 37.0762C67.9187 32.78 67.0984 28.6068 65.4886 24.6695ZM64.9042 32.3596L64.1249 32.8825C63.4277 33.3542 62.6074 33.6003 61.7666 33.6003C60.1056 33.6003 58.5881 32.6262 57.9113 31.1087L56.3426 27.6225C56.9065 28.2787 57.4499 28.8529 57.9216 29.3246C58.4548 29.8475 59.152 30.1141 59.8492 30.1141C60.5465 30.1141 61.2437 29.8475 61.7769 29.3246C62.3306 28.7812 62.9765 28.0839 63.643 27.2739C64.2069 28.9247 64.6273 30.6268 64.9042 32.3596ZM59.9005 11.8015C61.336 11.822 62.6689 12.4065 63.6738 13.4626C64.6991 14.5392 65.2528 16.0157 65.1913 17.5127C65.0067 21.9216 61.4283 25.9205 59.9005 27.438C59.8697 27.4687 59.8185 27.4687 59.7775 27.438C58.1882 25.8589 54.4867 21.7063 54.4867 17.1538C54.4867 15.7081 55.0506 14.3649 56.076 13.3498C57.0911 12.3552 58.424 11.8015 59.839 11.8015C59.8595 11.8015 59.88 11.8015 59.9005 11.8015ZM32.0728 9.39197L34.3183 11.9758C34.954 12.7038 34.9129 13.8214 34.2362 14.4982L29.6119 19.1224C28.7712 19.9632 27.6535 20.4246 26.4641 20.4246H21.7783C20.0558 20.4246 18.405 20.9476 16.99 21.9216L13.35 24.444C13.268 24.5055 13.1757 24.5055 13.0834 24.4645C12.9912 24.4132 12.9399 24.3414 12.9399 24.2286V20.8348C13.1962 20.9065 13.4628 20.9476 13.7294 20.9476C14.4266 20.9476 15.1239 20.681 15.6571 20.158C17.6155 18.2099 20.8145 14.4469 21.5733 9.9354C24.557 8.45891 27.7971 7.48484 31.1192 7.05419C31.1705 7.90522 31.4986 8.7255 32.0728 9.39197ZM9.97667 4.19349C10.9918 3.19891 12.3247 2.64523 13.7397 2.64523C13.7602 2.64523 13.7807 2.64523 13.8012 2.64523C15.2367 2.66573 16.5696 3.25018 17.5744 4.30628C18.5998 5.38289 19.1535 6.85938 19.0919 8.35637C18.9074 12.7653 15.3289 16.7642 13.8012 18.2817C13.7704 18.3124 13.7192 18.3124 13.6781 18.2817C12.0889 16.7026 8.38739 12.5398 8.38739 7.99751C8.38739 6.56203 8.95132 5.20858 9.97667 4.19349ZM34.995 67.3442C18.3024 67.3442 4.72692 53.7687 4.72692 37.0762C4.72692 35.5484 4.72692 30.8831 6.70583 26.2793C6.70583 26.2691 6.70583 26.2691 6.71608 26.2588C6.71608 26.2486 6.72634 26.2383 6.72634 26.2281C7.62864 23.8698 8.82828 21.6345 10.2945 19.5736V24.2286C10.2945 25.3155 10.8892 26.2998 11.853 26.8125C12.2837 27.0381 12.7451 27.1406 13.2065 27.1406C13.7909 27.1406 14.3651 26.9663 14.8675 26.6177L18.5075 24.0954C19.4713 23.4289 20.6094 23.07 21.7783 23.07H26.4641C28.361 23.07 30.1451 22.3318 31.4883 20.9886L36.1126 16.3643C37.7839 14.693 37.8762 11.9963 36.3177 10.2225L34.0722 7.63864C33.8671 7.41306 33.7646 7.11571 33.7543 6.82862C34.1645 6.80811 34.5848 6.79786 34.995 6.79786C41.5161 6.79786 47.904 8.93056 53.1127 12.8166C52.2822 14.0983 51.8413 15.585 51.8413 17.1435C51.8413 18.5585 52.1079 19.9222 52.5488 21.2039C52.2617 23.4494 52.5898 25.7154 53.5229 27.7763L55.5018 32.175C56.6092 34.6359 59.07 36.2354 61.7769 36.2354C62.997 36.2354 64.1762 35.9175 65.222 35.3023C65.2528 35.8868 65.2733 36.4712 65.2733 37.0659C65.263 53.7687 51.6875 67.3442 34.995 67.3442Z" fill="#E33149"/>
<path d="M50.2315 37.9166L45.0842 34.2766C46.0378 32.4823 46.7453 30.4419 46.8376 28.2681C46.9299 26.0637 46.1096 23.8797 44.6023 22.2802C43.1053 20.7011 41.0957 19.8193 38.9322 19.7988C38.9014 19.7988 38.8707 19.7988 38.8399 19.7988C36.7175 19.7988 34.7283 20.6191 33.2108 22.1161C32.1342 23.1825 31.396 24.5051 31.0576 25.9406C28.7198 25.9201 26.4743 27.048 25.0901 28.9961L21.6757 33.8152C20.312 35.7531 20.107 38.2447 21.1118 40.3467C20.7016 41.3207 20.4761 42.3768 20.4761 43.4739C20.4761 47.9854 23.1932 51.9433 25.408 54.4246L25.1926 60.2998C25.1311 61.8378 25.8489 63.2835 27.0998 64.1756C27.8893 64.7395 28.8121 65.0163 29.7349 65.0163C30.6475 65.0163 31.5498 64.7498 32.329 64.2063L41.6699 57.7159C43.1566 56.6803 44.4383 55.4192 45.4841 53.9427L48.3038 49.9541L51.5029 45.4323C52.3334 44.2532 52.6615 42.828 52.4154 41.413C52.1899 39.9878 51.4106 38.7574 50.2315 37.9166ZM38.8399 22.4545C38.8604 22.4545 38.8809 22.4545 38.9014 22.4545C40.3369 22.475 41.6699 23.0594 42.6747 24.1155C43.7 25.1921 44.2537 26.6686 44.1922 28.1656C44.0076 32.5746 40.4292 36.5734 38.9014 38.0909C38.8707 38.1217 38.8194 38.1217 38.7784 38.0909C37.1891 36.5119 33.4876 32.349 33.4876 27.8067C33.4876 26.361 34.0516 25.0178 35.0769 24.0027C36.092 22.9979 37.425 22.4545 38.8399 22.4545ZM24.721 39.6699C25.7361 38.6753 27.069 38.1217 28.484 38.1217C28.5045 38.1217 28.525 38.1217 28.5455 38.1217C29.981 38.1422 31.3139 38.7266 32.3188 39.7827C33.3441 40.8593 33.8978 42.3358 33.8363 43.8328C33.6517 48.2418 30.0733 52.2406 28.5455 53.7581C28.5147 53.7889 28.4635 53.7889 28.4327 53.7581C26.8434 52.1791 23.142 48.0265 23.142 43.4739C23.142 42.0282 23.7059 40.6748 24.721 39.6699ZM49.3497 43.9046L46.1506 48.4263L43.3309 52.4149C42.4696 53.6351 41.4033 54.6912 40.1729 55.5422L30.832 62.0326C30.1758 62.494 29.294 62.4838 28.648 62.0224C28.1251 61.6532 27.8278 61.0483 27.8483 60.4023L27.9918 56.383C28.1559 56.4137 28.3199 56.424 28.484 56.424C29.1812 56.424 29.8784 56.1574 30.4116 55.6345C32.5853 53.4813 36.2663 49.0928 36.4816 43.9353C36.5739 41.7309 35.7536 39.5469 34.2464 37.9474C32.7494 36.3683 30.7397 35.4865 28.5763 35.466C26.5461 35.4455 24.6287 36.1735 23.1317 37.5167C23.142 36.758 23.3675 35.989 23.8289 35.343L27.2433 30.5239C28.0841 29.3345 29.4376 28.627 30.8628 28.586C31.2114 33.5897 34.7488 37.8243 36.9123 39.9673C37.4455 40.4902 38.1427 40.7568 38.8399 40.7568C39.5372 40.7568 40.2344 40.4902 40.7676 39.9673C41.6083 39.1265 42.6849 37.9576 43.6898 36.5324L48.7037 40.0801C49.2984 40.5005 49.6983 41.1362 49.8213 41.8539C49.9444 42.5819 49.7803 43.2996 49.3497 43.9046Z" fill="#E33149"/>
<path d="M59.8494 22.0035C62.382 22.0035 64.4429 19.9425 64.4429 17.4099C64.4429 14.8773 62.382 12.8164 59.8494 12.8164C57.3168 12.8164 55.2559 14.8773 55.2559 17.4099C55.2559 19.9425 57.3168 22.0035 59.8494 22.0035ZM59.8494 15.4618C60.9157 15.4618 61.7873 16.3333 61.7873 17.3997C61.7873 18.466 60.9157 19.3376 59.8494 19.3376C58.783 19.3376 57.9115 18.466 57.9115 17.3997C57.9012 16.3333 58.7728 15.4618 59.8494 15.4618Z" fill="#E33149"/>
<path d="M33.0777 43.7205C33.0777 41.1879 31.0167 39.127 28.4841 39.127C25.9516 39.127 23.8906 41.1879 23.8906 43.7205C23.8906 46.2531 25.9516 48.314 28.4841 48.314C31.027 48.314 33.0777 46.2531 33.0777 43.7205ZM26.5463 43.7205C26.5463 42.6541 27.4178 41.7826 28.4841 41.7826C29.5505 41.7826 30.422 42.6541 30.422 43.7205C30.422 44.7868 29.5505 45.6584 28.4841 45.6584C27.4178 45.6686 26.5463 44.7971 26.5463 43.7205Z" fill="#E33149"/>
<path d="M38.8401 32.647C41.3727 32.647 43.4336 30.5861 43.4336 28.0535C43.4336 25.5209 41.3727 23.46 38.8401 23.46C36.3075 23.46 34.2466 25.5209 34.2466 28.0535C34.2466 30.5861 36.3075 32.647 38.8401 32.647ZM38.8401 26.1156C39.9065 26.1156 40.778 26.9871 40.778 28.0535C40.778 29.1198 39.9065 29.9914 38.8401 29.9914C37.7738 29.9914 36.9022 29.1198 36.9022 28.0535C36.9022 26.9871 37.7738 26.1156 38.8401 26.1156Z" fill="#E33149"/>
<path d="M18.333 8.25368C18.333 5.72109 16.2721 3.66016 13.7395 3.66016C11.2069 3.66016 9.146 5.72109 9.146 8.25368C9.146 10.7863 11.2069 12.8472 13.7395 12.8472C16.2721 12.8472 18.333 10.7863 18.333 8.25368ZM11.7914 8.25368C11.7914 7.18733 12.6629 6.31579 13.7293 6.31579C14.7956 6.31579 15.6672 7.18733 15.6672 8.25368C15.6672 9.32004 14.7956 10.1916 13.7293 10.1916C12.6629 10.1916 11.7914 9.32004 11.7914 8.25368Z" fill="#E33149"/>
</g>
<defs>
<clipPath id="clip0_1920_185">
<rect width="70" height="70" fill="white"/>
</clipPath>
</defs>
</svg>
