<svg width="66" height="70" viewBox="0 0 66 70" fill="none" xmlns="http://www.w3.org/2000/svg">
<path d="M63.4886 24.6695C64.7293 22.6394 65.7238 20.2298 65.8366 17.6255C65.9289 15.421 65.1086 13.237 63.6014 11.6375C62.1044 10.0584 60.0947 9.17665 57.9313 9.15614C56.0856 9.13563 54.3323 9.74058 52.9071 10.8685C50.2412 8.83828 47.2985 7.23875 44.1507 6.10062C40.5825 4.81895 36.8298 4.16273 33.0052 4.16273C32.2157 4.16273 31.416 4.19349 30.6264 4.24476C30.6162 4.24476 30.6162 4.24476 30.6059 4.24476C26.8224 4.5216 23.1004 5.44441 19.6553 6.97216C19.4195 5.30086 18.6607 3.71158 17.4918 2.47092C15.9948 0.902148 13.9852 0.0203552 11.8217 -0.000151633C9.66848 -0.0309119 7.6383 0.799614 6.11055 2.31712C4.58279 3.82437 3.73176 5.84429 3.73176 7.99751C3.73176 11.4119 5.28002 14.5084 7.00259 16.8872C5.01343 19.4403 3.42415 22.2497 2.26552 25.254C0.081543 30.3499 0.081543 35.4049 0.081543 37.0762C0.081543 45.8736 3.50618 54.1378 9.71974 60.3514C15.9333 66.565 24.2078 69.9896 32.995 69.9896C41.7924 69.9896 50.0566 66.565 56.2702 60.3514C62.4838 54.1378 65.9084 45.8633 65.9084 37.0762C65.9187 32.78 65.0984 28.6068 63.4886 24.6695ZM62.9042 32.3596L62.1249 32.8825C61.4277 33.3542 60.6074 33.6003 59.7666 33.6003C58.1056 33.6003 56.5881 32.6262 55.9113 31.1087L54.3426 27.6225C54.9065 28.2787 55.4499 28.8529 55.9216 29.3246C56.4548 29.8475 57.152 30.1141 57.8492 30.1141C58.5465 30.1141 59.2437 29.8475 59.7769 29.3246C60.3306 28.7812 60.9765 28.0839 61.643 27.2739C62.2069 28.9247 62.6273 30.6268 62.9042 32.3596ZM57.9005 11.8015C59.336 11.822 60.6689 12.4065 61.6738 13.4626C62.6991 14.5392 63.2528 16.0157 63.1913 17.5127C63.0067 21.9216 59.4283 25.9205 57.9005 27.438C57.8697 27.4687 57.8185 27.4687 57.7775 27.438C56.1882 25.8589 52.4867 21.7063 52.4867 17.1538C52.4867 15.7081 53.0506 14.3649 54.076 13.3498C55.0911 12.3552 56.424 11.8015 57.839 11.8015C57.8595 11.8015 57.88 11.8015 57.9005 11.8015ZM30.0728 9.39197L32.3183 11.9758C32.954 12.7038 32.9129 13.8214 32.2362 14.4982L27.6119 19.1224C26.7712 19.9632 25.6535 20.4246 24.4641 20.4246H19.7783C18.0558 20.4246 16.405 20.9476 14.99 21.9216L11.35 24.444C11.268 24.5055 11.1757 24.5055 11.0834 24.4645C10.9912 24.4132 10.9399 24.3414 10.9399 24.2286V20.8348C11.1962 20.9065 11.4628 20.9476 11.7294 20.9476C12.4266 20.9476 13.1239 20.681 13.6571 20.158C15.6155 18.2099 18.8145 14.4469 19.5733 9.9354C22.557 8.45891 25.7971 7.48484 29.1192 7.05419C29.1705 7.90522 29.4986 8.7255 30.0728 9.39197ZM7.97667 4.19349C8.99175 3.19891 10.3247 2.64523 11.7397 2.64523C11.7602 2.64523 11.7807 2.64523 11.8012 2.64523C13.2367 2.66573 14.5696 3.25018 15.5744 4.30628C16.5998 5.38289 17.1535 6.85938 17.0919 8.35637C16.9074 12.7653 13.3289 16.7642 11.8012 18.2817C11.7704 18.3124 11.7192 18.3124 11.6781 18.2817C10.0889 16.7026 6.38739 12.5398 6.38739 7.99751C6.38739 6.56203 6.95132 5.20858 7.97667 4.19349ZM32.995 67.3442C16.3024 67.3442 2.72692 53.7687 2.72692 37.0762C2.72692 35.5484 2.72692 30.8831 4.70583 26.2793C4.70583 26.2691 4.70583 26.2691 4.71608 26.2588C4.71608 26.2486 4.72634 26.2383 4.72634 26.2281C5.62864 23.8698 6.82828 21.6345 8.29452 19.5736V24.2286C8.29452 25.3155 8.88922 26.2998 9.85304 26.8125C10.2837 27.0381 10.7451 27.1406 11.2065 27.1406C11.7909 27.1406 12.3651 26.9663 12.8675 26.6177L16.5075 24.0954C17.4713 23.4289 18.6094 23.07 19.7783 23.07H24.4641C26.361 23.07 28.1451 22.3318 29.4883 20.9886L34.1126 16.3643C35.7839 14.693 35.8762 11.9963 34.3177 10.2225L32.0722 7.63864C31.8671 7.41306 31.7646 7.11571 31.7543 6.82862C32.1645 6.80811 32.5848 6.79786 32.995 6.79786C39.5161 6.79786 45.904 8.93056 51.1127 12.8166C50.2822 14.0983 49.8413 15.585 49.8413 17.1435C49.8413 18.5585 50.1079 19.9222 50.5488 21.2039C50.2617 23.4494 50.5898 25.7154 51.5229 27.7763L53.5018 32.175C54.6092 34.6359 57.07 36.2354 59.7769 36.2354C60.997 36.2354 62.1762 35.9175 63.222 35.3023C63.2528 35.8868 63.2733 36.4712 63.2733 37.0659C63.263 53.7687 49.6875 67.3442 32.995 67.3442Z" fill="#E33149"/>
<path d="M48.2315 37.9166L43.0842 34.2766C44.0378 32.4823 44.7453 30.4419 44.8376 28.2681C44.9299 26.0637 44.1096 23.8797 42.6023 22.2802C41.1053 20.7011 39.0957 19.8193 36.9322 19.7988C36.9014 19.7988 36.8707 19.7988 36.8399 19.7988C34.7175 19.7988 32.7283 20.6191 31.2108 22.1161C30.1342 23.1825 29.396 24.5051 29.0576 25.9406C26.7198 25.9201 24.4743 27.048 23.0901 28.9961L19.6757 33.8152C18.312 35.7531 18.107 38.2447 19.1118 40.3467C18.7016 41.3207 18.4761 42.3768 18.4761 43.4739C18.4761 47.9854 21.1932 51.9433 23.408 54.4246L23.1926 60.2998C23.1311 61.8378 23.8489 63.2835 25.0998 64.1756C25.8893 64.7395 26.8121 65.0163 27.7349 65.0163C28.6475 65.0163 29.5498 64.7498 30.329 64.2063L39.6699 57.7159C41.1566 56.6803 42.4383 55.4192 43.4841 53.9427L46.3038 49.9541L49.5029 45.4323C50.3334 44.2532 50.6615 42.828 50.4154 41.413C50.1899 39.9878 49.4106 38.7574 48.2315 37.9166ZM36.8399 22.4545C36.8604 22.4545 36.8809 22.4545 36.9014 22.4545C38.3369 22.475 39.6699 23.0594 40.6747 24.1155C41.7 25.1921 42.2537 26.6686 42.1922 28.1656C42.0076 32.5746 38.4292 36.5734 36.9014 38.0909C36.8707 38.1217 36.8194 38.1217 36.7784 38.0909C35.1891 36.5119 31.4876 32.349 31.4876 27.8067C31.4876 26.361 32.0516 25.0178 33.0769 24.0027C34.092 22.9979 35.425 22.4545 36.8399 22.4545ZM22.721 39.6699C23.7361 38.6753 25.069 38.1217 26.484 38.1217C26.5045 38.1217 26.525 38.1217 26.5455 38.1217C27.981 38.1422 29.3139 38.7266 30.3188 39.7827C31.3441 40.8593 31.8978 42.3358 31.8363 43.8328C31.6517 48.2418 28.0733 52.2406 26.5455 53.7581C26.5147 53.7889 26.4635 53.7889 26.4327 53.7581C24.8434 52.1791 21.142 48.0265 21.142 43.4739C21.142 42.0282 21.7059 40.6748 22.721 39.6699ZM47.3497 43.9046L44.1506 48.4263L41.3309 52.4149C40.4696 53.6351 39.4033 54.6912 38.1729 55.5422L28.832 62.0326C28.1758 62.494 27.294 62.4838 26.648 62.0224C26.1251 61.6532 25.8278 61.0483 25.8483 60.4023L25.9918 56.383C26.1559 56.4137 26.3199 56.424 26.484 56.424C27.1812 56.424 27.8784 56.1574 28.4116 55.6345C30.5853 53.4813 34.2663 49.0928 34.4816 43.9353C34.5739 41.7309 33.7536 39.5469 32.2464 37.9474C30.7494 36.3683 28.7397 35.4865 26.5763 35.466C24.5461 35.4455 22.6287 36.1735 21.1317 37.5167C21.142 36.758 21.3675 35.989 21.8289 35.343L25.2433 30.5239C26.0841 29.3345 27.4376 28.627 28.8628 28.586C29.2114 33.5897 32.7488 37.8243 34.9123 39.9673C35.4455 40.4902 36.1427 40.7568 36.8399 40.7568C37.5372 40.7568 38.2344 40.4902 38.7676 39.9673C39.6083 39.1265 40.6849 37.9576 41.6898 36.5324L46.7037 40.0801C47.2984 40.5005 47.6983 41.1362 47.8213 41.8539C47.9444 42.5819 47.7803 43.2996 47.3497 43.9046Z" fill="#E33149"/>
<path d="M57.8494 22.0035C60.382 22.0035 62.4429 19.9425 62.4429 17.4099C62.4429 14.8773 60.382 12.8164 57.8494 12.8164C55.3168 12.8164 53.2559 14.8773 53.2559 17.4099C53.2559 19.9425 55.3168 22.0035 57.8494 22.0035ZM57.8494 15.4618C58.9157 15.4618 59.7873 16.3333 59.7873 17.3997C59.7873 18.466 58.9157 19.3376 57.8494 19.3376C56.783 19.3376 55.9115 18.466 55.9115 17.3997C55.9012 16.3333 56.7728 15.4618 57.8494 15.4618Z" fill="#E33149"/>
<path d="M31.0777 43.7205C31.0777 41.1879 29.0167 39.127 26.4841 39.127C23.9516 39.127 21.8906 41.1879 21.8906 43.7205C21.8906 46.2531 23.9516 48.314 26.4841 48.314C29.027 48.314 31.0777 46.2531 31.0777 43.7205ZM24.5463 43.7205C24.5463 42.6541 25.4178 41.7826 26.4841 41.7826C27.5505 41.7826 28.422 42.6541 28.422 43.7205C28.422 44.7868 27.5505 45.6584 26.4841 45.6584C25.4178 45.6686 24.5463 44.7971 24.5463 43.7205Z" fill="#E33149"/>
<path d="M36.8401 32.647C39.3727 32.647 41.4336 30.5861 41.4336 28.0535C41.4336 25.5209 39.3727 23.46 36.8401 23.46C34.3075 23.46 32.2466 25.5209 32.2466 28.0535C32.2466 30.5861 34.3075 32.647 36.8401 32.647ZM36.8401 26.1156C37.9065 26.1156 38.778 26.9871 38.778 28.0535C38.778 29.1198 37.9065 29.9914 36.8401 29.9914C35.7738 29.9914 34.9022 29.1198 34.9022 28.0535C34.9022 26.9871 35.7738 26.1156 36.8401 26.1156Z" fill="#E33149"/>
<path d="M16.333 8.25368C16.333 5.72109 14.2721 3.66016 11.7395 3.66016C9.20693 3.66016 7.146 5.72109 7.146 8.25368C7.146 10.7863 9.20693 12.8472 11.7395 12.8472C14.2721 12.8472 16.333 10.7863 16.333 8.25368ZM9.79138 8.25368C9.79138 7.18733 10.6629 6.31579 11.7293 6.31579C12.7956 6.31579 13.6672 7.18733 13.6672 8.25368C13.6672 9.32004 12.7956 10.1916 11.7293 10.1916C10.6629 10.1916 9.79138 9.32004 9.79138 8.25368Z" fill="#E33149"/>
</svg>
