<svg width="18" height="18" viewBox="0 0 18 18" fill="none" xmlns="http://www.w3.org/2000/svg">
<path d="M14.5645 1.50533C14.3128 1.26242 13.9955 1.09829 13.6517 1.03315C13.3079 0.968001 12.9525 1.00468 12.6293 1.13867C12.3409 1.26635 12.0967 1.47624 11.9273 1.74202C11.7579 2.0078 11.6708 2.31764 11.677 2.63267V16C11.677 16.2652 11.7825 16.5196 11.9702 16.7071C12.1579 16.8946 12.4125 17 12.678 17C12.9434 17 13.198 16.8946 13.3858 16.7071C13.5735 16.5196 13.6789 16.2652 13.6789 16V14.3447C17.7589 11.256 18.1099 4.90333 14.5645 1.50533ZM13.6789 11.496V3.496C15.3412 5.424 15.4887 9.48133 13.6789 11.496ZM9.67506 2V6C9.67337 6.97446 9.34326 7.91996 8.73795 8.68408C8.13265 9.44821 7.28741 9.98643 6.3385 10.212V16C6.3385 16.2652 6.23304 16.5196 6.04532 16.7071C5.8576 16.8946 5.603 17 5.33753 17C5.07206 17 4.81746 16.8946 4.62974 16.7071C4.44202 16.5196 4.33656 16.2652 4.33656 16V10.212C3.38765 9.98643 2.54241 9.44821 1.93711 8.68408C1.3318 7.91996 1.00169 6.97446 1 6L1 2C1 1.73478 1.10546 1.48043 1.29318 1.29289C1.48089 1.10536 1.7355 1 2.00097 1C2.26644 1 2.52104 1.10536 2.70876 1.29289C2.89648 1.48043 3.00194 1.73478 3.00194 2V6C3.00361 6.44005 3.1298 6.87065 3.36596 7.24211C3.60211 7.61357 3.93859 7.91074 4.33656 8.09933V2C4.33656 1.73478 4.44202 1.48043 4.62974 1.29289C4.81746 1.10536 5.07206 1 5.33753 1C5.603 1 5.8576 1.10536 6.04532 1.29289C6.23304 1.48043 6.3385 1.73478 6.3385 2V8.09933C6.73647 7.91074 7.07295 7.61357 7.3091 7.24211C7.54526 6.87065 7.67145 6.44005 7.67312 6V2C7.67312 1.73478 7.77858 1.48043 7.9663 1.29289C8.15402 1.10536 8.40862 1 8.67409 1C8.93957 1 9.19417 1.10536 9.38188 1.29289C9.5696 1.48043 9.67506 1.73478 9.67506 2Z" fill="#28327F"/>
</svg>
