<svg width="20" height="20" viewBox="0 0 20 20" fill="none" xmlns="http://www.w3.org/2000/svg">
<g clip-path="url(#clip0_1392_9445)">
<path d="M18.75 16.6667H11.25V15H17.3733C18.8217 15 20 13.8217 20 12.3733C20 7.19417 16.185 2.77917 11.25 2.16083V1.25C11.25 0.559167 10.6908 0 10 0C9.30917 0 8.75 0.559167 8.75 1.25V2.15917C6.70583 2.41 4.80083 3.28333 3.24417 4.71083C1.1825 6.60083 0 9.28833 0 12.0833V12.4783C0 13.8683 1.13083 15 2.52167 15H8.75V16.6667H1.25C0.559167 16.6667 0 17.2258 0 17.9167C0 18.6075 0.559167 19.1667 1.25 19.1667H18.75C19.4408 19.1667 20 18.6075 20 17.9167C20 17.2258 19.4408 16.6667 18.75 16.6667ZM2.5 12.5V12.0833C2.5 9.98667 3.38667 7.97083 4.93333 6.55333C6.33167 5.27167 8.105 4.58417 9.9875 4.5825C9.99167 4.5825 9.99583 4.5825 10.0008 4.5825C10.0042 4.5825 10.0067 4.5825 10.01 4.5825C10.23 4.5825 10.4525 4.59333 10.6758 4.61167C14.5025 4.94417 17.5008 8.35333 17.5008 12.3725C17.5008 12.4417 17.4442 12.4992 17.3742 12.4992H2.5V12.5Z" fill="#28327F"/>
</g>
<defs>
<clipPath id="clip0_1392_9445">
<rect width="20" height="20" fill="white"/>
</clipPath>
</defs>
</svg>
