<svg width="18" height="18" viewBox="0 0 18 18" fill="none" xmlns="http://www.w3.org/2000/svg">
<g clip-path="url(#clip0_1415_534)">
<path d="M13.3875 2.2499H13.05V1.9124C13.05 1.64387 12.9434 1.38634 12.7535 1.19646C12.5636 1.00658 12.3061 0.899902 12.0375 0.899902C11.769 0.899902 11.5115 1.00658 11.3216 1.19646C11.1317 1.38634 11.025 1.64387 11.025 1.9124V2.2499H6.97502V1.9124C6.97502 1.64387 6.86835 1.38634 6.67847 1.19646C6.48859 1.00658 6.23106 0.899902 5.96252 0.899902C5.69399 0.899902 5.43646 1.00658 5.24658 1.19646C5.0567 1.38634 4.95002 1.64387 4.95002 1.9124V2.2499H4.61252C3.62791 2.2499 2.68362 2.64104 1.98739 3.33727C1.29116 4.0335 0.900024 4.97779 0.900024 5.9624L0.900024 13.3874C0.900024 14.372 1.29116 15.3163 1.98739 16.0125C2.68362 16.7088 3.62791 17.0999 4.61252 17.0999H13.3875C14.3721 17.0999 15.3164 16.7088 16.0127 16.0125C16.7089 15.3163 17.1 14.372 17.1 13.3874V5.9624C17.1 4.97779 16.7089 4.0335 16.0127 3.33727C15.3164 2.64104 14.3721 2.2499 13.3875 2.2499ZM13.3875 15.0749H4.61252C4.16497 15.0749 3.73575 14.8971 3.41928 14.5806C3.10281 14.2642 2.92502 13.835 2.92502 13.3874V7.6499H15.075V13.3874C15.075 13.835 14.8972 14.2642 14.5808 14.5806C14.2643 14.8971 13.8351 15.0749 13.3875 15.0749Z" fill="#28327F"/>
</g>
<defs>
<clipPath id="clip0_1415_534">
<rect width="18" height="18" fill="white"/>
</clipPath>
</defs>
</svg>
