<svg width="18" height="18" viewBox="0 0 18 18" fill="none" xmlns="http://www.w3.org/2000/svg">
<g clip-path="url(#clip0_1415_516)">
<path d="M15 7.125H14.25C14.25 6.42881 13.9734 5.76113 13.4812 5.26884C12.9889 4.77656 12.3212 4.5 11.625 4.5H2.625C1.92881 4.5 1.26113 4.77656 0.768845 5.26884C0.276562 5.76113 0 6.42881 0 7.125L0 13.875C0.00119113 14.9687 0.436171 16.0172 1.2095 16.7905C1.98283 17.5638 3.03135 17.9988 4.125 18H10.125C10.9545 17.9987 11.7643 17.7475 12.449 17.2793C13.1336 16.8111 13.6614 16.1475 13.9635 15.375H15C15.7956 15.375 16.5587 15.0589 17.1213 14.4963C17.6839 13.9337 18 13.1706 18 12.375V10.125C18 9.32935 17.6839 8.56629 17.1213 8.00368C16.5587 7.44107 15.7956 7.125 15 7.125ZM10.125 15.75H4.125C3.62772 15.75 3.15081 15.5525 2.79917 15.2008C2.44754 14.8492 2.25 14.3723 2.25 13.875V7.125C2.25 7.02554 2.28951 6.93016 2.35984 6.85983C2.43016 6.78951 2.52554 6.75 2.625 6.75H11.625C11.7245 6.75 11.8198 6.78951 11.8902 6.85983C11.9605 6.93016 12 7.02554 12 7.125V13.875C12 14.3723 11.8025 14.8492 11.4508 15.2008C11.0992 15.5525 10.6223 15.75 10.125 15.75ZM15.75 12.375C15.75 12.5739 15.671 12.7647 15.5303 12.9053C15.3897 13.046 15.1989 13.125 15 13.125H14.25V9.375H15C15.1989 9.375 15.3897 9.45402 15.5303 9.59467C15.671 9.73532 15.75 9.92609 15.75 10.125V12.375ZM6 1.875V1.125C6 0.826631 6.11853 0.540483 6.3295 0.329505C6.54048 0.118526 6.82663 0 7.125 0C7.42337 0 7.70952 0.118526 7.9205 0.329505C8.13147 0.540483 8.25 0.826631 8.25 1.125V1.875C8.25 2.17337 8.13147 2.45952 7.9205 2.6705C7.70952 2.88147 7.42337 3 7.125 3C6.82663 3 6.54048 2.88147 6.3295 2.6705C6.11853 2.45952 6 2.17337 6 1.875ZM9.75 1.875V1.125C9.75 0.826631 9.86853 0.540483 10.0795 0.329505C10.2905 0.118526 10.5766 0 10.875 0C11.1734 0 11.4595 0.118526 11.6705 0.329505C11.8815 0.540483 12 0.826631 12 1.125V1.875C12 2.17337 11.8815 2.45952 11.6705 2.6705C11.4595 2.88147 11.1734 3 10.875 3C10.5766 3 10.2905 2.88147 10.0795 2.6705C9.86853 2.45952 9.75 2.17337 9.75 1.875ZM2.25 1.875V1.125C2.25 0.826631 2.36853 0.540483 2.5795 0.329505C2.79048 0.118526 3.07663 0 3.375 0C3.67337 0 3.95952 0.118526 4.1705 0.329505C4.38147 0.540483 4.5 0.826631 4.5 1.125V1.875C4.5 2.17337 4.38147 2.45952 4.1705 2.6705C3.95952 2.88147 3.67337 3 3.375 3C3.07663 3 2.79048 2.88147 2.5795 2.6705C2.36853 2.45952 2.25 2.17337 2.25 1.875Z" fill="#28327F"/>
</g>
<defs>
<clipPath id="clip0_1415_516">
<rect width="18" height="18" fill="white"/>
</clipPath>
</defs>
</svg>
