<svg width="25" height="25" viewBox="0 0 25 25" fill="none" xmlns="http://www.w3.org/2000/svg">
<path d="M21.5 12.924V11.5C21.5 9.11305 20.5517 6.82387 18.8639 5.13604C17.1761 3.44821 14.8869 2.5 12.5 2.5C10.113 2.5 7.82382 3.44821 6.13599 5.13604C4.44816 6.82387 3.49995 9.11305 3.49995 11.5V12.924C2.45111 13.3858 1.59275 14.194 1.06857 15.2131C0.544393 16.2322 0.386212 17.4004 0.620508 18.5222C0.854805 19.6441 1.46736 20.6513 2.35562 21.3755C3.24388 22.0996 4.35394 22.4966 5.49995 22.5H7.49995V12.5H5.49995V11.5C5.49995 9.64348 6.23745 7.86301 7.5502 6.55025C8.86296 5.2375 10.6434 4.5 12.5 4.5C14.3565 4.5 16.1369 5.2375 17.4497 6.55025C18.7625 7.86301 19.5 9.64348 19.5 11.5V12.5H17.5V20.5H13.5V22.5H19.5C20.646 22.4966 21.756 22.0996 22.6443 21.3755C23.5325 20.6513 24.1451 19.6441 24.3794 18.5222C24.6137 17.4004 24.4555 16.2322 23.9313 15.2131C23.4072 14.194 22.5488 13.3858 21.5 12.924ZM5.49995 20.5C4.7043 20.5 3.94124 20.1839 3.37863 19.6213C2.81602 19.0587 2.49995 18.2956 2.49995 17.5C2.49995 16.7044 2.81602 15.9413 3.37863 15.3787C3.94124 14.8161 4.7043 14.5 5.49995 14.5V20.5ZM19.5 20.5V14.5C20.2956 14.5 21.0587 14.8161 21.6213 15.3787C22.1839 15.9413 22.5 16.7044 22.5 17.5C22.5 18.2956 22.1839 19.0587 21.6213 19.6213C21.0587 20.1839 20.2956 20.5 19.5 20.5Z" fill="#28327F"/>
</svg>
