<svg width="25" height="25" viewBox="0 0 25 25" fill="none" xmlns="http://www.w3.org/2000/svg">
<g clip-path="url(#clip0_1541_3084)">
<path d="M25 17.9102C24.9952 15.9668 23.8428 14.2041 22.0655 13.4229L21.7627 13.291V11.4111C21.7627 6.30371 17.6075 2.15332 12.5049 2.15332C7.3975 2.15332 3.24711 6.30859 3.24711 11.4111V13.291L2.94438 13.4229C0.463909 14.5166 -0.668904 17.4219 0.424846 19.9072C1.2061 21.6846 2.96879 22.8369 4.91215 22.8418H6.57231V13.0078H4.39457V11.416C4.39457 6.94824 8.03227 3.31055 12.5 3.31055C16.9678 3.31055 20.6055 6.94824 20.6055 11.416V13.0078H18.4327V21.6895H14.0918V22.8418H20.0977C21.4112 22.8369 22.6416 22.3242 23.5694 21.3916C24.4971 20.4639 25.0049 19.2285 25 17.9102ZM4.90239 14.1602H5.4102V21.6895H4.90239C2.82719 21.6895 1.13774 20 1.13774 17.9248C1.13774 15.8496 2.82719 14.1602 4.90239 14.1602ZM20.0977 21.6943H19.5899V14.1602H20.0977C22.1729 14.1602 23.8623 15.8496 23.8623 17.9248C23.8623 20 22.1729 21.6943 20.0977 21.6943Z" fill="#28327F"/>
</g>
<defs>
<clipPath id="clip0_1541_3084">
<rect width="25" height="25" fill="white"/>
</clipPath>
</defs>
</svg>
