<svg width="80" height="80" viewBox="0 0 80 80" fill="none" xmlns="http://www.w3.org/2000/svg">
<g clip-path="url(#clip0_1415_457)">
<path d="M40 80C34.8281 80 30.625 75.7969 30.625 70.625C30.625 65.4531 34.8281 61.25 40 61.25C44.0781 61.25 47.5469 63.8594 48.8438 67.5H58.125C59.8438 67.5 61.25 66.0938 61.25 64.375V40.625C61.25 28.3594 51.9219 18.75 40 18.75C28.0781 18.75 18.75 28.3594 18.75 40.625V62.5H12.5C5.60938 62.5 0 56.8906 0 50C0 43.1094 5.60938 37.5 12.5 37.5H12.6562C13.3281 31.1562 16 25.3125 20.375 20.7812C25.5312 15.4375 32.5 12.5 39.9844 12.5C47.4844 12.5 54.4375 15.4375 59.5938 20.7812C63.9688 25.3125 66.6562 31.1562 67.3125 37.5H67.4688C74.3594 37.5 79.9688 43.1094 79.9688 50C79.9688 56.8906 74.3594 62.5 67.4688 62.5V64.375C67.4688 69.5469 63.2656 73.75 58.0938 73.75H48.8125C47.5469 77.3906 44.0781 80 40 80ZM40 67.5C38.2812 67.5 36.875 68.9062 36.875 70.625C36.875 72.3438 38.2812 73.75 40 73.75C41.7188 73.75 43.125 72.3438 43.125 70.625C43.125 68.9062 41.7188 67.5 40 67.5ZM67.5 43.75V56.25C70.9531 56.25 73.75 53.4531 73.75 50C73.75 46.5469 70.9531 43.75 67.5 43.75ZM12.5 43.75C9.04688 43.75 6.25 46.5469 6.25 50C6.25 53.4531 9.04688 56.25 12.5 56.25V43.75ZM63.6719 16.3281C57.0781 9.73438 48.8906 6.25 40 6.25C31.1094 6.25 22.9219 9.73438 16.3281 16.3281L11.9062 11.9062C19.7031 4.125 29.4219 0 40 0C50.5781 0 60.2969 4.125 68.0938 11.9062L63.6719 16.3281Z" fill="#E33149"/>
</g>
<defs>
<clipPath id="clip0_1415_457">
<rect width="80" height="80" fill="white"/>
</clipPath>
</defs>
</svg>
