<svg width="25" height="26" viewBox="0 0 25 26" fill="none" xmlns="http://www.w3.org/2000/svg">
<path d="M12.5 2.5C10.4233 2.5 8.39323 3.11581 6.66652 4.26957C4.9398 5.42332 3.59399 7.0632 2.79927 8.98182C2.00455 10.9004 1.79661 13.0116 2.20176 15.0484C2.6069 17.0853 3.60693 18.9562 5.07538 20.4246C6.54383 21.8931 8.41476 22.8931 10.4516 23.2982C12.4884 23.7034 14.5996 23.4955 16.5182 22.7007C18.4368 21.906 20.0767 20.5602 21.2304 18.8335C22.3842 17.1068 23 15.0767 23 13C22.997 10.2162 21.8898 7.54718 19.9213 5.5787C17.9528 3.61022 15.2839 2.50301 12.5 2.5ZM12.5 21.75C10.7694 21.75 9.0777 21.2368 7.63877 20.2754C6.19983 19.3139 5.07833 17.9473 4.41606 16.3485C3.75379 14.7496 3.58051 12.9903 3.91813 11.293C4.25575 9.59563 5.08911 8.03653 6.31282 6.81282C7.53653 5.58911 9.09563 4.75575 10.793 4.41813C12.4903 4.08051 14.2496 4.25379 15.8485 4.91605C17.4473 5.57832 18.8139 6.69983 19.7754 8.13876C20.7368 9.57769 21.25 11.2694 21.25 13C21.2475 15.3199 20.3248 17.544 18.6844 19.1844C17.044 20.8248 14.8199 21.7475 12.5 21.75Z" fill="#28327F"/>
<path d="M13.1274 6.93022C12.6228 6.83829 12.1042 6.85837 11.6082 6.98906C11.1122 7.11975 10.651 7.35784 10.2573 7.68649C9.86352 8.01514 9.5468 8.42632 9.32953 8.89092C9.11227 9.35553 8.99977 9.8622 9 10.3751C9 10.6072 9.09219 10.8297 9.25628 10.9938C9.42038 11.1579 9.64294 11.2501 9.875 11.2501C10.1071 11.2501 10.3296 11.1579 10.4937 10.9938C10.6578 10.8297 10.75 10.6072 10.75 10.3751C10.7498 10.1177 10.8064 9.86333 10.9157 9.63026C11.0251 9.39719 11.1845 9.19113 11.3826 9.02675C11.5808 8.86237 11.8127 8.74374 12.062 8.6793C12.3112 8.61486 12.5716 8.60622 12.8246 8.65397C13.1703 8.72107 13.4881 8.88969 13.7375 9.13828C13.9868 9.38687 14.1564 9.70415 14.2246 10.0496C14.2935 10.4122 14.2459 10.7873 14.0888 11.1212C13.9316 11.4552 13.6729 11.7309 13.3496 11.909C12.8143 12.2191 12.3719 12.6672 12.0686 13.2064C11.7652 13.7457 11.6121 14.3564 11.625 14.975V15.6251C11.625 15.8572 11.7172 16.0797 11.8813 16.2438C12.0454 16.4079 12.2679 16.5001 12.5 16.5001C12.7321 16.5001 12.9546 16.4079 13.1187 16.2438C13.2828 16.0797 13.375 15.8572 13.375 15.6251V14.975C13.364 14.6705 13.4335 14.3685 13.5763 14.0994C13.7192 13.8302 13.9304 13.6035 14.1888 13.442C14.8227 13.0938 15.3332 12.5577 15.6501 11.9076C15.9669 11.2574 16.0746 10.525 15.9582 9.81118C15.8419 9.09733 15.5072 8.43705 15.0003 7.92116C14.4934 7.40526 13.8391 7.05908 13.1274 6.93022Z" fill="#28327F"/>
<path d="M13.375 18.25C13.375 17.7668 12.9832 17.375 12.5 17.375C12.0168 17.375 11.625 17.7668 11.625 18.25C11.625 18.7332 12.0168 19.125 12.5 19.125C12.9832 19.125 13.375 18.7332 13.375 18.25Z" fill="#28327F"/>
</svg>
