<svg width="100" height="100" viewBox="0 0 100 100" fill="none" xmlns="http://www.w3.org/2000/svg">
<path d="M50 6.25C25.9375 6.25 6.25 25.9375 6.25 50C8.59375 107.969 91.4062 107.969 93.75 50C93.75 25.9375 74.0625 6.25 50 6.25ZM50 90.625C27.6562 90.625 9.375 72.3438 9.375 50C11.5625 -3.90625 88.4375 -3.90625 90.625 50C90.625 72.3438 72.3438 90.625 50 90.625ZM87.5 50C87.6562 81.5625 49.8438 99.2188 25.9375 78.5938C25.3125 77.9688 25.3125 77.0312 25.9375 76.4062L32.9688 69.375C34.375 67.9688 36.5625 70.1562 35.1562 71.5625L29.375 77.3438C51.4062 94.5312 84.5312 78.125 84.375 50C84.375 42.5 81.875 35.1563 77.3438 29.2188L74.0625 32.5C73.4375 33.125 72.5 33.125 71.875 32.5C71.25 31.875 71.25 30.9375 71.875 30.3125L76.4062 25.7812C77.0312 25.1562 78.125 25.1562 78.5938 25.7812C84.375 32.5 87.5 41.25 87.5 50ZM23.5938 74.2188C23.125 74.6875 22.5 74.8438 21.875 74.5312C0.46875 50.9375 18.125 12.3438 50 12.5C58.75 12.5 67.3438 15.625 74.2188 21.4062C74.5312 21.7188 74.8438 22.3438 74.6875 22.8125C74.6875 23.125 74.5312 23.4375 74.2188 23.75L66.875 31.0938C65.4688 32.5 63.2813 30.3125 64.6875 28.9062L70.7812 22.8125C38.4375 -0.78125 -0.78125 38.4375 22.6562 70.7812L29.6875 63.75C31.0938 62.3438 33.2812 64.5312 31.875 65.9375L23.5938 74.2188ZM41.0938 67.1875C39.375 67.6562 39.6875 70.3125 41.5625 70.3125C41.7188 70.3125 52.3438 67.5 52.3438 67.5C52.8125 67.3438 53.125 67.0312 53.2812 66.7188L60.3125 52.0312L77.1875 47.3438C77.9688 47.1875 78.5938 46.25 78.2812 45.4688C76.4062 38.75 69.6875 33.75 62.9688 35.625L33.125 43.5938L28.75 39.6875C28.2812 39.375 27.8125 39.2188 27.3438 39.375L22.3438 40.7812C21.875 40.9375 21.5625 41.0938 21.4062 41.5625C21.25 41.875 21.0938 42.3438 21.25 42.8125L23.9062 52.6562C25 57.3438 30.3125 60.3125 34.8437 59.0625L44.8438 56.4062L42.6562 66.875C41.875 66.875 41.0938 67.1875 41.0938 67.1875ZM34.6875 55.625C31.7188 56.5625 28.2812 54.5312 27.5 51.5625L25.1562 43.75L27.6563 42.9688L32.0312 46.875C32.5 47.1875 32.9688 47.3438 33.4375 47.1875L62.9688 39.2188C67.3438 37.9688 72.3438 40.625 74.0625 44.8438L58.75 48.9062C58.2812 49.0625 57.9688 49.375 57.8125 49.6875L50.7812 64.0625L46.0938 65.3125L48.4375 53.9062C48.75 52.8125 47.5 51.7188 46.5625 52.0312C45.7812 52.5 34.6875 55.625 34.6875 55.625Z" fill="#E33149"/>
</svg>
