<svg width="100" height="100" viewBox="0 0 100 100" fill="none" xmlns="http://www.w3.org/2000/svg">
<path d="M86.836 19.9024H79.8633V11.4063C79.8633 8.55469 77.5586 6.25 74.707 6.25H64.9609C62.1094 6.25 59.8047 8.55469 59.8047 11.4063V19.9024H52.832C49.2578 19.9024 46.3477 22.8125 46.3477 26.3867V50.8008H43.125V46.7774C43.125 44.2383 41.0742 42.1875 38.5352 42.1875H21.7969C19.2578 42.1875 17.207 44.2383 17.207 46.7774V50.8008H12.0117C9.0625 50.8008 6.67969 53.2032 6.66016 56.1524V80.8008C6.66016 83.75 9.0625 86.1329 12.0117 86.1524H13.5352V87.4805C13.5352 89.9024 15.4883 91.8555 17.9102 91.8555H19.6094C22.0313 91.8555 23.9844 89.9024 23.9844 87.4805V86.1329H36.3281V87.461C36.3281 89.8829 38.2813 91.836 40.7031 91.836H42.4023C44.8242 91.836 46.7773 89.8829 46.7773 87.461V86.1329H48.3008C49.4336 86.1329 50.5273 85.7618 51.4258 85.0977C52.0117 85.2344 52.6172 85.293 53.2031 85.2735V87.461C53.2031 89.8829 55.1563 91.836 57.5781 91.836H59.2774C61.6992 91.836 63.6524 89.8829 63.6524 87.461V85.2735H75.9961V87.461C75.9961 89.8829 77.9492 91.836 80.3711 91.836H82.0703C84.4922 91.836 86.4453 89.8829 86.4453 87.461V85.2735C90.0391 85.4688 93.1055 82.6954 93.3008 79.1016C93.3008 79.0039 93.3008 78.8868 93.3008 78.7891V26.3867C93.3203 22.8125 90.4297 19.9024 86.836 19.9024ZM62.9492 11.4063C62.9492 10.293 63.8672 9.375 64.9805 9.375H74.7266C75.8399 9.375 76.7578 10.293 76.7578 11.4063V19.9024H62.9492V11.4063ZM20.3125 46.7774C20.3125 45.9571 20.9766 45.3125 21.7773 45.3125H38.5156C39.3359 45.3125 39.9805 45.9766 39.9805 46.7774V50.8008H20.3125V46.7774ZM20.8594 87.4805C20.8008 89.0821 18.9648 88.6914 17.9102 88.7305C17.2266 88.7305 16.6602 88.1641 16.6602 87.4805V86.1329H20.8594V87.4805ZM43.6523 87.4805C43.5938 89.0821 41.7578 88.6914 40.7031 88.7305C40.0195 88.7305 39.4531 88.1641 39.4531 87.4805V86.1329H43.6523V87.4805ZM12.0117 83.0079C10.7813 83.0079 9.78516 82.0118 9.78516 80.7813V56.1524C9.78516 54.9219 10.7813 53.9258 12.0117 53.9258C12.0117 53.9258 43.6914 53.9258 48.3008 53.9258C49.5313 53.9258 50.5274 54.9219 50.5274 56.1524V80.8008C50.5274 82.0313 49.5313 83.0079 48.3008 83.0274L12.0117 83.0079ZM60.5469 87.4805C60.4883 89.0821 58.6523 88.6914 57.5977 88.7305C55.8203 88.6719 56.4453 86.4063 56.3477 85.293H60.5469V87.4805ZM83.3399 87.4805C83.2813 89.0821 81.4453 88.6914 80.3906 88.7305C78.6133 88.6719 79.2383 86.4063 79.1406 85.293H83.3399V87.4805ZM90.1953 78.7891C90.1953 80.6446 88.6914 82.1485 86.836 82.1485C86.8164 82.1485 53.4375 82.1485 53.4375 82.1485C53.5547 81.6993 53.6328 81.25 53.6328 80.7813V56.1524C53.6328 53.6524 51.8945 51.5039 49.4727 50.9571V26.3867C49.4727 24.5313 50.9766 23.0274 52.832 23.0274C62.3438 23.0274 77.3047 23.0274 86.836 23.0274C88.6914 23.0274 90.1953 24.5313 90.1953 26.3867V78.7891ZM59.2969 32.2461V72.9493C59.2969 73.8086 58.5938 74.5118 57.7344 74.5118C56.875 74.5118 56.1719 73.8086 56.1719 72.9493V32.2461C56.1719 31.3867 56.875 30.6836 57.7344 30.6836C58.5938 30.6836 59.2969 31.3672 59.2969 32.2461ZM71.4063 32.2461V72.9493C71.4063 73.8086 70.7031 74.5118 69.8438 74.5118C68.9844 74.5118 68.2813 73.8086 68.2813 72.9493V32.2461C68.2813 31.3867 68.9844 30.6836 69.8438 30.6836C70.7031 30.6836 71.4063 31.3672 71.4063 32.2461ZM83.5156 32.2461V72.9493C83.5156 73.8086 82.8125 74.5118 81.9531 74.5118C81.0938 74.5118 80.3906 73.8086 80.3906 72.9493V32.2461C80.3906 31.3867 81.0938 30.6836 81.9531 30.6836C82.8125 30.6836 83.5156 31.3672 83.5156 32.2461ZM19.6094 57.9297V79.0039C19.6094 79.8633 18.9063 80.5664 18.0469 80.5664C17.1875 80.5664 16.4844 79.8633 16.4844 79.0039V57.9297C16.4844 57.0703 17.1875 56.3672 18.0469 56.3672C18.9063 56.3672 19.6094 57.0703 19.6094 57.9297ZM31.7188 57.9297V79.0039C31.7188 79.8633 31.0156 80.5664 30.1563 80.5664C29.2969 80.5664 28.5938 79.8633 28.5938 79.0039V57.9297C28.5938 57.0703 29.2969 56.3672 30.1563 56.3672C31.0156 56.3672 31.7188 57.0703 31.7188 57.9297ZM43.8281 57.9297V79.0039C43.8281 79.8633 43.125 80.5664 42.2656 80.5664C41.4063 80.5664 40.7031 79.8633 40.7031 79.0039V57.9297C40.7031 57.0703 41.4063 56.3672 42.2656 56.3672C43.125 56.3672 43.8281 57.0703 43.8281 57.9297Z" fill="#E33149"/>
</svg>
