<svg width="100" height="100" viewBox="0 0 100 100" fill="none" xmlns="http://www.w3.org/2000/svg">
<path d="M66.6406 41.8164H57.2656V32.4414C57.2656 31.3672 56.4062 30.5078 55.332 30.5078H44.6289C43.5547 30.5078 42.6953 31.3672 42.6953 32.4414V41.8164H33.3203C32.2461 41.8164 31.3867 42.6758 31.3867 43.75V54.4531C31.3867 55.5273 32.2461 56.3867 33.3203 56.3867H42.6953V65.7617C42.6953 66.8359 43.5547 67.6953 44.6289 67.6953H55.332C56.4062 67.6953 57.2656 66.8359 57.2656 65.7617V56.3867H66.6406C67.7148 56.3867 68.5742 55.5273 68.5742 54.4531V43.75C68.5742 42.6758 67.7148 41.8164 66.6406 41.8164ZM64.7266 52.5195H55.3516C54.2773 52.5195 53.418 53.3789 53.418 54.4531V63.8281H46.582V54.4531C46.582 53.3789 45.7227 52.5195 44.6484 52.5195H35.2734V45.6836H44.6484C45.7227 45.6836 46.582 44.8242 46.582 43.75V34.375H53.418V43.75C53.418 44.8242 54.2773 45.6836 55.3516 45.6836H64.7266V52.5195Z" fill="#E33149"/>
<path d="M88.0468 29.1211V29.0625C88.0077 28.1836 87.9687 27.2461 87.9687 26.2109C87.8905 21.582 84.1991 17.7344 79.5702 17.4805C68.8671 16.875 60.5859 13.3984 53.5155 6.50391L53.4765 6.46484C51.5038 4.64844 48.5351 4.64844 46.5429 6.46484L46.4843 6.50391C39.414 13.3984 31.1327 16.8945 20.4296 17.4805C15.8007 17.7344 12.0898 21.582 12.0312 26.2109C12.0116 27.2461 11.9921 28.1836 11.953 29.0625V29.1992C11.7382 39.8438 11.5038 53.0859 15.8984 65.0586C18.3202 71.6016 21.9726 77.2852 26.7577 81.9727C32.2265 87.3047 39.3945 91.543 48.0663 94.5703C48.3202 94.6484 48.5741 94.7266 48.8476 94.7852H48.8671C49.2577 94.8633 49.6288 94.8828 49.9999 94.8828C50.371 94.8828 50.7616 94.8438 51.1327 94.7852C51.3866 94.7266 51.6601 94.668 51.914 94.5703C60.5859 91.543 67.7343 87.2852 73.203 81.9531C77.9882 77.2656 81.6405 71.582 84.0624 65.0391C88.496 53.0664 88.2421 39.7852 88.0468 29.1211ZM50.6445 90.9375C50.5663 90.9766 50.4687 90.9961 50.3905 91.0156C50.1366 91.0742 49.8827 91.0742 49.6288 91.0156H49.6093C49.5312 90.9961 49.4335 90.9766 49.3554 90.9375C14.8827 78.9062 15.4296 50.2539 15.8007 29.2969V29.2188C15.8398 28.2813 15.8788 27.3242 15.8788 26.2695C15.9179 23.6328 18.0077 21.4648 20.6249 21.3281C26.4843 20.9961 31.621 19.8633 36.328 17.8711C41.0351 15.8789 45.2148 13.0664 49.121 9.27734C49.6093 8.84766 50.3124 8.84766 50.8007 9.27734C54.6874 13.0664 58.8866 15.8984 63.5937 17.8711C68.3202 19.8633 73.457 20.9961 79.2968 21.3281C81.9335 21.4648 84.0234 23.6523 84.0429 26.2695C84.0624 27.3438 84.082 28.3008 84.121 29.2188C84.5702 50.1953 85.0976 78.8867 50.6445 90.9375Z" fill="#E33149"/>
</svg>
