<svg width="100" height="100" viewBox="0 0 100 100" fill="none" xmlns="http://www.w3.org/2000/svg">
<path d="M41.1719 39.9023C40.1758 39.9023 39.375 40.7031 39.375 41.6992V46.6797C39.375 47.6758 40.1758 48.4766 41.1719 48.4766C42.168 48.4766 42.9687 47.6758 42.9687 46.6797V41.6992C42.9687 40.7031 42.168 39.9023 41.1719 39.9023Z" fill="#E33149"/>
<path d="M59.0039 39.9023C58.0078 39.9023 57.207 40.7031 57.207 41.6992V46.6797C57.207 47.6758 58.0078 48.4766 59.0039 48.4766C60 48.4766 60.8008 47.6758 60.8008 46.6797V41.6992C60.8008 40.7031 60 39.9023 59.0039 39.9023Z" fill="#E33149"/>
<path d="M88.4373 26.3867L73.7693 14.9609C73.3201 14.6094 72.7146 14.4922 72.1482 14.6484L63.9256 17.0898C60.2146 14.1406 55.2537 12.4414 50.117 12.3828C50.0974 12.3828 50.0584 12.3828 50.0584 12.3828H49.9021C49.8826 12.3828 49.8435 12.3828 49.8435 12.3828C44.7068 12.4414 39.7264 14.1211 36.0349 17.0898L27.8318 14.6484C27.2849 14.4922 26.6795 14.5898 26.2107 14.9609L11.5428 26.3867C8.6912 28.6133 7.49979 32.4219 8.59354 35.8789C11.0935 43.8086 14.4529 52.2852 22.5389 52.2852H27.1482C29.3553 58.3203 33.9646 71.0352 34.492 73.2031C35.2146 76.1133 37.3045 78.3594 39.9803 79.3555C40.6443 84.1211 44.7264 87.5781 49.9998 87.5781C55.2342 87.5781 59.2967 84.1992 59.9998 79.4922C62.9881 78.5352 65.3318 76.0352 65.9763 72.8516C66.4842 70.3711 70.7615 58.1055 72.8318 52.2656H77.4412C85.5271 52.2656 88.8865 43.8086 91.3865 35.8594C92.4998 32.4414 91.3084 28.6133 88.4373 26.3867ZM50.0193 84.0039C46.9724 84.0039 44.6092 82.3633 43.8084 79.9023C45.8982 79.7461 47.8514 78.8477 49.3162 77.3242C49.5896 77.0312 49.8631 76.7188 50.0974 76.3867C51.5623 78.2422 53.7693 79.5508 56.2498 79.8633C55.4685 82.3438 53.0857 84.0039 50.0193 84.0039ZM50.0193 66.9531L46.3474 64.0039C45.9764 63.7109 45.742 63.2617 45.7029 62.793C45.6639 62.3438 45.8201 61.9141 46.1131 61.582C46.7771 60.8398 47.7342 60.4297 48.7107 60.4297H51.3279C52.3045 60.4297 53.2615 60.8594 53.9256 61.582C54.2185 61.9141 54.3748 62.3242 54.3357 62.793C54.2967 63.2617 54.0818 63.7109 53.6912 64.0039L50.0193 66.9531ZM87.9685 34.8047C85.2537 43.3789 82.5389 48.6914 77.4412 48.6914H73.3787V40.2734C73.3787 34.9609 71.9139 29.7656 69.1404 25.2539L68.3982 24.0625C67.8709 23.2227 66.7576 22.9492 65.9373 23.4766C65.0974 24.0039 64.824 25.0977 65.3514 25.9375L66.0935 27.1289C68.5349 31.0742 69.8045 35.6445 69.8045 40.2734V50.1758C68.9256 52.6367 63.1639 68.8672 62.4803 72.1484C61.992 74.5898 59.824 76.3477 57.3435 76.3477C54.3553 76.3477 51.8162 73.9453 51.8162 71.1133V70.1563L55.9568 66.8359C57.1092 65.918 57.8123 64.5703 57.9295 63.1055C58.0467 61.6602 57.5779 60.2539 56.6013 59.1992C55.2537 57.7344 53.3592 56.875 51.3474 56.875H48.7303C46.7381 56.875 44.824 57.7148 43.4764 59.1992C42.5193 60.2539 42.031 61.6406 42.1482 63.1055C42.2654 64.5508 42.9881 65.918 44.1209 66.8359L48.242 70.1367V71.1133C48.242 74.0625 45.9959 76.3477 43.1443 76.3477C42.7928 76.3477 42.4607 76.3086 42.1092 76.25C42.0896 76.25 42.0896 76.25 42.0701 76.25C40.117 75.8594 38.5349 74.375 38.0271 72.3633C37.324 69.5117 31.1717 52.7344 30.2342 50.1758V40.2734C30.2342 35.6445 31.5232 31.0742 33.9451 27.1289L34.6873 25.9375C35.2146 25.0977 34.9412 23.9844 34.1014 23.4766C33.2615 22.9492 32.1482 23.2227 31.6404 24.0625L30.8982 25.2539C28.1248 29.7852 26.6599 34.9805 26.6599 40.2734V48.6914H22.5779C17.4607 48.6914 14.7459 43.3789 12.0506 34.8047C11.406 32.7734 12.1092 30.5273 13.7889 29.2188L27.7146 18.3789L35.9764 20.8203C36.5623 20.9961 37.2264 20.8594 37.6756 20.4492C40.8006 17.6367 45.3123 16.0352 49.9998 15.9961C54.6873 16.0156 59.199 17.6367 62.3435 20.4492C62.7928 20.8594 63.4568 20.9961 64.0428 20.8203L72.285 18.3789L86.2107 29.2188C87.9295 30.5273 88.6326 32.793 87.9685 34.8047Z" fill="#E33149"/>
</svg>
