<svg width="25" height="25" viewBox="0 0 25 25" fill="none" xmlns="http://www.w3.org/2000/svg">
<g clip-path="url(#clip0_1594_894)">
<g clip-path="url(#clip1_1594_894)">
<path d="M13.54 7.29004C13.54 7.86621 13.0713 8.33008 12.5 8.33008C11.9287 8.33008 11.46 7.86133 11.46 7.29004C11.46 6.71875 11.9238 6.25 12.5 6.25C13.0762 6.25 13.54 6.71875 13.54 7.29004ZM25 12.5C25 5.60547 19.3945 0 12.5 0C5.61523 0 0 5.61523 0 12.5C0 19.3945 5.60547 25 12.5 25C19.4043 25 25 19.4043 25 12.5ZM23.96 12.5879C23.96 18.8672 18.8672 23.96 12.5879 23.96C6.31348 23.96 1.07422 18.8281 1.04492 12.5537C1.01074 6.19141 6.19141 1.01074 12.5537 1.04004C18.8281 1.06934 23.96 6.31348 23.96 12.5879ZM13.54 11.9775C13.54 11.1182 12.8369 10.415 11.9775 10.415H9.375V11.4551H11.9775C12.2656 11.4551 12.5 11.6895 12.5 11.9775V19.79H13.54V11.9775Z" fill="#28327F"/>
</g>
</g>
<defs>
<clipPath id="clip0_1594_894">
<rect width="25" height="25" fill="white"/>
</clipPath>
<clipPath id="clip1_1594_894">
<rect width="25" height="25" fill="white"/>
</clipPath>
</defs>
</svg>
