<svg width="30" height="30" viewBox="0 0 30 30" fill="none" xmlns="http://www.w3.org/2000/svg">
<g clip-path="url(#clip0_1550_202)">
<path d="M29.9925 30L30 29.9988V18.9962C30 13.6137 28.8412 9.4675 22.5487 9.4675C19.5237 9.4675 17.4937 11.1275 16.665 12.7012H16.5775V9.97H10.6112V29.9988H16.8237V20.0813C16.8237 17.47 17.3187 14.945 20.5525 14.945C23.7387 14.945 23.7862 17.925 23.7862 20.2487V30H29.9925Z" fill="#28327F"/>
<path d="M0.494995 9.97125H6.715V30H0.494995V9.97125Z" fill="#28327F"/>
<path d="M3.6025 0C1.61375 0 0 1.61375 0 3.6025C0 5.59125 1.61375 7.23875 3.6025 7.23875C5.59125 7.23875 7.205 5.59125 7.205 3.6025C7.20375 1.61375 5.59 0 3.6025 0Z" fill="#28327F"/>
</g>
<defs>
<clipPath id="clip0_1550_202">
<rect width="30" height="30" fill="white"/>
</clipPath>
</defs>
</svg>
