<svg width="25" height="26" viewBox="0 0 25 26" fill="none" xmlns="http://www.w3.org/2000/svg">
<g clip-path="url(#clip0_1550_219)">
<path d="M12.4999 5.87412C9.94072 5.87412 7.85864 7.9562 7.85864 10.5154C7.85864 13.0746 9.94072 15.1566 12.4999 15.1566C15.0591 15.1566 17.1412 13.0746 17.1412 10.5154C17.1412 7.9562 15.0591 5.87412 12.4999 5.87412ZM12.4999 13.2024C11.0183 13.2024 9.81284 11.997 9.81284 10.5154C9.81284 9.03374 11.0183 7.82832 12.4999 7.82832C13.9815 7.82832 15.187 9.03374 15.187 10.5154C15.187 11.997 13.9815 13.2024 12.4999 13.2024Z" fill="#28327F"/>
<path d="M12.5 0.5C6.97749 0.5 2.48462 4.99292 2.48462 10.5154V10.7922C2.48462 13.5852 4.08589 16.8399 7.24409 20.4657C9.53355 23.0942 11.791 24.9271 11.8859 25.0038L12.5 25.5L13.1141 25.0039C13.209 24.9271 15.4665 23.0943 17.7559 20.4658C20.9141 16.8399 22.5154 13.5853 22.5154 10.7923V10.5154C22.5154 4.99292 18.0225 0.5 12.5 0.5ZM20.5612 10.7923C20.5612 15.5123 14.4796 21.2259 12.5 22.9604C10.5199 21.2253 4.43882 15.5119 4.43882 10.7923V10.5154C4.43882 6.07051 8.05508 2.45425 12.5 2.45425C16.9449 2.45425 20.5612 6.07051 20.5612 10.5154V10.7923Z" fill="#28327F"/>
</g>
<defs>
<clipPath id="clip0_1550_219">
<rect width="25" height="25" fill="white" transform="translate(0 0.5)"/>
</clipPath>
</defs>
</svg>
