<svg width="80" height="80" viewBox="0 0 80 80" fill="none" xmlns="http://www.w3.org/2000/svg">
<mask id="mask0_1415_466" style="mask-type:luminance" maskUnits="userSpaceOnUse" x="0" y="0" width="80" height="80">
<path d="M67.5 31.25C57.1562 31.25 48.75 22.8438 48.75 12.5C48.75 7.70312 50.5625 3.3125 53.5312 0H0V80H80V26.4688C76.6875 29.4375 72.2969 31.25 67.5 31.25Z" fill="white"/>
</mask>
<g mask="url(#mask0_1415_466)">
<path d="M18.2812 80H12.5V67.5C5.60938 67.5 0 61.8906 0 55V18.75C0 11.8594 5.60938 6.25 12.5 6.25H73.75V55C73.75 61.8906 68.1406 67.5 61.25 67.5H33.9062L18.2812 80ZM12.5 12.5C9.04688 12.5 6.25 15.2969 6.25 18.75V55C6.25 58.4531 9.04688 61.25 12.5 61.25H18.75V71.625L31.7188 61.25H61.25C64.7031 61.25 67.5 58.4531 67.5 55V12.5H12.5ZM52.5 40H46.25V33.75H52.5V40ZM40 40H33.75V33.75H40V40ZM27.5 40H21.25V33.75H27.5V40Z" fill="#E33149"/>
</g>
<path d="M67.5 25C60.6094 25 55 19.3906 55 12.5C55 5.60938 60.6094 0 67.5 0C74.3906 0 80 5.60938 80 12.5C80 19.3906 74.3906 25 67.5 25ZM67.5 6.25C64.0469 6.25 61.25 9.04688 61.25 12.5C61.25 15.9531 64.0469 18.75 67.5 18.75C70.9531 18.75 73.75 15.9531 73.75 12.5C73.75 9.04688 70.9531 6.25 67.5 6.25Z" fill="#E33149"/>
</svg>
