<svg width="25" height="25" viewBox="0 0 25 25" fill="none" xmlns="http://www.w3.org/2000/svg">
<path d="M2.65662 4.05318L5.7098 1L11.7391 7.03895L8.45477 10.3233C9.77429 13.2705 11.8162 15.322 14.6671 16.5549L17.9514 13.2705L24 19.2902L20.9468 22.3434C19.8777 23.4125 18.4426 24 16.892 24C9.90913 24 1 15.0909 1 8.10804C1 6.55737 1.58752 5.12228 2.65662 4.05318ZM16.892 22.0737C17.9225 22.0737 18.8857 21.6884 19.5791 20.9853L21.2743 19.2902L17.9611 15.977L15.139 18.799L14.5515 18.5775C10.7374 17.1231 7.99246 14.3878 6.4129 10.4485L6.17211 9.86097L8.99414 7.02931L5.6809 3.71608L3.98576 5.41122C3.28266 6.11432 2.8974 7.06784 2.8974 8.09841C2.8974 14.0988 10.8626 22.0641 16.8631 22.0641L16.892 22.0737Z" fill="#28327F"/>
</svg>
