<svg width="20" height="20" viewBox="0 0 20 20" fill="none" xmlns="http://www.w3.org/2000/svg">
<g clip-path="url(#clip0_1392_9430)">
<path d="M19.9551 9.44875C19.8051 8.65964 19.3823 7.94845 18.7606 7.43973C18.139 6.93102 17.3583 6.6572 16.5551 6.66625H14.8334L11.8851 1.51958C10.3334 -1.37875 5.78258 0.267913 6.81424 3.52458L7.93258 6.66625H3.78591L3.22424 5.89541C2.20674 4.25458 -0.544924 5.05958 0.0975765 7.09291L1.66674 9.99958L0.104243 12.9096C0.0179365 13.1446 -0.0103324 13.3969 0.0218415 13.6452C0.0540155 13.8934 0.14568 14.1302 0.289037 14.3354C0.432393 14.5407 0.6232 14.7082 0.845222 14.8238C1.06725 14.9395 1.31391 14.9998 1.56424 14.9996H1.57008C1.9017 14.9995 2.2281 14.917 2.51991 14.7595C2.81171 14.6019 3.05977 14.3743 3.24174 14.0971L3.79424 13.3329H7.93258L6.80758 16.4937C5.79508 19.7287 10.3251 21.3637 11.8726 18.5021L14.8334 13.3329H16.6667C17.1512 13.333 17.6298 13.2276 18.0693 13.0239C18.5088 12.8202 18.8986 12.5231 19.2116 12.1534C19.5246 11.7837 19.7533 11.3502 19.8817 10.8831C20.0101 10.416 20.0351 9.92651 19.9551 9.44875ZM17.3026 10.5387C17.2243 10.631 17.1269 10.7051 17.0171 10.7559C16.9073 10.8067 16.7877 10.833 16.6667 10.8329H14.1067C13.8868 10.8332 13.6708 10.8915 13.4806 11.002C13.2904 11.1125 13.1327 11.2712 13.0234 11.4621L9.69008 17.2821C9.59675 17.4396 9.35674 17.5971 9.19591 17.4337C9.18211 17.417 9.17232 17.3974 9.16726 17.3763C9.16221 17.3552 9.16203 17.3332 9.16675 17.3121L10.8817 12.4996C10.9462 12.3111 10.9651 12.1101 10.9367 11.9129C10.9084 11.7157 10.8337 11.5281 10.7188 11.3654C10.6038 11.2028 10.4519 11.0697 10.2756 10.9771C10.0992 10.8845 9.90342 10.8351 9.70425 10.8329H5.00008V9.16625H9.70425C9.90342 9.16405 10.0992 9.11464 10.2756 9.02206C10.4519 8.92949 10.6038 8.7964 10.7188 8.63372C10.8337 8.47104 10.9084 8.28342 10.9367 8.08626C10.9651 7.88911 10.9462 7.68804 10.8817 7.49958L9.17591 2.70625C9.16722 2.68292 9.16457 2.65777 9.16821 2.63315C9.17185 2.60852 9.18167 2.58522 9.19674 2.56541C9.36925 2.39875 9.59424 2.55791 9.70341 2.73958L13.0217 8.53708C13.131 8.728 13.2887 8.88671 13.4789 8.99718C13.6691 9.10765 13.8851 9.16597 14.1051 9.16625H16.5534C16.7638 9.15579 16.9714 9.2181 17.1412 9.3427C17.311 9.46731 17.4327 9.6466 17.4859 9.85041C17.5081 9.97157 17.5032 10.0961 17.4715 10.2152C17.4398 10.3342 17.3821 10.4447 17.3026 10.5387Z" fill="#28327F"/>
</g>
<defs>
<clipPath id="clip0_1392_9430">
<rect width="20" height="20" fill="white"/>
</clipPath>
</defs>
</svg>
