<svg width="18" height="18" viewBox="0 0 18 18" fill="none" xmlns="http://www.w3.org/2000/svg">
<g clip-path="url(#clip0_1415_529)">
<path d="M16.875 7.875H14.5118C14.3664 7.17003 14.0863 6.49976 13.6868 5.901L15.3608 4.227C15.5657 4.01482 15.6791 3.73065 15.6765 3.43567C15.6739 3.1407 15.5556 2.85854 15.347 2.64995C15.1385 2.44137 14.8563 2.32305 14.5613 2.32049C14.2664 2.31793 13.9822 2.43132 13.77 2.63625L12.099 4.31025C11.5002 3.91075 10.83 3.63062 10.125 3.48525V1.125C10.125 0.826631 10.0065 0.540483 9.7955 0.329505C9.58452 0.118526 9.29837 0 9 0C8.70163 0 8.41548 0.118526 8.2045 0.329505C7.99353 0.540483 7.875 0.826631 7.875 1.125V3.48825C7.17003 3.63362 6.49976 3.91375 5.901 4.31325L4.227 2.63625C4.01482 2.43132 3.73065 2.31793 3.43567 2.32049C3.1407 2.32305 2.85854 2.44137 2.64995 2.64995C2.44137 2.85854 2.32306 3.1407 2.32049 3.43567C2.31793 3.73065 2.43132 4.01482 2.63625 4.227L4.31025 5.901C3.91075 6.49976 3.63062 7.17003 3.48525 7.875H1.125C0.826631 7.875 0.540483 7.99353 0.329505 8.2045C0.118526 8.41548 0 8.70163 0 9C0 9.29837 0.118526 9.58452 0.329505 9.7955C0.540483 10.0065 0.826631 10.125 1.125 10.125H3.48825C3.63362 10.83 3.91375 11.5002 4.31325 12.099L2.63625 13.773C2.43132 13.9852 2.31793 14.2694 2.32049 14.5643C2.32306 14.8593 2.44137 15.1415 2.64995 15.35C2.85854 15.5586 3.1407 15.6769 3.43567 15.6795C3.73065 15.6821 4.01482 15.5687 4.227 15.3638L5.901 13.6898C6.49976 14.0893 7.17003 14.3694 7.875 14.5148V16.875C7.875 17.1734 7.99353 17.4595 8.2045 17.6705C8.41548 17.8815 8.70163 18 9 18C9.29837 18 9.58452 17.8815 9.7955 17.6705C10.0065 17.4595 10.125 17.1734 10.125 16.875V14.5118C10.83 14.3664 11.5002 14.0863 12.099 13.6868L13.773 15.3608C13.9852 15.5657 14.2694 15.6791 14.5643 15.6765C14.8593 15.6739 15.1415 15.5556 15.35 15.347C15.5586 15.1385 15.6769 14.8563 15.6795 14.5613C15.6821 14.2664 15.5687 13.9822 15.3638 13.77L13.6898 12.096C14.0893 11.4972 14.3694 10.827 14.5148 10.122H16.875C17.1629 10.1071 17.4342 9.98225 17.6327 9.77319C17.8312 9.56413 17.9419 9.28681 17.9419 8.9985C17.9419 8.71019 17.8312 8.43287 17.6327 8.22381C17.4342 8.01474 17.1629 7.88988 16.875 7.875ZM9 12.375C8.10489 12.375 7.24645 12.0194 6.61352 11.3865C5.98058 10.7535 5.625 9.89511 5.625 9C5.625 8.10489 5.98058 7.24645 6.61352 6.61351C7.24645 5.98058 8.10489 5.625 9 5.625C9.89511 5.625 10.7536 5.98058 11.3865 6.61351C12.0194 7.24645 12.375 8.10489 12.375 9C12.375 9.89511 12.0194 10.7535 11.3865 11.3865C10.7536 12.0194 9.89511 12.375 9 12.375Z" fill="#28327F"/>
</g>
<defs>
<clipPath id="clip0_1415_529">
<rect width="18" height="18" fill="white"/>
</clipPath>
</defs>
</svg>
