<svg width="25" height="25" viewBox="0 0 25 25" fill="none" xmlns="http://www.w3.org/2000/svg">
<path fill-rule="evenodd" clip-rule="evenodd" d="M19.9403 5.05182C17.9662 3.08486 15.3409 2.00115 12.5439 2C6.78056 2 2.09002 6.66796 2.08771 12.4053C2.08693 14.2393 2.56835 16.0297 3.4834 17.6077L2 23L7.543 21.5529C9.07032 22.3821 10.7898 22.819 12.5397 22.8195H12.544C18.3068 22.8195 22.9978 18.1512 23 12.4136C23.0012 9.63301 21.9146 7.01865 19.9403 5.05182ZM12.5439 21.0621H12.5403C10.9809 21.0615 9.45154 20.6444 8.11701 19.8565L7.79981 19.669L4.51051 20.5278L5.38847 17.3361L5.18176 17.0089C4.31178 15.6318 3.85239 14.0401 3.85316 12.4059C3.85496 7.63721 7.7537 3.75752 12.5474 3.75752C14.8687 3.75829 17.0508 4.65909 18.6916 6.29395C20.3324 7.92881 21.2354 10.1019 21.2347 12.413C21.2326 17.1821 17.3341 21.0621 12.5439 21.0621ZM17.311 14.5844C17.0498 14.4541 15.7652 13.8253 15.5257 13.7384C15.2864 13.6516 15.112 13.6084 14.938 13.8686C14.7637 14.1288 14.2631 14.7146 14.1106 14.888C13.9582 15.0616 13.8059 15.0833 13.5446 14.9531C13.2833 14.823 12.4415 14.5483 11.4435 13.6625C10.6669 12.9731 10.1426 12.1216 9.99014 11.8614C9.83791 11.601 9.98885 11.4738 10.1048 11.3308C10.3876 10.9813 10.6708 10.6148 10.7579 10.4414C10.845 10.2679 10.8014 10.116 10.736 9.98587C10.6708 9.85577 10.1483 8.57596 9.93064 8.05519C9.71839 7.54839 9.50318 7.61683 9.34271 7.60889C9.19048 7.60132 9.01623 7.59979 8.84197 7.59979C8.66785 7.59979 8.38477 7.66477 8.14522 7.92522C7.9058 8.18554 7.23094 8.81449 7.23094 10.0943C7.23094 11.3741 8.16711 12.6105 8.29771 12.784C8.4283 12.9576 10.14 15.5839 12.7608 16.71C13.3841 16.9781 13.8707 17.138 14.2503 17.2578C14.8762 17.4557 15.4456 17.4278 15.8958 17.3609C16.3978 17.2861 17.4414 16.7318 17.6593 16.1245C17.877 15.5171 17.877 14.9966 17.8116 14.888C17.7464 14.7796 17.5721 14.7146 17.311 14.5844Z" fill="#28327F"/>
</svg>
